<?xml version="1.0" standalone="no"?>
<!DOCTYPE svg PUBLIC "-//W3C//DTD SVG 20010904//EN"
 "http://www.w3.org/TR/2001/REC-SVG-20010904/DTD/svg10.dtd">
<svg version="1.0" xmlns="http://www.w3.org/2000/svg"
 width="450.000000pt" height="253.000000pt" viewBox="0 0 450.000000 253.000000"
 preserveAspectRatio="xMidYMid meet">
<metadata>
Created by potrace 1.10, written by Peter Selinger 2001-2011
</metadata>
<g transform="translate(0.000000,253.000000) scale(0.100000,-0.100000)"
fill="#000000" stroke="none">
<path d="M2273 2353 c-28 -5 -30 -23 -3 -23 11 0 20 -4 20 -10 0 -5 -5 -10
-11 -10 -6 0 -9 -6 -7 -12 3 -7 11 -13 19 -13 16 0 21 -9 13 -29 -10 -25 -44
-15 -45 14 -2 22 -2 23 -6 3 -2 -12 -12 -27 -21 -35 -13 -11 -14 -11 -7 1 5
10 4 12 -3 7 -7 -4 -12 -1 -12 8 0 9 -5 16 -11 16 -6 0 -9 7 -5 15 7 18 -5 20
-23 3 -10 -11 -12 -9 -9 7 4 24 42 32 64 14 17 -14 29 -6 21 14 -3 9 -23 16
-48 19 -34 3 -43 0 -47 -14 -2 -10 -11 -18 -19 -18 -8 0 -11 5 -7 12 4 7 3 8
-4 4 -7 -4 -26 0 -44 8 -24 12 -42 14 -65 7 -17 -5 -34 -7 -37 -3 -3 3 -6 0
-6 -6 0 -7 -9 -12 -19 -12 -20 0 -51 -34 -51 -56 0 -7 16 -22 36 -34 l35 -22
15 21 c8 11 20 21 26 21 6 0 16 7 22 16 12 16 100 39 91 24 -7 -11 16 -28 44
-32 35 -5 48 -31 31 -62 -15 -29 -30 -34 -30 -11 0 8 -5 15 -10 15 -7 0 -7 -6
-1 -19 12 -21 -7 -44 -46 -55 -30 -9 -54 5 -27 15 17 7 17 8 -3 8 -13 1 -23
-4 -23 -9 0 -6 -8 -5 -20 2 -26 17 -25 24 5 52 14 13 25 25 25 27 0 8 -59 4
-67 -4 -4 -5 -3 -8 2 -7 24 5 25 -2 7 -27 -10 -16 -17 -34 -15 -40 3 -7 -1
-13 -7 -13 -6 0 -10 8 -8 18 4 18 -27 52 -47 52 -7 0 -20 -10 -31 -21 -19 -21
-19 -22 3 -15 16 5 23 2 27 -12 11 -33 -10 -69 -48 -83 -33 -12 -34 -14 -20
-30 13 -14 13 -17 0 -22 -9 -4 -16 2 -20 16 -5 17 -8 19 -15 8 -5 -8 -14 -10
-21 -6 -7 4 -16 2 -21 -6 -11 -18 10 -30 33 -18 14 7 20 6 24 -6 11 -27 25
-17 98 69 41 48 74 58 117 36 27 -15 24 -33 -5 -26 -17 4 -26 1 -30 -11 -10
-25 1 -28 38 -8 29 16 37 17 50 6 18 -15 20 -48 6 -86 l-10 -26 -33 32 c-24
25 -33 29 -35 17 -2 -9 -17 -19 -35 -23 -28 -7 -29 -8 -9 -12 13 -3 29 0 36 6
10 9 19 7 36 -7 19 -16 21 -22 11 -40 -6 -12 -16 -22 -21 -22 -6 0 -10 -10
-11 -22 0 -22 -1 -22 -8 -3 -5 12 -24 23 -52 30 -54 13 -61 36 -22 73 27 25
34 62 12 62 -6 0 -7 5 -3 12 4 7 3 8 -4 4 -7 -4 -12 -14 -12 -22 0 -8 5 -12
10 -9 18 11 10 -11 -10 -30 -11 -10 -20 -24 -20 -32 0 -16 -22 -17 -38 -1 -8
8 -12 9 -12 1 0 -6 7 -18 15 -27 8 -8 15 -18 15 -21 0 -4 -7 -5 -15 -1 -13 5
-19 -5 -17 -26 1 -3 -5 -9 -13 -12 -10 -3 -15 1 -16 12 0 10 -3 12 -6 5 -2 -7
-11 -13 -19 -13 -8 0 -11 -6 -8 -15 4 -8 11 -12 17 -8 7 4 8 -6 2 -33 -4 -21
-8 -49 -9 -62 0 -12 -9 -25 -18 -28 -10 -3 -18 -10 -18 -15 0 -13 28 -11 32 2
5 14 68 -44 68 -63 0 -8 -3 -9 -8 -3 -4 6 -23 15 -42 21 -31 10 -37 8 -55 -13
-11 -12 -28 -23 -37 -23 -19 0 -50 38 -42 52 3 4 -2 8 -10 8 -9 0 -16 -6 -16
-12 -1 -8 -6 -6 -14 5 -16 21 -27 22 -19 1 3 -8 17 -20 30 -25 16 -6 23 -15
19 -24 -3 -9 0 -15 8 -15 22 0 40 -28 28 -43 -7 -8 -7 -18 -2 -27 16 -25 11
-50 -8 -50 -24 0 -55 -64 -46 -94 6 -18 9 -16 18 18 6 21 20 45 31 52 19 12
27 10 74 -21 29 -19 57 -35 62 -35 5 0 14 -9 21 -20 13 -21 28 -27 28 -11 0 7
-25 26 -109 84 l-26 18 26 -4 c15 -1 34 -9 43 -16 20 -16 82 -17 101 -1 21 17
19 47 -5 73 -12 12 -29 36 -40 54 l-19 32 32 -6 c18 -3 38 -10 45 -16 8 -6 17
-5 27 3 8 6 19 9 24 6 6 -4 15 3 21 14 10 18 9 19 -17 9 -25 -10 -91 -14 -99
-7 -1 2 -5 15 -9 31 -6 23 -4 27 14 27 12 0 21 4 21 10 0 5 -13 7 -28 4 -39
-8 -61 26 -57 89 2 37 9 51 33 72 24 20 36 24 63 19 47 -9 55 -18 68 -69 6
-25 15 -45 20 -45 23 0 41 14 41 32 0 10 -4 17 -9 14 -8 -5 -6 18 5 72 4 19 8
21 18 12 8 -6 17 -23 21 -37 3 -15 13 -32 22 -38 12 -9 13 -16 4 -33 -9 -18
-8 -24 11 -42 26 -24 41 -9 27 27 -11 29 0 53 37 82 34 27 64 27 92 1 l22 -21
0 21 c0 12 -7 20 -16 20 -12 0 -14 4 -7 13 11 13 25 103 16 93 -4 -3 -9 -23
-12 -43 -4 -24 -12 -38 -21 -38 -12 0 -14 12 -13 55 2 40 0 49 -6 35 -5 -11
-10 -30 -10 -42 -1 -24 -21 -33 -21 -9 0 7 -7 20 -16 27 -13 11 -12 4 5 -29
20 -40 21 -43 4 -49 -10 -3 -25 -12 -33 -18 -8 -7 -27 -15 -42 -19 -23 -5 -28
-3 -28 13 0 11 -5 21 -11 23 -14 5 -2 88 12 88 5 0 6 21 2 47 -6 43 -5 46 13
38 34 -14 71 -17 78 -6 10 16 26 13 26 -4 0 -9 9 -15 23 -15 17 0 19 -2 7 -9
-10 -7 -3 -9 22 -7 36 3 37 2 40 -33 l4 -36 11 26 c21 48 72 70 118 53 24 -10
45 -56 34 -77 -6 -9 -7 -22 -4 -28 5 -6 -15 -8 -59 -5 -53 4 -64 2 -59 -10 3
-8 9 -12 13 -9 5 3 11 1 15 -5 9 -14 -18 -13 -33 2 -7 7 -12 20 -12 30 0 10
-4 18 -9 18 -6 0 -6 -12 0 -32 6 -23 5 -34 -3 -39 -7 -5 -9 -11 -5 -15 4 -4
13 1 21 11 9 12 15 15 20 7 9 -14 46 -16 46 -3 0 12 39 26 63 22 14 -2 18 3
15 16 -2 10 3 23 11 29 13 10 13 16 -1 45 -12 24 -14 38 -6 52 5 10 7 21 4 24
-3 3 -8 -2 -12 -11 -6 -15 -8 -15 -23 3 -12 13 -22 17 -31 11 -9 -5 -19 -5
-26 1 -9 7 -21 6 -41 -5 -15 -8 -22 -15 -15 -16 18 0 4 -20 -14 -20 -9 0 -12
5 -8 12 4 6 3 8 -3 5 -12 -8 -83 13 -83 25 0 4 -7 8 -15 8 -24 0 -29 27 -8 52
12 15 26 22 43 20 21 -3 22 -2 11 12 -7 9 -18 13 -24 9 -6 -3 -7 -1 -3 5 4 7
1 12 -8 12 -8 0 -18 -5 -22 -12 -4 -7 -3 -8 4 -4 21 13 12 -8 -13 -32 -14 -13
-24 -33 -22 -45 2 -18 -3 -22 -23 -20 -14 1 -37 3 -52 4 -34 2 -30 10 27 46
25 15 45 33 45 39 0 19 34 41 72 48 52 9 65 36 41 83 -19 39 -25 43 -60 36z
m-219 -38 c-4 -9 -20 -15 -38 -16 -28 -1 -29 -2 -7 -8 l25 -7 -28 -22 c-33
-26 -35 -26 -61 -7 -17 14 -17 17 -4 30 8 8 35 21 59 29 59 18 60 18 54 1z m8
-480 c3 -14 2 -25 -2 -25 -4 0 -10 11 -12 25 -3 14 -2 25 2 25 4 0 10 -11 12
-25z m-189 -190 c15 -13 27 -28 27 -34 0 -5 12 -23 26 -40 35 -43 30 -75 -14
-79 -33 -3 -34 -3 -27 30 7 28 5 31 -7 21 -21 -18 -58 -22 -90 -11 -24 9 -28
16 -28 48 0 26 8 45 25 64 30 32 52 33 88 1z"/>
<path d="M1815 1620 c-7 -22 1 -40 17 -40 7 0 7 5 -1 14 -6 7 -9 21 -5 30 3 9
4 16 1 16 -3 0 -8 -9 -12 -20z"/>
<path d="M1906 1551 c-4 -7 -5 -15 -2 -18 9 -9 19 4 14 18 -4 11 -6 11 -12 0z"/>
<path d="M2400 2300 c-21 -21 -27 -50 -10 -50 6 0 10 4 10 9 0 5 10 13 21 16
17 6 19 9 8 16 -10 6 -3 9 21 8 27 0 30 -2 16 -8 -26 -10 -6 -22 23 -14 14 4
20 11 17 20 -3 8 -6 17 -6 19 0 2 -18 4 -40 4 -27 0 -47 -7 -60 -20z"/>
<path d="M2550 2289 c-11 -8 -12 -12 -3 -15 31 -13 78 -52 75 -63 -2 -8 5 -7
20 3 12 9 29 16 38 15 10 0 9 -3 -5 -8 -19 -7 -18 -9 5 -22 14 -7 32 -14 40
-14 27 -2 60 -16 60 -27 0 -15 50 -52 72 -53 25 -2 49 -25 26 -25 -9 0 -18 6
-21 13 -2 6 -8 9 -12 5 -12 -11 14 -38 31 -31 8 3 14 -1 14 -11 0 -9 7 -16 15
-16 8 0 15 -4 15 -10 0 -13 -6 -13 -31 0 -17 10 -19 7 -18 -27 1 -37 1 -37 12
-13 18 38 50 33 58 -10 3 -19 8 -42 10 -50 3 -10 -4 -15 -21 -15 -17 0 -24 5
-23 15 2 9 -19 25 -55 42 -53 25 -59 26 -86 12 -37 -18 -88 -4 -104 29 -8 17
-11 18 -11 5 -1 -18 24 -48 40 -48 5 0 9 -7 9 -16 0 -14 3 -14 15 -4 8 7 15 8
15 2 0 -5 -6 -15 -14 -21 -11 -9 -19 -7 -38 11 -22 23 -24 23 -58 7 -30 -14
-36 -15 -43 -3 -12 20 -36 17 -31 -3 5 -23 -19 -69 -34 -66 -12 3 -6 -23 10
-44 12 -16 -27 -36 -58 -30 -13 2 -24 0 -24 -4 0 -5 -7 -5 -17 -2 -10 4 -14 2
-10 -4 4 -6 -2 -18 -13 -28 -11 -10 -20 -28 -20 -41 0 -13 -4 -25 -9 -28 -5
-3 -11 -16 -14 -28 -6 -22 -5 -22 16 3 13 14 29 23 36 21 10 -3 10 0 0 16 -24
38 33 91 87 80 9 -1 26 -15 37 -30 17 -23 19 -31 9 -53 -12 -25 -4 -33 14 -15
6 6 16 -1 29 -20 23 -34 41 -41 24 -9 -6 12 -9 34 -7 50 5 30 -8 40 -18 14 -9
-22 -24 -18 -24 5 0 12 -9 30 -20 42 -11 12 -18 24 -15 27 3 2 11 -4 18 -14
10 -13 23 -16 46 -13 25 4 31 2 26 -10 -4 -11 1 -13 22 -9 30 6 73 -8 85 -26
27 -43 -20 -125 -65 -113 -17 4 -28 -1 -41 -19 -14 -18 -29 -25 -55 -26 -20 0
-31 -3 -24 -5 7 -3 9 -12 6 -20 -3 -8 0 -14 6 -14 6 0 11 7 11 15 0 8 8 15 19
15 10 0 31 10 46 22 18 14 30 18 32 11 3 -8 12 -8 31 -1 20 8 33 25 50 68 12
31 22 62 22 69 0 6 4 11 10 11 5 0 15 10 21 23 11 21 11 21 -7 5 -27 -23 -45
-24 -80 -5 -17 9 -34 13 -38 10 -3 -4 -6 -1 -6 6 0 7 -6 11 -14 8 -7 -3 -19 0
-25 6 -6 6 -25 11 -43 12 -21 0 -32 5 -30 13 1 7 -2 21 -7 30 -15 27 17 61 64
69 22 3 43 11 47 17 5 7 13 5 25 -6 10 -10 12 -18 6 -18 -8 0 -8 -8 2 -27 12
-22 12 -31 0 -60 -8 -18 -10 -33 -5 -33 5 0 11 9 15 19 3 11 12 22 20 25 8 3
15 12 15 20 0 8 3 16 8 18 4 2 20 20 35 41 32 43 56 46 100 15 62 -45 74 -48
111 -33 63 27 60 75 -9 117 -27 16 -50 39 -58 60 -10 23 -28 41 -59 57 -25 12
-55 36 -67 52 -12 17 -31 29 -44 29 -12 0 -31 7 -41 15 -11 8 -34 15 -52 15
-23 0 -34 5 -39 19 -6 20 -35 37 -35 21 0 -6 -4 -10 -10 -10 -5 0 -7 7 -4 15
7 18 4 18 -16 4z m436 -316 c18 -24 17 -44 -1 -37 -8 4 -12 10 -9 15 3 5 0 9
-6 9 -6 0 -9 4 -6 9 4 5 0 12 -6 14 -10 4 -9 6 1 6 8 1 20 -7 27 -16z m-214
-22 c-6 -4 -18 -23 -27 -44 -8 -20 -19 -37 -25 -37 -20 0 -20 22 2 53 28 41
52 59 57 45 2 -6 -1 -13 -7 -17z"/>
<path d="M1790 2261 c0 -5 -17 -9 -37 -9 -28 0 -43 -7 -61 -27 -13 -15 -20
-31 -15 -35 14 -14 46 -15 50 -2 3 6 -2 12 -11 12 -9 0 -16 5 -16 11 0 6 6 9
14 6 8 -3 17 0 19 7 3 7 22 13 42 14 26 1 36 -2 32 -11 -3 -7 2 -22 10 -32 15
-19 15 -18 9 10 -5 27 -4 28 6 8 19 -39 -29 -89 -58 -60 -4 4 -2 7 5 7 7 0 9
5 6 10 -3 6 1 10 10 10 9 0 13 5 10 11 -4 6 -13 8 -21 5 -7 -3 -16 -1 -19 4
-8 13 -25 13 -25 -1 0 -5 15 -32 32 -60 l33 -49 18 35 c10 21 25 35 36 35 17
0 18 6 14 43 -3 23 -10 48 -16 55 -11 14 -67 17 -67 3z"/>
<path d="M2088 2256 c-10 -7 -15 -16 -12 -19 9 -8 54 15 48 24 -7 12 -16 11
-36 -5z"/>
<path d="M2443 2258 c2 -7 -5 -19 -17 -26 -20 -13 -20 -13 -1 -8 20 6 20 6 1
-9 -19 -14 -56 -22 -43 -8 9 9 -12 33 -29 33 -8 0 -14 -5 -14 -11 0 -5 5 -7
10 -4 6 3 10 -1 10 -9 0 -19 -21 -21 -38 -4 -6 6 -15 8 -19 4 -13 -13 20 -25
70 -24 47 0 109 29 128 60 5 7 12 7 25 -1 11 -6 13 -11 7 -11 -7 0 -13 -4 -13
-9 0 -5 12 -8 28 -8 15 0 38 -3 52 -8 22 -7 23 -6 11 9 -7 9 -21 16 -31 16
-10 0 -23 7 -30 15 -16 19 -44 19 -64 -1 -9 -8 -16 -11 -16 -6 0 6 -7 13 -16
16 -10 4 -14 1 -11 -6z"/>
<path d="M2108 2223 c6 -2 18 -2 25 0 6 3 1 5 -13 5 -14 0 -19 -2 -12 -5z"/>
<path d="M2083 2200 c-30 -12 -29 -16 5 -14 59 3 59 3 42 14 -18 11 -18 11
-47 0z"/>
<path d="M2456 2202 c-3 -6 10 -12 29 -14 22 -2 34 0 32 6 -5 14 -53 20 -61 8z"/>
<path d="M2585 2200 c3 -5 11 -10 16 -10 6 0 7 5 4 10 -3 6 -11 10 -16 10 -6
0 -7 -4 -4 -10z"/>
<path d="M2532 2175 c0 -16 2 -22 5 -12 2 9 2 23 0 30 -3 6 -5 -1 -5 -18z"/>
<path d="M2586 2155 c-21 -22 -43 -35 -62 -36 -44 -3 -54 0 -54 14 0 6 -11 17
-25 24 -37 17 -30 2 17 -34 31 -23 47 -29 59 -23 19 11 62 -15 56 -33 -2 -7 3
-17 11 -23 9 -7 12 -18 7 -33 -5 -18 -9 -20 -21 -10 -8 7 -14 7 -14 1 0 -10
29 -38 33 -31 38 67 38 66 15 81 -19 13 -20 16 -7 44 9 19 23 30 39 32 15 2
30 13 36 27 10 20 9 24 -10 29 -37 10 -47 7 -80 -29z m74 4 c0 -5 -7 -9 -16
-9 -9 0 -29 -14 -44 -30 -18 -20 -31 -26 -35 -19 -4 6 2 17 14 25 12 8 21 21
21 29 0 14 27 24 48 17 6 -2 12 -8 12 -13z"/>
<path d="M1651 2149 c-23 -25 -20 -39 4 -19 8 7 22 10 30 6 19 -7 20 8 1 23
-11 10 -19 7 -35 -10z"/>
<path d="M2354 2153 c1 -19 27 -55 34 -48 3 3 0 11 -7 19 -6 8 -10 19 -9 26 2
7 -2 14 -8 17 -7 2 -11 -4 -10 -14z"/>
<path d="M2723 2152 c10 -10 17 -26 17 -35 0 -17 11 -22 23 -11 7 8 -33 64
-46 64 -6 0 -3 -8 6 -18z"/>
<path d="M1560 2151 c-8 -6 -18 -7 -22 -5 -11 7 -47 -37 -48 -58 0 -9 23 -35
50 -58 28 -23 50 -47 50 -54 0 -7 13 -24 28 -39 25 -24 36 -27 87 -26 73 2
104 19 97 54 -2 14 -9 28 -14 31 -6 4 -7 -2 -3 -15 17 -54 -59 -71 -94 -22
-25 34 -27 51 -6 51 8 0 15 7 15 16 0 14 -2 15 -17 3 -10 -8 -23 -21 -30 -29
-14 -17 -17 -34 -5 -27 4 3 15 -6 25 -19 18 -24 13 -29 -18 -18 -22 9 -46 59
-38 81 7 20 25 38 71 71 26 18 32 20 33 7 1 -8 3 -19 4 -25 1 -5 3 -15 4 -21
0 -5 5 -8 10 -4 5 3 12 1 16 -5 3 -5 11 -10 18 -10 6 0 3 6 -7 13 -9 7 -21 34
-25 62 -5 28 -9 43 -10 34 0 -9 -14 -22 -31 -29 -16 -7 -30 -16 -30 -21 0 -5
-11 -9 -24 -9 -19 0 -26 -7 -31 -30 -4 -16 -10 -30 -13 -30 -9 1 -52 37 -52
43 0 12 34 16 42 5 5 -8 8 -2 8 18 0 17 7 38 16 45 14 12 14 14 -3 20 -25 10
-36 10 -53 0z m-24 -26 c-5 -13 -2 -14 15 -5 34 19 43 6 17 -23 -28 -30 -48
-35 -48 -11 0 9 -5 12 -12 8 -7 -5 -8 -2 -3 7 21 37 42 53 31 24z"/>
<path d="M2298 2151 c-17 -6 -17 -7 0 -17 13 -8 20 -8 29 1 15 16 -3 26 -29
16z"/>
<path d="M1895 2140 c-3 -6 1 -7 9 -4 18 7 21 14 7 14 -6 0 -13 -4 -16 -10z"/>
<path d="M2680 2123 c1 -18 29 -43 47 -43 10 0 23 -4 29 -10 5 -5 15 -5 23 -1
9 6 2 11 -23 15 -20 4 -36 10 -36 14 0 4 -9 13 -20 20 -11 7 -20 9 -20 5z"/>
<path d="M2645 2110 c-3 -5 -1 -10 4 -10 6 0 11 5 11 10 0 6 -2 10 -4 10 -3 0
-8 -4 -11 -10z"/>
<path d="M1777 2085 c-4 -8 -2 -17 3 -20 6 -4 10 3 10 14 0 25 -6 27 -13 6z"/>
<path d="M2653 2073 c-7 -3 -13 -11 -13 -20 0 -12 2 -12 16 2 18 17 16 25 -3
18z"/>
<path d="M2701 2061 c-11 -7 -6 -13 20 -25 19 -10 27 -11 18 -4 -9 7 -14 19
-12 26 5 14 -6 15 -26 3z"/>
<path d="M2810 2040 c0 -19 3 -21 12 -12 9 9 9 15 0 24 -9 9 -12 7 -12 -12z"/>
<path d="M1460 2035 c-9 -11 -9 -15 -1 -15 6 0 11 -4 11 -9 0 -6 -12 -6 -28
-2 -36 11 -74 -3 -66 -24 7 -17 27 -19 55 -5 10 6 19 8 19 4 0 -10 -40 -43
-61 -49 -11 -4 -19 -12 -19 -18 0 -7 -4 -6 -10 3 -14 22 -12 30 5 24 15 -6 21
11 7 20 -14 9 -34 -11 -30 -30 3 -19 70 -62 99 -63 9 -1 24 -10 33 -20 16 -18
16 -20 -9 -45 -14 -14 -31 -26 -38 -26 -9 0 -9 -2 0 -8 15 -10 4 -28 -22 -34
-21 -5 -17 -8 30 -23 12 -4 13 -9 1 -43 -11 -29 -11 -43 -3 -51 8 -8 8 -11 0
-11 -6 0 -10 -8 -9 -17 1 -14 -7 -18 -39 -19 -22 0 -51 4 -65 9 -14 6 -29 11
-35 11 -33 3 16 96 51 96 12 0 12 2 2 14 -7 8 -15 10 -18 6 -3 -4 -26 -6 -52
-6 -26 1 -48 -3 -48 -9 -1 -5 -8 -14 -16 -18 -36 -21 1 -87 49 -87 10 0 30 -9
44 -20 14 -11 40 -20 57 -20 31 0 76 -23 76 -39 0 -13 -39 -21 -46 -10 -11 18
-65 40 -84 34 -32 -10 -24 -35 9 -35 17 0 33 -5 36 -11 4 -6 13 -8 21 -5 19 7
18 -50 -1 -84 -15 -27 -23 -29 -36 -8 -5 8 -2 15 9 19 16 6 16 7 0 14 -11 4
-24 1 -33 -9 -19 -19 -21 -19 -46 -5 -33 17 -40 50 -18 88 19 32 19 34 2 47
-68 52 -155 0 -115 -68 20 -35 28 -35 36 -3 6 25 50 54 62 42 9 -9 -16 -38
-27 -31 -5 3 -9 -4 -9 -15 0 -12 3 -21 8 -21 4 0 12 -11 18 -24 10 -21 9 -25
-7 -29 -34 -9 -22 -28 14 -22 59 11 87 12 87 4 0 -5 9 -9 20 -9 11 0 20 -7 20
-15 0 -8 -9 -15 -19 -15 -10 0 -22 -7 -25 -16 -4 -9 -13 -14 -22 -10 -8 3 -13
2 -10 -3 3 -4 -2 -17 -10 -27 -9 -10 -13 -13 -9 -7 4 9 1 11 -10 7 -9 -4 -14
-13 -11 -21 3 -8 2 -22 -3 -32 -5 -9 -6 -23 -1 -30 5 -10 10 -5 14 17 4 16 16
38 27 48 18 16 19 16 19 0 0 -10 -5 -27 -11 -39 -9 -16 -9 -22 0 -25 9 -3 9
-7 0 -18 -14 -17 -41 -18 -57 -2 -16 16 -21 7 -11 -19 12 -32 43 -29 73 8 29
34 30 40 17 87 -8 27 -7 34 12 47 31 22 56 18 67 -9 5 -13 15 -26 22 -28 21
-7 -10 -38 -37 -38 -12 0 -28 -7 -35 -15 -19 -23 8 -19 50 7 19 12 46 21 59
19 13 -2 21 1 17 7 -4 6 3 8 16 4 17 -4 20 -2 15 12 -4 10 -7 20 -7 22 0 2 -8
4 -19 4 -26 0 -72 25 -63 35 4 5 0 6 -10 2 -27 -9 -29 4 -6 42 35 57 82 79
118 54 17 -12 19 -17 9 -30 -11 -13 -14 -13 -26 3 -10 14 -13 15 -13 3 0 -8 4
-19 9 -25 5 -5 11 -23 13 -40 4 -35 20 -54 65 -78 32 -16 62 -22 50 -9 -9 8
24 32 45 33 9 0 18 -6 21 -12 2 -7 8 -10 12 -6 4 4 0 14 -8 23 -16 16 -61 12
-73 -6 -9 -15 -50 -10 -67 9 -42 46 -1 147 55 137 37 -7 66 -57 59 -98 -1 -5
4 -7 11 -4 7 2 12 10 10 16 -3 14 13 14 40 0 30 -16 85 -17 85 -1 0 7 -10 12
-21 11 -44 -3 -57 2 -68 26 -6 14 -19 25 -29 25 -51 0 -64 28 -24 54 39 26 48
51 29 81 -9 13 -25 27 -36 31 -31 10 -32 -3 -1 -18 37 -17 40 -42 10 -72 -22
-22 -28 -24 -50 -13 -17 8 -22 15 -16 23 7 9 -5 11 -43 8 -71 -6 -92 1 -106
31 -14 31 -5 53 35 85 l28 21 -27 -4 c-31 -5 -32 -4 -18 24 11 20 60 27 60 8
0 -6 9 -9 20 -6 10 3 25 -2 32 -10 15 -19 88 -49 108 -44 8 1 22 9 30 17 13
14 12 15 -15 8 -40 -9 -35 -9 -77 10 -35 15 -51 36 -28 36 6 0 10 5 10 11 0 6
-9 8 -21 4 -11 -4 -42 -4 -70 0 -49 7 -49 7 -49 45 0 46 32 90 65 90 13 0 27
5 30 10 3 6 2 10 -4 10 -34 0 -115 53 -119 77 -4 25 41 63 74 63 23 0 23 -1 7
-18 -10 -11 -22 -17 -27 -14 -5 3 -6 0 -2 -6 10 -16 33 -15 39 1 3 8 9 6 20
-8 8 -11 13 -24 9 -30 -3 -5 2 -4 11 4 15 12 17 12 11 -3 -5 -12 -2 -15 10
-10 9 3 16 1 16 -5 0 -6 -7 -11 -15 -11 -8 0 -15 -7 -15 -16 0 -8 5 -12 11 -8
7 4 9 -2 7 -17 -2 -16 -9 -23 -20 -21 -30 5 -20 -22 13 -37 16 -7 28 -16 25
-19 -3 -2 -12 1 -21 8 -23 19 -18 4 9 -24 13 -15 29 -26 37 -26 8 0 6 5 -6 14
-18 13 -18 14 1 20 11 3 35 2 54 -4 18 -5 36 -8 38 -5 3 3 20 -5 39 -16 28
-18 33 -18 33 -5 0 9 -5 16 -10 16 -6 0 -22 11 -35 25 -29 28 -32 70 -9 96 14
16 14 18 -5 28 -22 12 -34 1 -25 -23 3 -9 2 -16 -4 -16 -5 0 -6 -16 -2 -40 7
-40 7 -40 -25 -40 -57 0 -100 77 -61 109 12 10 7 20 -31 59 -25 26 -52 57 -61
70 -22 34 -47 45 -62 27z m-174 -353 c1 -7 0 -8 -3 -2 -8 17 -21 11 -29 -12
-4 -13 -6 -25 -5 -27 6 -10 -25 -19 -36 -10 -9 8 -6 17 15 40 26 30 53 35 58
11z m-116 -164 c-11 -12 -23 -19 -26 -15 -8 8 18 36 34 37 8 0 5 -8 -8 -22z
m265 -50 c-4 -13 -18 -34 -32 -48 l-24 -25 10 28 c6 15 8 27 5 27 -4 0 -1 6 5
13 6 8 8 17 4 20 -3 4 4 7 16 7 18 0 21 -4 16 -22z m148 0 c34 -16 35 -32 2
-24 -14 4 -25 2 -25 -4 0 -5 -7 -10 -16 -10 -12 0 -15 6 -11 20 4 17 2 20 -14
15 -11 -4 -19 -2 -19 4 0 15 50 14 83 -1z m-113 -8 c0 -5 -2 -10 -4 -10 -3 0
-8 5 -11 10 -3 6 -1 10 4 10 6 0 11 -4 11 -10z m-31 -204 c-3 -3 -11 5 -18 17
-13 21 -12 21 5 5 10 -10 16 -20 13 -22z"/>
<path d="M2075 2040 c3 -5 11 -10 16 -10 6 0 7 5 4 10 -3 6 -11 10 -16 10 -6
0 -7 -4 -4 -10z"/>
<path d="M1933 2025 c-3 -9 -3 -18 -1 -21 3 -3 8 4 11 16 6 23 -1 27 -10 5z"/>
<path d="M2165 2030 c3 -5 19 -10 35 -10 16 0 32 5 35 10 4 6 -10 10 -35 10
-25 0 -39 -4 -35 -10z"/>
<path d="M2558 2033 c7 -3 16 -2 19 1 4 3 -2 6 -13 5 -11 0 -14 -3 -6 -6z"/>
<path d="M1810 1980 c0 -5 7 -7 15 -4 8 4 15 8 15 10 0 2 -7 4 -15 4 -8 0 -15
-4 -15 -10z"/>
<path d="M1850 1967 c-14 -6 -26 -12 -28 -13 -1 0 0 -9 4 -18 5 -14 10 -13 31
10 28 31 27 35 -7 21z"/>
<path d="M3024 1885 c-22 -20 -38 -42 -36 -52 6 -28 -8 -63 -24 -63 -9 0 -28
10 -43 23 -25 21 -25 24 -13 50 10 21 11 32 3 40 -8 8 -11 5 -11 -10 0 -33
-28 -56 -62 -49 -18 4 -27 2 -23 -4 4 -6 -4 -15 -17 -20 -21 -10 -22 -10 -1
-6 18 3 21 -1 19 -20 -2 -13 -10 -32 -19 -42 -10 -10 -14 -22 -10 -25 11 -12
23 -8 23 8 0 8 5 15 10 15 6 0 10 7 10 16 0 43 61 58 98 24 12 -11 34 -20 50
-20 38 0 60 -19 68 -56 4 -24 0 -37 -21 -62 -25 -30 -65 -44 -65 -23 0 17 -38
-1 -43 -20 -6 -24 9 -25 22 -2 5 10 13 14 17 10 4 -4 -6 -20 -24 -35 -31 -27
-54 -82 -34 -82 6 0 12 12 14 26 2 15 12 32 23 38 11 6 40 26 63 45 50 38 104
48 140 25 17 -11 22 -24 22 -54 0 -48 -27 -80 -67 -81 -16 0 -22 -3 -15 -6 18
-7 15 -21 -5 -26 -10 -2 -8 -3 5 -2 12 1 22 -3 22 -9 0 -6 6 -2 12 9 16 29 16
29 32 16 12 -10 16 -8 22 11 4 13 6 24 5 26 -1 1 4 9 11 16 11 12 16 12 35 0
15 -9 24 -10 28 -3 9 14 -3 61 -22 82 -14 14 -14 21 -4 40 15 28 3 85 -29 132
-11 17 -20 37 -20 46 0 9 -11 25 -25 35 -14 10 -25 27 -25 36 0 16 -27 38 -48
38 -4 0 -26 -16 -48 -35z m73 -17 c5 -7 14 -25 21 -41 l12 -27 -40 26 c-40 27
-46 35 -33 47 10 11 30 8 40 -5z m-4 -63 c42 -38 47 -65 17 -95 -22 -22 -52
-27 -45 -7 5 14 -20 47 -50 66 -15 10 -16 11 -2 7 9 -3 17 -1 17 3 0 5 3 17 7
27 5 13 3 16 -10 11 -9 -3 -17 -2 -17 2 0 9 17 19 35 20 6 1 27 -15 48 -34z
m80 -59 c4 4 7 0 7 -9 0 -10 -8 -17 -19 -17 -15 0 -19 7 -19 31 1 29 2 30 13
10 6 -12 14 -18 18 -15z m27 -75 c12 -24 13 -41 0 -21 -14 22 -20 8 -13 -33 3
-21 10 -34 16 -30 5 3 8 0 5 -7 -5 -15 -30 -27 -27 -13 3 11 -23 63 -31 63
-10 0 -30 47 -23 54 14 14 63 5 73 -13z m-80 -17 c0 -8 -4 -14 -10 -14 -5 0
-10 5 -10 12 0 9 -3 9 -12 0 -14 -14 -28 -16 -28 -4 0 11 42 31 53 25 4 -2 7
-11 7 -19z m104 -115 c-3 -5 -10 -7 -15 -3 -5 3 -7 10 -3 15 3 5 10 7 15 3 5
-3 7 -10 3 -15z"/>
<path d="M3050 1816 c0 -2 8 -10 18 -17 15 -13 16 -12 3 4 -13 16 -21 21 -21
13z"/>
<path d="M1350 1871 c0 -11 6 -22 13 -24 9 -4 9 -7 -1 -15 -7 -5 -14 -25 -15
-45 -2 -39 -11 -48 -21 -22 -3 8 -10 15 -16 15 -6 0 -8 -6 -5 -12 4 -7 -1 -4
-9 6 -9 11 -16 26 -16 33 0 25 -39 13 -55 -17 -20 -39 -20 -74 1 -66 9 3 28 6
42 7 15 0 21 3 15 6 -7 2 -13 11 -13 18 0 10 5 11 25 2 14 -7 25 -15 25 -19 0
-5 5 -8 11 -8 14 0 39 26 32 34 -9 9 27 96 40 96 16 1 -23 30 -40 30 -7 0 -13
-9 -13 -19z m30 -1 c0 -5 -2 -10 -4 -10 -3 0 -8 5 -11 10 -3 6 -1 10 4 10 6 0
11 -4 11 -10z m-117 -82 c6 -21 -4 -48 -19 -48 -16 0 -16 5 -8 38 7 24 20 29
27 10z"/>
<path d="M1317 1874 c-3 -3 -3 -12 0 -20 3 -8 -1 -14 -11 -14 -21 0 -20 -12 2
-26 15 -10 20 -7 29 12 7 14 7 26 2 30 -5 3 -7 10 -4 15 7 10 -8 13 -18 3z"/>
<path d="M2950 1856 c0 -9 5 -16 10 -16 6 0 10 4 10 9 0 6 -4 13 -10 16 -5 3
-10 -1 -10 -9z"/>
<path d="M1810 1850 c0 -5 5 -10 11 -10 5 0 7 5 4 10 -3 6 -8 10 -11 10 -2 0
-4 -4 -4 -10z"/>
<path d="M1950 1848 c0 -6 3 -8 6 -5 4 3 15 2 25 -4 14 -7 19 -21 19 -54 0
-40 -4 -47 -37 -70 l-38 -26 30 3 c19 2 34 11 41 25 6 13 13 21 15 19 2 -2 3
19 2 47 -2 36 -8 56 -20 64 -21 16 -43 17 -43 1z"/>
<path d="M2340 1823 c0 -33 23 -47 33 -20 4 9 8 8 16 -3 7 -10 11 -11 11 -2 0
6 6 12 14 12 8 0 17 4 21 10 3 5 -10 8 -32 6 -26 -3 -41 1 -50 13 -11 14 -12
12 -13 -16z"/>
<path d="M1415 1830 c-3 -5 1 -10 9 -10 9 0 16 5 16 10 0 6 -4 10 -9 10 -6 0
-13 -4 -16 -10z"/>
<path d="M1490 1765 c-7 -9 -8 -15 -2 -15 5 0 12 7 16 15 3 8 4 15 2 15 -2 0
-9 -7 -16 -15z"/>
<path d="M2210 1757 c0 -7 7 -22 16 -33 8 -10 12 -13 9 -6 -4 8 -2 12 6 11 24
-5 67 10 73 26 5 13 1 13 -31 0 -33 -14 -38 -14 -45 0 -11 18 -28 20 -28 2z"/>
<path d="M2290 1710 c-10 -18 -19 -21 -50 -18 -30 3 -36 1 -28 -9 18 -23 66
-16 84 12 9 14 14 28 11 31 -3 3 -11 -4 -17 -16z"/>
<path d="M2020 1715 c0 -5 5 -17 10 -25 5 -8 10 -10 10 -5 0 6 -5 17 -10 25
-5 8 -10 11 -10 5z"/>
<path d="M2830 1715 c0 -5 5 -17 10 -25 5 -8 10 -10 10 -5 0 6 -5 17 -10 25
-5 8 -10 11 -10 5z"/>
<path d="M2952 1688 c-7 -29 -14 -34 -54 -43 -25 -5 -51 -15 -59 -21 -27 -22
-79 -44 -79 -34 0 5 -7 10 -15 10 -8 0 -15 -4 -15 -10 0 -5 -4 -10 -10 -10 -5
0 -20 -11 -34 -25 -14 -14 -22 -25 -19 -25 3 0 0 -7 -7 -15 -7 -9 -11 -18 -8
-21 3 -2 21 13 39 36 18 22 40 40 49 40 26 0 59 -37 66 -76 6 -32 3 -39 -22
-60 -31 -25 -50 -31 -39 -13 4 6 1 10 -6 8 -25 -3 -35 1 -56 20 -21 20 -21 20
-26 -5 -4 -21 -1 -24 17 -19 11 2 15 2 9 -1 -26 -12 -13 -26 18 -19 24 5 36 2
53 -14 22 -20 52 -26 119 -23 15 1 27 6 27 12 0 11 -28 9 -47 -3 -8 -5 -13 -3
-13 7 0 8 5 18 10 21 6 3 10 11 10 17 0 6 -11 -1 -25 -16 -14 -15 -33 -26 -42
-24 -23 4 -25 36 -2 43 29 9 41 39 29 70 -13 33 -13 38 0 30 6 -3 7 1 4 9 -8
20 5 20 26 1 16 -14 18 -14 22 2 4 13 -1 19 -19 20 -45 4 -52 6 -50 16 3 13
49 38 106 57 34 11 47 22 57 47 17 39 17 43 4 43 -5 0 -13 -15 -18 -32z"/>
<path d="M2997 1690 c3 -11 7 -20 9 -20 2 0 4 9 4 20 0 11 -4 20 -9 20 -5 0
-7 -9 -4 -20z"/>
<path d="M1748 1688 c5 -5 19 -5 33 1 22 8 22 9 -9 9 -19 -1 -29 -5 -24 -10z"/>
<path d="M2660 1689 c0 -5 5 -7 10 -4 6 3 10 8 10 11 0 2 -4 4 -10 4 -5 0 -10
-5 -10 -11z"/>
<path d="M1360 1675 c-27 -14 -26 -19 2 -49 9 -10 15 -23 12 -28 -3 -4 2 -8
10 -8 10 0 13 6 10 15 -4 8 -11 15 -18 15 -6 0 -4 5 4 10 12 8 12 10 -5 11
-11 0 -14 3 -7 6 6 2 9 10 5 16 -4 6 0 8 10 4 10 -3 17 -2 17 3 0 16 -15 18
-40 5z"/>
<path d="M2390 1665 c0 -16 30 -35 55 -35 24 0 12 24 -13 28 -12 2 -22 8 -22
13 0 5 -4 9 -10 9 -5 0 -10 -7 -10 -15z"/>
<path d="M2518 1657 c-21 -12 -41 -30 -44 -39 -7 -23 -42 -23 -66 -1 -10 9
-29 18 -41 19 -25 2 -107 -35 -107 -48 0 -5 -4 -6 -10 -3 -12 7 -13 -5 -1 -23
6 -10 15 -6 38 17 17 16 42 33 57 37 35 8 76 -19 76 -51 0 -13 4 -26 9 -29 4
-3 8 4 7 17 -1 14 8 26 27 35 15 7 27 21 27 30 0 11 3 13 8 5 8 -13 24 -3 56
35 24 28 12 27 -36 -1z"/>
<path d="M2058 1635 c-42 -28 -56 -71 -38 -114 16 -39 50 -55 102 -48 52 7 88
45 88 95 0 48 -15 70 -58 82 -51 14 -52 13 -94 -15z m123 -16 c41 -41 1 -135
-52 -122 -12 3 -24 1 -28 -5 -9 -14 -51 -4 -51 13 0 7 -7 18 -15 25 -20 16 -9
58 22 88 32 30 95 30 124 1z"/>
<path d="M2081 1571 c-16 -12 -20 -21 -12 -25 6 -4 11 -4 11 1 0 4 12 9 26 9
30 2 38 9 29 23 -9 16 -27 13 -54 -8z"/>
<path d="M2775 1620 c-3 -5 -2 -10 4 -10 5 0 13 5 16 10 3 6 2 10 -4 10 -5 0
-13 -4 -16 -10z"/>
<path d="M1532 1612 c-15 -10 -7 -38 13 -46 11 -4 12 0 5 19 -12 32 -7 31 25
-2 28 -31 32 -53 10 -53 -23 0 -18 -16 5 -17 30 -3 27 48 -6 81 -29 28 -33 30
-52 18z"/>
<path d="M3045 1603 c-11 -8 -27 -18 -35 -23 -8 -5 -12 -12 -8 -15 4 -4 13 -3
20 1 7 5 19 9 27 11 20 3 31 17 23 30 -5 8 -12 7 -27 -4z"/>
<path d="M3115 1600 c3 -5 8 -10 11 -10 2 0 4 5 4 10 0 6 -5 10 -11 10 -5 0
-7 -4 -4 -10z"/>
<path d="M2340 1581 c0 -6 4 -12 8 -15 5 -3 9 1 9 9 0 8 -4 15 -9 15 -4 0 -8
-4 -8 -9z"/>
<path d="M1521 1534 c0 -11 3 -14 6 -6 3 7 2 16 -1 19 -3 4 -6 -2 -5 -13z"/>
<path d="M2250 1516 c0 -14 -7 -32 -16 -40 -10 -10 -11 -16 -4 -16 7 0 28 -14
47 -31 19 -16 38 -28 41 -25 3 4 -3 13 -14 21 -18 14 -18 14 10 15 16 0 44 9
62 21 39 23 45 17 12 -12 -20 -16 -20 -18 -5 -19 9 0 17 3 17 8 0 4 23 22 50
41 57 39 60 55 5 22 -45 -26 -48 -26 -41 2 l6 22 -11 -22 c-6 -12 -19 -23 -28
-26 -9 -3 -24 -8 -33 -12 -12 -5 -25 2 -43 21 l-27 29 8 -29 c5 -22 4 -28 -7
-24 -9 3 -14 19 -13 42 1 20 -3 36 -7 36 -5 0 -9 -11 -9 -24z"/>
<path d="M3000 1532 c0 -5 6 -15 14 -21 12 -10 14 -9 12 5 -3 19 -26 33 -26
16z"/>
<path d="M2525 1490 c10 -11 20 -18 23 -15 7 6 -18 35 -31 35 -5 0 -2 -9 8
-20z"/>
<path d="M2868 1487 c-3 -19 -2 -25 4 -19 6 6 8 18 6 28 -3 14 -5 12 -10 -9z"/>
<path d="M2606 1484 c-9 -24 -2 -26 12 -4 7 11 8 20 3 20 -5 0 -12 -7 -15 -16z"/>
<path d="M3212 1462 c4 -24 1 -45 -6 -52 -9 -10 -6 -10 12 -1 15 8 22 8 22 1
0 -15 -50 -32 -82 -27 -16 2 -28 0 -28 -5 0 -4 5 -8 11 -8 18 0 -8 -27 -31
-33 -30 -8 -33 9 -8 34 13 12 17 20 8 17 -48 -16 -59 -18 -65 -8 -3 5 -15 10
-27 10 -13 0 -18 5 -15 14 4 10 1 13 -9 9 -7 -3 -14 -10 -15 -17 0 -6 -4 -2
-9 9 -12 28 -12 35 1 35 5 0 7 -4 4 -10 -3 -5 -1 -10 5 -10 6 0 13 6 16 14 3
8 19 20 35 27 17 7 26 16 21 21 -5 5 -30 -4 -59 -20 -45 -24 -50 -30 -41 -46
8 -14 7 -25 -1 -38 -7 -11 -10 -32 -6 -47 6 -30 -9 -81 -28 -93 -34 -21 -71 0
-83 47 -5 19 -9 23 -15 14 -4 -7 -5 -18 -2 -24 3 -5 0 -4 -8 3 -17 16 -29 15
-29 -2 0 -8 10 -18 23 -22 52 -16 79 -77 56 -128 -14 -30 -39 -33 -92 -11 -34
14 -47 31 -47 63 0 15 2 15 10 2 7 -11 10 -7 10 17 0 17 6 33 13 36 6 3 3 5
-9 4 -15 -1 -20 -6 -16 -19 3 -11 -1 -18 -11 -18 -19 0 -31 -30 -17 -44 16
-16 12 -39 -5 -32 -8 3 -15 0 -15 -5 0 -7 9 -9 21 -6 24 6 80 -15 99 -37 14
-18 35 -22 24 -4 -5 7 -3 8 6 3 8 -5 18 -2 25 9 11 14 17 15 39 5 16 -8 26
-20 26 -33 1 -19 2 -19 11 -3 10 18 45 24 51 8 2 -4 14 -11 28 -15 14 -3 20
-4 14 -1 -6 4 -8 24 -4 56 4 27 3 52 -2 55 -11 7 -22 -22 -13 -36 3 -5 1 -10
-6 -10 -10 0 -10 -3 -1 -12 7 -7 12 -18 12 -25 0 -11 -4 -11 -22 -1 -13 7 -27
13 -33 14 -5 0 -25 4 -42 8 -35 8 -42 30 -23 67 7 13 7 19 0 19 -5 0 -10 7
-10 16 0 12 4 14 13 7 18 -15 66 -26 125 -28 29 -2 59 -8 67 -15 9 -7 18 -10
22 -7 3 4 -8 14 -26 24 -37 22 -38 26 -7 60 14 15 23 30 20 35 -3 4 2 5 10 2
8 -3 12 -13 9 -22 -4 -15 -3 -15 6 -2 9 13 12 12 25 -5 21 -27 20 -70 -1 -91
-10 -9 -18 -33 -19 -52 -1 -25 -9 -42 -27 -58 l-26 -22 25 -5 c21 -4 27 1 35
22 5 14 14 34 20 45 7 13 7 16 0 11 -6 -3 -11 1 -11 10 0 11 6 15 19 10 23 -7
51 3 51 20 0 7 16 22 35 34 19 11 35 24 36 28 0 4 2 19 3 32 2 16 -6 34 -21
49 l-24 24 20 22 c27 28 28 80 2 98 -11 8 -21 27 -23 43 -1 15 -9 31 -17 33
-11 4 -13 -4 -9 -36z m38 -97 c0 -22 -4 -25 -39 -25 -22 0 -43 5 -47 11 -5 8
1 10 18 6 17 -5 29 -1 41 13 22 26 27 25 27 -5z m-205 -7 c37 -32 37 -83 2
-114 -23 -20 -30 -21 -62 -12 -19 6 -35 15 -35 20 0 5 4 7 9 3 6 -3 8 12 6 37
-6 63 3 88 31 88 12 0 35 -10 49 -22z m177 -65 c10 -9 18 -21 18 -27 0 -6 -7
-3 -14 7 -12 15 -23 17 -64 11 -34 -4 -52 -3 -57 6 -20 33 81 36 117 3z m-32
-41 c0 -13 -12 -22 -22 -16 -10 6 -1 24 13 24 5 0 9 -4 9 -8z m47 0 c14 -9 5
-62 -11 -62 -18 0 -36 46 -23 59 13 13 18 13 34 3z m-261 -36 c10 -8 29 -12
42 -9 13 3 22 1 22 -6 0 -7 -20 -11 -50 -11 -27 0 -50 4 -50 10 0 5 -8 6 -17
3 -16 -6 -16 -5 -4 10 17 21 31 21 57 3z m217 -61 c1 -5 -6 -11 -15 -13 -11
-2 -18 3 -18 13 0 17 30 18 33 0z"/>
<path d="M1300 1478 c0 -11 12 -10 30 2 12 7 10 9 -8 7 -12 0 -22 -5 -22 -9z"/>
<path d="M1736 1463 c-4 -9 -1 -21 5 -27 9 -8 10 -8 5 2 -4 7 -2 19 4 27 7 9
8 15 2 15 -5 0 -13 -8 -16 -17z"/>
<path d="M1327 1463 c-11 -10 -8 -20 8 -27 10 -4 15 1 15 14 0 20 -11 26 -23
13z"/>
<path d="M2015 1463 c-11 -3 -27 -13 -35 -22 -20 -23 -91 -76 -112 -84 -18 -6
-34 18 -18 28 6 4 10 12 10 18 0 7 -8 0 -18 -15 -9 -16 -20 -28 -24 -28 -5 0
-8 -4 -8 -10 0 -13 51 -13 85 0 17 7 24 7 20 0 -3 -6 -2 -10 4 -10 10 0 27
-38 23 -52 -1 -4 5 -5 13 -2 8 4 15 1 15 -5 0 -6 -5 -11 -11 -11 -5 0 -8 -4
-4 -9 3 -5 1 -12 -5 -16 -14 -9 -13 -25 3 -25 8 0 12 -19 12 -59 l0 -59 -53
-29 c-65 -34 -83 -80 -49 -122 7 -8 12 -26 13 -40 1 -49 4 -61 14 -61 6 0 6 9
0 26 -12 30 -4 50 13 35 7 -5 17 -10 22 -11 6 0 9 -13 8 -28 0 -15 1 -21 4
-14 2 6 13 12 24 12 23 0 25 18 4 26 -8 4 -13 10 -10 14 3 4 -5 10 -18 14 -34
8 -67 44 -67 71 0 27 46 75 72 75 26 0 48 11 42 22 -3 5 3 4 15 -4 27 -16 27
-31 1 -23 -23 7 -26 -1 -6 -21 19 -18 26 -18 26 2 0 9 5 12 12 8 7 -4 8 -3 4
4 -4 7 -2 12 3 12 6 0 11 -5 11 -11 0 -5 5 -7 10 -4 11 7 13 -2 11 -65 -1 -57
7 -92 19 -85 14 9 12 -9 -2 -24 -11 -11 -9 -11 10 -1 29 14 33 11 42 -40 6
-34 4 -42 -11 -51 -11 -5 -24 -7 -29 -4 -18 11 -58 -6 -55 -23 2 -9 4 -22 4
-28 1 -6 12 -24 26 -40 26 -30 31 -44 16 -44 -9 0 -22 -52 -15 -59 2 -2 10 2
19 9 18 15 19 3 1 -30 -14 -24 -11 -46 15 -95 8 -16 18 -20 45 -17 42 5 47 32
5 32 -46 0 -52 17 -45 114 5 71 4 86 -8 86 -21 0 -48 33 -48 58 0 18 5 22 28
20 48 -3 74 18 72 60 -3 67 -4 65 47 58 l47 -6 -22 23 c-12 13 -22 31 -22 40
0 22 -38 43 -53 28 -8 -8 -5 -11 11 -11 15 0 24 -8 28 -25 4 -14 4 -28 1 -31
-12 -13 -69 -5 -87 11 -22 20 -27 60 -9 71 8 5 8 9 -1 14 -9 6 -10 16 -3 36 7
21 18 30 42 35 17 4 41 15 51 24 19 17 20 17 20 -4 0 -12 -5 -32 -11 -43 -8
-14 -8 -23 0 -31 8 -8 11 -4 12 14 l1 24 7 -25 c5 -18 9 -5 14 50 4 41 12 77
18 78 6 3 6 9 -2 18 -19 23 5 17 56 -13 43 -27 57 -43 34 -43 -5 0 -7 -6 -3
-12 6 -10 4 -10 -7 -2 -21 16 -69 26 -69 14 0 -5 9 -10 19 -10 32 0 52 -29 49
-69 -2 -29 -8 -37 -25 -39 -13 -2 -23 -8 -23 -13 0 -5 -10 -9 -22 -10 -14 0
-17 -3 -9 -6 17 -7 91 17 91 29 0 5 5 6 11 2 8 -4 8 -9 0 -17 -14 -14 -15 -40
-1 -32 6 3 7 -1 4 -10 -4 -9 -11 -14 -16 -13 -16 6 -79 -55 -65 -64 6 -4 18
-1 26 5 12 9 13 9 7 -1 -4 -7 -4 -22 -1 -33 6 -17 9 -19 16 -8 4 8 6 23 4 34
-6 26 34 71 80 90 40 17 91 19 100 5 5 -8 11 -7 21 1 11 9 21 9 41 0 24 -11
25 -10 13 4 -11 13 -10 21 10 46 15 21 23 47 24 80 1 40 8 58 36 94 19 24 42
44 49 45 12 0 12 3 3 12 -28 28 -11 32 46 11 6 -3 12 0 12 6 0 6 -7 11 -15 11
-8 0 -15 5 -15 10 0 6 -5 9 -12 8 -6 -2 -13 5 -16 14 -2 11 9 23 35 37 42 22
34 27 -16 10 -20 -7 -31 -18 -31 -30 0 -10 -5 -19 -10 -19 -6 0 -8 -11 -4 -25
7 -30 -16 -71 -51 -87 -20 -9 -27 -6 -54 23 -25 28 -30 40 -25 64 9 45 24 57
61 53 18 -2 33 -1 33 3 0 4 -18 9 -40 11 -22 2 -40 0 -40 -4 0 -4 -9 -6 -20
-5 -19 1 -19 1 0 22 11 12 20 27 20 33 0 7 6 12 14 12 15 0 15 28 0 51 -9 14
-24 -8 -24 -37 0 -36 -24 -57 -64 -56 -20 1 -44 6 -55 11 -10 6 -30 7 -47 2
-26 -7 -23 -9 35 -19 35 -6 66 -14 69 -16 2 -3 -3 -17 -12 -31 -9 -14 -12 -25
-7 -25 6 0 14 7 19 15 8 15 52 30 52 18 0 -22 -26 -73 -38 -73 -7 0 -10 5 -6
11 4 7 -16 -1 -45 -17 -44 -25 -53 -27 -61 -14 -8 12 -10 11 -10 -6 0 -12 -10
-25 -25 -32 -21 -10 -32 -9 -63 7 -33 17 -37 23 -36 57 1 35 5 41 45 62 30 16
36 23 19 19 -14 -2 -33 -8 -43 -12 -14 -6 -12 -1 7 18 14 14 26 31 26 38 0 7
-8 3 -17 -8 -32 -35 -64 -52 -82 -43 -9 5 -24 11 -33 14 -13 4 -18 17 -19 48
0 24 -3 36 -6 28 -3 -8 -12 -31 -20 -50 l-15 -35 -18 50 -18 50 2 -52 c0 -29
5 -53 9 -53 5 0 6 -24 4 -52 -2 -29 -2 -42 1 -28 4 23 5 24 12 5 7 -15 9 -9 9
23 1 52 18 62 67 39 33 -16 49 -47 42 -83 -3 -15 -12 -18 -53 -16 -36 2 -46 0
-35 -7 8 -6 25 -8 38 -4 24 6 52 -11 52 -32 0 -21 -50 -63 -82 -70 -35 -8 -48
5 -48 46 0 27 -25 57 -37 45 -4 -4 -2 -11 6 -15 17 -11 26 -77 11 -86 -19 -12
-77 15 -89 41 -24 52 -6 89 35 74 13 -5 24 -6 24 -1 0 11 -25 21 -51 21 -16 0
-19 5 -14 23 8 26 50 67 71 67 8 0 14 7 14 15 0 13 -6 12 -39 -5 l-39 -19 -26
20 c-35 27 -33 53 8 94 34 36 72 45 94 23 7 -7 12 -9 12 -6 0 9 -30 38 -38 37
-4 -1 -16 -3 -27 -6z m470 -255 c-3 -7 -1 -33 4 -58 l9 -45 1 58 c1 66 12 72
60 31 48 -40 42 -89 -11 -98 -35 -6 -58 -28 -58 -55 0 -36 -16 -49 -62 -53
-48 -3 -68 15 -68 63 0 38 1 39 28 33 38 -10 79 -31 86 -46 3 -7 5 -4 3 6 -3
24 -52 54 -89 55 -19 1 -28 6 -28 18 0 22 48 83 66 83 7 0 14 5 14 10 0 6 11
10 25 10 15 0 23 -5 20 -12z m109 -126 c10 -16 -24 -73 -55 -91 -38 -23 -51
-19 -44 12 3 12 7 32 8 45 0 12 7 23 14 23 27 3 32 4 39 12 10 9 31 9 38 -1z"/>
<path d="M2537 1149 c7 -7 15 -10 18 -7 3 3 -2 9 -12 12 -14 6 -15 5 -6 -5z"/>
<path d="M2471 1134 c0 -11 3 -14 6 -6 3 7 2 16 -1 19 -3 4 -6 -2 -5 -13z"/>
<path d="M2901 1461 c-11 -7 -11 -13 -1 -27 9 -15 10 -15 6 -2 -3 9 0 19 7 21
7 2 10 7 7 10 -3 3 -12 2 -19 -2z"/>
<path d="M3015 1440 c-3 -6 1 -7 9 -4 18 7 21 14 7 14 -6 0 -13 -4 -16 -10z"/>
<path d="M1156 1432 c-3 -5 1 -18 9 -28 14 -18 14 -18 15 3 0 23 -15 39 -24
25z"/>
<path d="M2607 1417 c-3 -9 1 -18 9 -21 16 -6 18 2 5 22 -7 11 -9 11 -14 -1z"/>
<path d="M1994 1384 c3 -9 6 -18 6 -20 0 -3 4 -3 10 1 11 7 2 35 -12 35 -6 0
-7 -7 -4 -16z"/>
<path d="M1259 1354 c-12 -14 -11 -16 5 -13 11 2 21 10 24 17 5 17 -13 15 -29
-4z"/>
<path d="M1122 1335 l-22 -16 20 -29 c11 -15 20 -36 20 -47 -1 -17 -1 -17 -15
1 -8 11 -18 16 -22 12 -11 -11 26 -36 53 -36 17 0 24 8 29 30 4 16 18 39 32
50 32 25 22 40 -33 46 -27 4 -46 0 -62 -11z m72 -37 c-3 -4 -11 -5 -19 -1 -8
3 -15 0 -15 -6 0 -6 -4 -11 -10 -11 -5 0 -10 10 -10 21 0 16 5 20 20 16 11 -3
20 0 20 6 0 7 4 6 9 -3 6 -8 8 -17 5 -22z"/>
<path d="M1580 1334 c0 -8 5 -12 10 -9 6 4 8 11 5 16 -9 14 -15 11 -15 -7z"/>
<path d="M2350 1343 c0 -6 9 -18 19 -28 19 -16 20 -16 18 4 0 11 -3 18 -6 16
-2 -3 -10 0 -18 6 -7 7 -13 7 -13 2z"/>
<path d="M2777 1325 c-4 -8 -2 -17 3 -20 6 -4 10 3 10 14 0 25 -6 27 -13 6z"/>
<path d="M2900 1309 c0 -5 5 -7 10 -4 6 3 10 8 10 11 0 2 -4 4 -10 4 -5 0 -10
-5 -10 -11z"/>
<path d="M1724 1285 c-18 -14 -18 -14 4 -8 12 3 22 9 22 14 0 12 -3 11 -26 -6z"/>
<path d="M1790 1280 c0 -6 -11 -15 -25 -20 -14 -5 -25 -14 -25 -20 0 -6 -4 -8
-10 -5 -5 3 -10 0 -11 -7 -1 -7 -2 -26 -3 -41 -2 -15 1 -30 6 -33 18 -11 7
-24 -12 -14 -11 6 -20 17 -20 24 0 17 -33 31 -38 17 -2 -6 -10 -11 -17 -11 -7
0 -15 -6 -18 -12 -3 -10 -9 -10 -27 0 -19 12 -21 11 -12 -4 7 -13 5 -23 -9
-38 -11 -11 -19 -32 -19 -47 0 -15 -6 -29 -12 -32 -21 -6 -82 13 -95 31 -16
20 -17 88 -1 98 8 5 9 2 5 -10 -5 -13 2 -11 25 9 24 20 39 25 59 21 39 -7 89
11 82 31 -3 9 -8 11 -12 5 -4 -6 -29 -12 -56 -14 -28 -2 -60 -9 -72 -16 -29
-16 -33 -15 -33 7 0 11 8 22 18 24 11 3 8 5 -9 6 -33 1 -41 -7 -28 -32 8 -14
8 -26 1 -41 -6 -11 -12 -30 -14 -41 -2 -11 -15 -26 -30 -33 -23 -11 -31 -10
-52 4 -14 9 -31 14 -37 12 -7 -2 5 -15 27 -28 21 -13 41 -28 42 -32 7 -16 20
-7 15 11 -5 20 26 34 47 21 9 -6 6 -11 -10 -20 -12 -6 -19 -14 -17 -17 3 -2
14 0 26 6 16 9 22 8 30 -8 9 -16 7 -20 -14 -25 -14 -4 -33 -2 -43 3 -9 5 -32
6 -51 4 -22 -4 -36 -1 -42 8 -8 14 -10 11 -9 -18 0 -5 12 -11 25 -15 14 -3 23
-3 20 2 -10 17 45 17 60 0 14 -16 13 -21 -8 -58 -17 -31 -26 -39 -35 -30 -8 8
-9 5 -5 -10 4 -18 8 -19 29 -10 15 7 24 20 24 34 0 23 24 54 41 54 6 0 7 5 4
10 -4 6 7 15 24 21 17 6 31 14 31 19 0 11 55 5 55 -6 1 -11 -65 -35 -77 -28
-4 3 -8 1 -8 -5 0 -19 20 -22 45 -5 14 9 28 14 31 11 3 -3 -4 -8 -16 -12 -12
-4 -20 -11 -18 -17 2 -6 -11 -25 -30 -44 -18 -18 -31 -38 -27 -44 3 -5 1 -10
-5 -10 -6 0 -8 -4 -5 -10 10 -17 20 -11 33 19 18 40 82 107 110 116 15 4 34
-1 58 -15 34 -22 53 -22 39 -1 -3 6 -15 11 -26 11 -10 0 -19 4 -19 9 0 10 39
3 56 -11 7 -5 16 -2 24 7 9 11 17 12 32 4 11 -6 22 -8 25 -6 2 3 -5 8 -16 12
-26 8 -27 23 -3 42 15 13 15 13 -8 7 -14 -4 -31 -16 -39 -26 -11 -16 -20 -18
-55 -13 -53 9 -73 20 -81 46 -8 24 37 95 67 105 21 6 48 -11 48 -31 0 -9 8
-11 22 -7 16 4 19 2 13 -9 -5 -8 -5 -11 -1 -7 11 10 79 -12 94 -31 7 -9 11
-10 7 -3 -4 7 1 12 12 12 10 0 25 10 33 21 8 12 26 35 38 50 14 17 18 27 9 23
-10 -3 -16 4 -20 23 -7 32 -32 71 -41 62 -4 -3 2 -17 12 -30 24 -31 20 -85 -7
-112 l-20 -21 -47 20 c-83 34 -79 101 8 141 20 9 35 20 32 25 -7 12 -44 10
-44 -2z"/>
<path d="M2070 1270 c0 -11 2 -20 4 -20 2 0 6 9 9 20 3 11 1 20 -4 20 -5 0 -9
-9 -9 -20z"/>
<path d="M2381 1274 c0 -11 3 -14 6 -6 3 7 2 16 -1 19 -3 4 -6 -2 -5 -13z"/>
<path d="M2326 1253 c-6 -14 -5 -15 5 -6 7 7 10 15 7 18 -3 3 -9 -2 -12 -12z"/>
<path d="M1486 1231 c-3 -5 1 -12 10 -15 9 -4 13 -2 8 5 -4 7 1 9 15 4 11 -3
29 -2 38 4 15 8 10 10 -24 11 -23 0 -44 -4 -47 -9z"/>
<path d="M1170 1185 c0 -14 4 -25 9 -25 11 0 22 -55 15 -74 -7 -19 -54 -40
-54 -23 0 29 13 57 26 57 8 0 14 5 14 10 0 16 -37 12 -54 -6 -30 -29 -12 -84
27 -81 26 2 107 77 83 77 -20 0 -46 38 -46 67 0 13 -4 23 -10 23 -5 0 -10 -11
-10 -25z"/>
<path d="M2120 1179 c0 -5 5 -7 10 -4 6 3 10 8 10 11 0 2 -4 4 -10 4 -5 0 -10
-5 -10 -11z"/>
<path d="M2810 1168 c0 -9 7 -19 16 -22 15 -6 15 -4 3 11 -7 10 -15 20 -16 22
-2 2 -3 -3 -3 -11z"/>
<path d="M1310 1147 c0 -23 35 -66 45 -55 3 3 -1 11 -10 18 -8 7 -15 21 -15
31 0 10 -4 21 -10 24 -6 3 -10 -4 -10 -18z"/>
<path d="M1360 1156 c0 -8 5 -18 10 -21 6 -3 10 1 10 9 0 8 -4 18 -10 21 -5 3
-10 -1 -10 -9z"/>
<path d="M1513 1153 c-7 -2 -13 -14 -13 -24 0 -11 -4 -17 -10 -14 -5 3 -10 1
-10 -4 0 -19 22 -12 27 9 3 11 9 17 14 14 5 -3 9 2 9 10 0 9 -1 16 -2 15 -2 0
-9 -3 -15 -6z"/>
<path d="M2028 1143 c7 -3 16 -2 19 1 4 3 -2 6 -13 5 -11 0 -14 -3 -6 -6z"/>
<path d="M2140 1135 c0 -8 2 -15 4 -15 2 0 6 7 10 15 3 8 1 15 -4 15 -6 0 -10
-7 -10 -15z"/>
<path d="M3082 1120 c0 -14 2 -19 5 -12 2 6 2 18 0 25 -3 6 -5 1 -5 -13z"/>
<path d="M1668 1120 c-5 -17 19 -46 30 -36 3 4 2 10 -4 14 -6 4 -13 14 -16 22
-4 13 -5 13 -10 0z"/>
<path d="M3208 1113 c-15 -4 -18 -29 -9 -76 3 -22 17 6 15 32 -3 38 21 42 37
7 9 -20 8 -33 -8 -68 -11 -24 -24 -56 -30 -73 -5 -16 -14 -29 -21 -28 -6 2
-10 -6 -9 -17 1 -13 5 -16 11 -10 17 17 27 11 14 -10 -7 -11 -18 -20 -25 -20
-16 0 -17 -26 -3 -35 6 -4 0 -15 -14 -26 -14 -11 -28 -30 -32 -42 -4 -12 -23
-36 -42 -54 -34 -30 -37 -31 -54 -16 -17 15 -18 15 -18 -1 0 -10 11 -19 30
-23 24 -4 28 -8 19 -19 -21 -25 -55 -16 -90 24 -18 20 -36 37 -41 37 -19 0
-78 57 -78 75 0 21 24 27 36 9 4 -6 19 -9 36 -5 24 5 31 2 35 -14 3 -13 14
-20 29 -20 17 0 24 -6 24 -20 0 -11 4 -20 9 -20 5 0 9 10 8 23 0 12 3 34 7 50
7 22 5 26 -7 21 -9 -3 -13 -12 -11 -19 4 -9 -3 -12 -19 -11 -14 0 -23 3 -21 5
2 2 -2 11 -9 19 -10 13 -9 15 11 10 20 -6 21 -4 11 8 -10 13 -8 15 13 12 14
-2 32 -9 41 -16 12 -10 16 -9 20 9 4 13 10 18 18 13 8 -4 10 -3 5 4 -4 7 -3
12 2 12 6 0 8 9 5 20 -6 24 0 25 34 3 26 -17 26 -17 12 5 -8 12 -17 22 -22 22
-4 0 -6 4 -3 9 3 5 16 7 29 4 21 -4 21 -4 2 9 -42 27 -26 57 30 59 17 0 24 3
17 6 -10 4 -8 8 5 18 34 25 6 25 -31 0 -25 -17 -45 -24 -58 -19 -15 4 -18 3
-13 -6 5 -9 4 -11 -4 -6 -6 4 -9 12 -6 17 4 5 -2 12 -12 16 -10 4 -23 14 -30
22 -8 10 -12 12 -13 4 0 -9 -7 -10 -26 -2 -24 8 -25 8 -14 -6 15 -18 16 -18
-42 0 -27 8 -48 12 -48 10 0 -14 72 -39 110 -40 37 0 46 -4 57 -25 32 -64 -1
-127 -63 -117 -25 4 -34 2 -34 -8 0 -8 -11 -22 -25 -31 -23 -15 -27 -15 -65 5
-30 16 -46 19 -58 11 -9 -5 -13 -10 -9 -10 4 0 3 -10 -4 -22 -8 -17 -4 -15 15
7 29 34 33 28 11 -15 -15 -28 -14 -29 40 -84 30 -31 61 -56 70 -56 8 0 22 -11
31 -25 15 -22 15 -26 0 -40 -9 -9 -16 -22 -16 -28 0 -6 7 -1 16 11 19 27 34
29 27 3 -6 -23 -29 -34 -48 -23 -12 6 -11 13 2 40 14 29 14 35 2 43 -11 6 -15
0 -20 -28 -4 -20 -14 -42 -24 -49 -15 -11 -16 -16 -5 -29 27 -32 105 -4 117
43 3 15 17 35 30 45 13 10 23 27 23 38 0 11 14 28 31 38 35 22 92 124 103 187
4 21 13 46 20 54 14 17 32 76 41 133 9 58 -15 77 -77 60z"/>
<path d="M1249 1083 c-5 -14 -7 -39 -4 -55 5 -21 3 -28 -9 -28 -8 0 -20 8 -25
18 -8 13 -9 9 -4 -18 7 -39 1 -38 -22 5 l-15 30 -7 -25 -7 -25 -6 25 -7 25 -8
-28 c-5 -20 -3 -33 9 -46 9 -10 16 -25 16 -34 0 -9 5 -19 10 -22 6 -3 10 4 10
17 0 16 13 31 41 49 39 25 41 28 43 83 2 31 1 56 -1 56 -2 0 -8 -12 -14 -27z
m-65 -126 c-21 -12 -27 -3 -19 24 7 22 8 22 21 4 12 -17 12 -20 -2 -28z"/>
<path d="M1625 1080 c3 -5 8 -10 11 -10 2 0 4 5 4 10 0 6 -5 10 -11 10 -5 0
-7 -4 -4 -10z"/>
<path d="M1735 1079 c-4 -6 -5 -12 -2 -15 2 -3 7 2 10 11 7 17 1 20 -8 4z"/>
<path d="M3232 1050 c0 -14 2 -19 5 -12 2 6 2 18 0 25 -3 6 -5 1 -5 -13z"/>
<path d="M2693 1043 c9 -2 23 -2 30 0 6 3 -1 5 -18 5 -16 0 -22 -2 -12 -5z"/>
<path d="M2805 1040 c-4 -6 -11 -8 -16 -5 -5 4 -9 1 -9 -4 0 -6 15 -11 33 -11
17 0 38 -4 46 -9 16 -10 41 9 41 31 -1 9 -5 7 -14 -4 -16 -22 -32 -23 -40 -3
-6 17 -32 20 -41 5z"/>
<path d="M2940 1046 c0 -3 9 -10 20 -16 11 -6 20 -8 20 -6 0 3 -9 10 -20 16
-11 6 -20 8 -20 6z"/>
<path d="M1935 1030 c3 -5 8 -10 11 -10 2 0 4 5 4 10 0 6 -5 10 -11 10 -5 0
-7 -4 -4 -10z"/>
<path d="M2630 1015 c0 -8 2 -15 4 -15 2 0 6 7 10 15 3 8 1 15 -4 15 -6 0 -10
-7 -10 -15z"/>
<path d="M2009 1008 c0 -7 -2 -27 -3 -45 -2 -18 -1 -32 3 -31 25 3 31 -6 31
-46 0 -35 -5 -47 -25 -60 -31 -20 -64 -20 -95 0 l-25 16 24 -21 c27 -25 61
-27 100 -6 46 23 56 83 21 128 -23 29 -25 48 -8 65 9 9 8 12 -5 12 -9 0 -17
-6 -18 -12z"/>
<path d="M2126 1003 c-12 -12 -5 -23 14 -23 11 0 20 4 20 9 0 11 -26 22 -34
14z"/>
<path d="M2733 1003 c-18 -7 -16 -23 2 -23 8 0 15 7 15 15 0 8 -1 15 -2 14 -2
0 -9 -3 -15 -6z"/>
<path d="M2248 993 c7 -3 16 -2 19 1 4 3 -2 6 -13 5 -11 0 -14 -3 -6 -6z"/>
<path d="M2630 986 c0 -3 15 -15 33 -27 l32 -23 -24 27 c-22 24 -41 35 -41 23z"/>
<path d="M2780 980 c0 -6 7 -10 15 -10 8 0 15 2 15 4 0 2 -7 6 -15 10 -8 3
-15 1 -15 -4z"/>
<path d="M2880 948 c0 -24 -8 -46 -24 -65 l-24 -27 -41 27 c-25 16 -39 32 -35
39 4 7 3 8 -4 4 -8 -5 -12 1 -12 16 0 18 2 20 10 8 8 -13 10 -12 10 3 0 12 -8
17 -25 17 -16 0 -25 -6 -25 -15 0 -8 4 -15 10 -15 5 0 7 -6 4 -14 -3 -9 6 -22
23 -32 15 -10 30 -19 32 -21 2 -1 -8 -16 -23 -33 -26 -32 -33 -50 -18 -50 5 0
14 12 21 26 8 19 17 25 31 21 11 -3 20 -2 20 2 0 4 6 8 13 9 28 2 48 9 59 20
7 7 17 12 24 12 6 0 17 6 23 14 9 11 8 15 -4 20 -9 3 -13 2 -10 -4 3 -6 2 -10
-4 -10 -16 0 -24 22 -11 30 10 6 9 13 -4 31 l-16 23 0 -36z"/>
<path d="M1301 953 c-1 -24 17 -78 24 -71 2 2 -2 24 -10 48 -8 27 -14 36 -14
23z"/>
<path d="M2936 961 c-4 -7 -5 -15 -2 -18 9 -9 19 4 14 18 -4 11 -6 11 -12 0z"/>
<path d="M1272 935 c0 -16 2 -22 5 -12 2 9 2 23 0 30 -3 6 -5 -1 -5 -18z"/>
<path d="M1741 928 c-23 -18 -37 -34 -31 -36 5 -2 27 13 47 32 47 45 40 46
-16 4z"/>
<path d="M3195 949 c-4 -6 -5 -12 -2 -15 2 -3 7 2 10 11 7 17 1 20 -8 4z"/>
<path d="M1200 940 c-12 -7 -12 -12 -3 -21 15 -15 26 -7 21 15 -2 11 -7 13
-18 6z"/>
<path d="M1240 941 c0 -6 4 -13 10 -16 6 -3 7 1 4 9 -7 18 -14 21 -14 7z"/>
<path d="M1612 934 c-7 -8 -17 -12 -23 -9 -5 4 -9 2 -9 -3 0 -6 7 -12 15 -16
8 -3 15 -1 15 5 0 6 5 7 10 4 6 -3 10 3 10 14 0 25 -1 25 -18 5z"/>
<path d="M1540 914 c0 -48 53 -81 80 -49 7 8 20 15 30 15 10 0 20 7 24 15 7
20 -3 19 -39 -5 -42 -28 -52 -25 -74 18 l-20 37 -1 -31z"/>
<path d="M1688 933 c7 -3 16 -2 19 1 4 3 -2 6 -13 5 -11 0 -14 -3 -6 -6z"/>
<path d="M1777 907 c-15 -18 -27 -35 -27 -39 0 -5 -7 -8 -15 -8 -9 0 -18 -12
-22 -30 -9 -48 -48 -63 -78 -30 -10 11 -22 17 -26 14 -16 -10 -9 -24 17 -34
30 -12 27 -34 -4 -38 -12 -2 -20 -8 -16 -13 3 -5 -11 -16 -30 -24 -20 -9 -36
-20 -36 -25 0 -14 77 26 83 42 4 9 6 7 6 -3 1 -9 7 -19 15 -22 16 -6 27 -55
15 -63 -5 -3 -14 -14 -19 -24 -8 -15 -7 -18 3 -14 14 5 29 30 41 67 3 10 9 16
14 13 4 -2 14 -1 22 5 12 7 11 9 -6 9 -31 0 -58 34 -50 64 4 18 11 23 25 19
22 -6 44 27 35 51 -4 10 2 17 20 22 14 3 24 10 21 14 -6 9 33 60 45 60 15 0
40 -56 40 -88 0 -16 -9 -37 -19 -46 -11 -10 -21 -30 -23 -45 -2 -18 -13 -31
-35 -41 -17 -8 -36 -25 -42 -37 -6 -13 -15 -23 -20 -23 -6 0 -15 -18 -21 -40
-8 -30 -19 -44 -43 -55 l-32 -15 41 5 c28 3 47 0 60 -11 10 -8 13 -12 6 -9
-11 6 -12 3 -2 -14 8 -17 15 -20 24 -12 7 6 15 9 17 7 2 -2 16 -6 31 -10 21
-5 30 -2 37 13 10 17 7 18 -32 14 -38 -5 -45 -2 -59 19 -30 45 9 138 58 138 8
0 14 8 14 18 0 30 38 82 60 82 14 0 19 -4 14 -12 -5 -10 -4 -10 6 -1 16 15 10
24 -16 25 -17 2 -19 9 -16 57 3 52 1 58 -26 78 l-29 22 -26 -32z"/>
<path d="M2405 910 c9 -45 21 -57 30 -31 3 12 10 19 15 16 5 -3 11 -1 15 5 9
14 -19 12 -34 -2 -10 -11 -11 -10 -6 3 3 9 -1 22 -11 30 -15 12 -16 11 -9 -21z"/>
<path d="M2550 929 c0 -5 3 -9 8 -10 4 0 24 -2 46 -4 49 -5 43 1 -12 13 -24 6
-42 6 -42 1z"/>
<path d="M3050 930 c0 -5 5 -10 10 -10 6 0 10 5 10 10 0 6 -4 10 -10 10 -5 0
-10 -4 -10 -10z"/>
<path d="M2826 913 c-6 -14 -5 -15 5 -6 7 7 10 15 7 18 -3 3 -9 -2 -12 -12z"/>
<path d="M2980 903 c0 -10 5 -25 10 -33 7 -11 10 -7 10 18 0 17 -4 32 -10 32
-5 0 -10 -8 -10 -17z"/>
<path d="M1240 895 c10 -12 10 -15 -3 -15 -10 0 -14 -6 -11 -15 11 -27 -6 -16
-18 13 l-12 27 -4 -29 c-2 -20 4 -36 22 -55 19 -19 26 -38 26 -64 0 -30 8 -46
38 -77 20 -21 45 -50 55 -64 20 -29 58 -34 76 -12 14 16 59 27 66 15 3 -4 1
-10 -5 -14 -14 -9 -12 -26 3 -23 6 1 23 -2 35 -6 24 -8 24 -8 4 -29 -29 -33
-44 -67 -37 -85 5 -14 7 -14 15 -2 6 10 10 7 16 -16 10 -43 23 -54 60 -54 28
0 36 5 44 26 13 34 2 124 -16 124 -7 0 -24 10 -38 23 -13 12 -34 30 -46 40
-25 21 -21 43 6 39 16 -2 17 -1 4 7 -10 7 -11 11 -3 11 10 0 9 10 -3 41 -15
37 -15 42 -1 56 15 15 18 14 35 -7 12 -15 23 -20 32 -15 9 6 6 12 -14 22 -32
17 -33 32 -4 63 18 20 19 23 4 17 -10 -4 -20 -7 -22 -7 -2 0 -4 -7 -4 -15 0
-12 -7 -14 -27 -9 -27 6 -27 6 -8 -9 11 -9 15 -17 8 -17 -7 0 -13 -7 -13 -15
0 -8 -4 -15 -10 -15 -16 0 -12 -47 5 -54 19 -7 19 -23 0 -42 -13 -14 -18 -13
-44 5 -40 29 -49 26 -20 -6 18 -20 20 -25 7 -20 -10 4 -18 2 -18 -5 0 -6 -6
-6 -16 3 -11 9 -14 22 -10 43 l6 30 -19 -21 c-13 -14 -18 -29 -14 -44 l6 -24
-22 23 c-12 12 -26 22 -31 22 -6 0 -10 6 -10 14 0 7 -7 19 -16 27 -11 9 -14
22 -9 45 3 18 2 34 -2 36 -4 1 -15 17 -25 35 -14 28 -15 33 -1 53 13 19 13 24
2 31 -22 14 -33 10 -19 -6z m328 -365 c19 -16 22 -25 16 -54 -5 -30 -30 -67
-37 -55 -1 2 -8 13 -15 24 -33 53 -35 62 -16 84 22 25 23 25 52 1z"/>
<path d="M1427 899 c7 -7 15 -10 18 -7 3 3 -2 9 -12 12 -14 6 -15 5 -6 -5z"/>
<path d="M2550 881 c0 -12 4 -21 8 -21 13 0 48 29 35 30 -6 0 -18 3 -27 6 -12
4 -16 0 -16 -15z"/>
<path d="M2695 890 c-3 -5 -1 -10 4 -10 6 0 11 5 11 10 0 6 -2 10 -4 10 -3 0
-8 -4 -11 -10z"/>
<path d="M1392 860 c-6 -11 -12 -23 -12 -27 0 -5 5 0 11 10 5 9 17 17 25 17 8
0 12 5 9 10 -9 15 -19 12 -33 -10z"/>
<path d="M2370 865 c-8 -9 -8 -15 -2 -15 12 0 26 19 19 26 -2 2 -10 -2 -17
-11z"/>
<path d="M2488 867 c-28 -11 -35 -22 -20 -31 5 -3 21 6 38 19 31 26 26 29 -18
12z"/>
<path d="M1307 863 c-13 -3 -15 -11 -11 -30 5 -17 3 -24 -4 -19 -6 4 -8 -2 -5
-14 7 -25 29 -20 25 4 -2 10 4 28 13 42 16 24 14 25 -18 17z"/>
<path d="M1996 855 c-3 -8 -1 -15 4 -15 6 0 10 7 10 15 0 8 -2 15 -4 15 -2 0
-6 -7 -10 -15z"/>
<path d="M2670 846 c0 -10 -16 -34 -36 -52 -31 -30 -32 -33 -11 -25 20 8 27 6
31 -5 11 -29 6 -53 -15 -68 -15 -10 -19 -20 -15 -33 7 -17 8 -17 22 1 7 11 17
16 21 13 4 -4 1 -13 -5 -19 -19 -19 -14 -45 12 -72 25 -28 36 -32 36 -15 0 5
-3 8 -8 5 -4 -2 -15 9 -24 25 -10 16 -13 31 -7 34 5 4 13 -4 17 -16 5 -13 11
-18 15 -12 4 6 20 9 36 7 16 -3 32 0 36 6 3 5 12 10 18 10 7 0 6 -4 -3 -10 -8
-5 -10 -10 -5 -10 20 0 42 36 34 56 -6 17 -8 17 -14 2 -7 -17 -54 -38 -86 -38
-19 0 -49 46 -49 75 0 24 15 17 27 -12 10 -27 10 -27 9 9 -1 21 -10 47 -22 61
-16 18 -19 29 -12 48 l9 24 19 -25 c11 -14 20 -20 20 -13 0 7 -11 25 -25 40
-21 24 -24 25 -25 9z"/>
<path d="M2115 840 c3 -5 8 -10 11 -10 2 0 4 5 4 10 0 6 -5 10 -11 10 -5 0 -7
-4 -4 -10z"/>
<path d="M2280 849 c0 -4 9 -37 20 -73 17 -54 25 -66 43 -67 12 -1 28 -2 35
-3 7 0 21 -14 31 -29 l18 -28 6 23 c4 15 1 25 -9 31 -8 4 -12 12 -9 18 4 5 -3
9 -15 9 -12 0 -30 5 -41 10 -15 9 -19 7 -20 -7 0 -10 -8 5 -18 32 -16 48 -40
97 -41 84z"/>
<path d="M1437 830 c7 -8 9 -19 4 -29 -5 -9 -7 -24 -6 -33 2 -9 -3 -19 -11
-22 -8 -3 -14 -13 -14 -22 0 -16 1 -16 18 -1 10 10 21 15 23 12 3 -2 6 16 6
40 1 30 -4 48 -15 56 -14 11 -15 11 -5 -1z"/>
<path d="M1652 829 c2 -6 8 -10 13 -10 5 0 11 4 13 10 2 6 -4 11 -13 11 -9 0
-15 -5 -13 -11z"/>
<path d="M1790 831 c0 -6 5 -13 10 -16 6 -3 10 1 10 9 0 9 -4 16 -10 16 -5 0
-10 -4 -10 -9z"/>
<path d="M1350 821 c0 -5 5 -13 10 -16 6 -3 10 -2 10 4 0 5 -4 13 -10 16 -5 3
-10 2 -10 -4z"/>
<path d="M2220 805 c-32 -12 -33 -14 -9 -14 14 -1 34 6 45 14 23 18 10 18 -36
0z"/>
<path d="M2355 809 c-4 -6 -13 -8 -21 -5 -16 6 -18 -3 -4 -24 5 -8 10 -10 10
-4 0 6 19 15 43 19 35 6 38 8 22 15 -28 12 -43 12 -50 -1z"/>
<path d="M1380 802 c0 -5 10 -17 22 -28 l21 -19 -18 28 c-18 28 -25 33 -25 19z"/>
<path d="M2436 795 c4 -8 11 -15 16 -15 6 0 5 6 -2 15 -7 8 -14 15 -16 15 -2
0 -1 -7 2 -15z"/>
<path d="M2531 778 c-13 -16 -20 -32 -16 -36 4 -4 10 -1 12 6 3 6 9 10 14 7 5
-4 15 -2 22 2 10 6 11 13 3 29 -11 20 -12 20 -35 -8z"/>
<path d="M1331 774 c-6 -15 -9 -29 -5 -33 4 -3 9 0 11 7 7 18 20 15 26 -8 3
-11 10 -20 16 -20 6 0 1 18 -10 40 -12 22 -22 40 -23 40 -2 0 -8 -12 -15 -26z"/>
<path d="M2781 791 c-11 -7 -10 -12 5 -28 11 -10 27 -30 36 -43 12 -18 17 -20
17 -9 1 9 -8 24 -20 35 -11 10 -18 26 -16 36 6 20 -1 22 -22 9z"/>
<path d="M3100 785 c7 -8 17 -15 22 -15 6 0 5 7 -2 15 -7 8 -17 15 -22 15 -6
0 -5 -7 2 -15z"/>
<path d="M1923 758 c1 -7 -4 -12 -10 -10 -9 1 -13 -10 -13 -32 0 -19 -5 -38
-10 -41 -6 -4 -8 -10 -5 -15 3 -4 -1 -13 -9 -19 -8 -6 -16 -44 -20 -89 -6 -63
-12 -82 -32 -103 -14 -14 -26 -35 -26 -45 -3 -33 12 -76 25 -71 19 6 20 33 2
51 -16 16 -10 21 20 17 6 -1 2 5 -7 12 -16 13 -16 15 6 36 22 21 24 21 40 5
14 -14 15 -19 4 -26 -9 -6 -6 -7 10 -3 19 6 22 3 22 -24 0 -17 4 -31 10 -31 5
0 7 13 4 28 -5 25 -3 28 23 30 28 2 29 0 26 -30 -4 -29 -3 -31 8 -14 16 26 37
149 28 173 -3 10 0 28 9 40 8 14 13 39 10 63 -2 23 1 40 7 40 5 1 -6 8 -25 16
-19 8 -38 20 -42 27 -5 8 -8 7 -8 -4 0 -9 11 -20 24 -23 19 -5 25 -14 28 -43
6 -51 -1 -76 -19 -68 -11 4 -13 1 -8 -12 14 -35 17 -100 6 -122 -17 -30 -76
-29 -116 3 -30 24 -30 24 -11 45 11 12 15 21 10 22 -5 0 1 4 14 10 13 5 33 7
45 5 12 -1 16 -1 10 1 -7 3 -13 9 -13 14 0 6 -8 5 -20 -1 -11 -6 -20 -7 -20
-3 0 5 9 14 20 21 11 7 20 22 20 35 0 12 7 33 16 45 9 13 14 25 12 28 -9 8
-37 -32 -40 -58 -4 -25 -31 -57 -50 -58 -12 0 -4 33 15 61 9 14 18 37 19 52 1
15 5 27 9 27 3 0 11 11 17 25 10 21 9 25 -3 25 -8 0 -14 -6 -12 -12z"/>
<path d="M2470 755 c0 -8 -9 -15 -20 -15 -21 0 -25 -7 -11 -28 6 -11 13 -11
37 0 40 17 40 16 16 38 -18 17 -22 18 -22 5z"/>
<path d="M2164 734 c16 -17 26 -38 26 -56 0 -16 -3 -27 -7 -25 -5 3 -9 -14
-11 -38 -2 -37 2 -47 24 -64 33 -26 33 -26 69 4 22 18 26 24 13 25 -9 0 -24
-8 -34 -17 -16 -16 -18 -16 -35 6 -24 29 -24 48 1 88 l19 32 -22 18 c-13 10
-26 26 -30 36 -3 9 -14 17 -23 17 -13 0 -11 -6 10 -26z"/>
<path d="M1299 733 c6 -11 8 -23 5 -26 -3 -3 4 -11 16 -17 41 -22 36 12 -6 44
-26 18 -26 18 -15 -1z"/>
<path d="M2558 733 c-10 -2 -18 -9 -18 -14 0 -6 5 -7 10 -4 6 4 22 -1 35 -9
28 -18 34 -6 9 18 -8 9 -16 15 -17 15 -1 -1 -10 -3 -19 -6z"/>
<path d="M3080 730 c0 -5 5 -10 10 -10 6 0 10 5 10 10 0 6 -4 10 -10 10 -5 0
-10 -4 -10 -10z"/>
<path d="M2271 715 c-24 -8 -30 -14 -20 -19 11 -5 11 -7 1 -12 -10 -5 -10 -11
3 -30 9 -14 13 -29 10 -35 -4 -5 -1 -8 7 -7 7 2 12 -3 11 -9 -2 -7 2 -13 7
-13 6 0 10 4 10 9 0 6 -4 13 -10 16 -5 3 -10 11 -10 17 0 6 10 2 23 -9 22 -20
57 -27 57 -11 0 4 6 8 13 8 15 0 41 39 32 48 -4 4 -11 0 -16 -9 -4 -9 -20 -24
-35 -34 -25 -16 -27 -16 -55 11 -34 33 -37 50 -9 59 11 3 20 13 20 21 0 8 -1
13 -2 13 -2 -1 -18 -7 -37 -14z"/>
<path d="M1440 691 c0 -6 4 -13 10 -16 6 -3 7 1 4 9 -7 18 -14 21 -14 7z"/>
<path d="M2130 696 c0 -2 7 -6 15 -10 8 -3 15 -1 15 4 0 6 -7 10 -15 10 -8 0
-15 -2 -15 -4z"/>
<path d="M2494 684 c3 -9 6 -20 6 -25 0 -5 7 -9 15 -9 18 0 18 5 5 31 -13 23
-35 26 -26 3z"/>
<path d="M1540 635 c0 -8 10 -20 23 -25 20 -8 21 -9 2 -10 -15 -1 -12 -4 10
-11 46 -13 48 3 4 34 -31 22 -39 25 -39 12z"/>
<path d="M2587 630 c-23 -18 -27 -19 -41 -4 -9 8 -16 11 -16 5 0 -6 10 -15 21
-22 18 -9 25 -7 48 15 30 31 24 34 -12 6z"/>
<path d="M2420 621 c0 -25 6 -27 13 -6 4 8 2 17 -3 20 -6 4 -10 -3 -10 -14z"/>
<path d="M2845 620 c-4 -6 -12 -7 -18 -3 -9 5 -9 3 0 -8 9 -11 10 -18 2 -26
-12 -12 -40 -6 -51 11 -4 6 -10 7 -14 3 -4 -4 5 -16 20 -28 15 -12 25 -26 23
-33 -4 -13 16 -36 32 -36 6 0 11 6 11 13 0 9 3 8 9 -2 11 -18 3 -46 -20 -67
-17 -15 -19 -15 -35 1 -11 11 -25 14 -41 10 -21 -5 -26 -1 -40 35 -9 22 -20
40 -25 40 -11 0 -10 -17 1 -24 5 -4 12 -23 16 -44 6 -37 7 -37 44 -34 21 2 42
-1 45 -7 11 -18 39 -12 69 14 41 37 36 70 -15 92 -37 17 -36 46 5 77 29 23 30
26 10 26 -12 0 -25 -5 -28 -10z"/>
<path d="M1425 587 c-11 -26 10 -67 35 -67 11 0 20 3 20 6 0 9 -30 36 -31 27
-1 -4 -5 6 -9 22 -6 25 -8 27 -15 12z"/>
<path d="M2451 582 c-19 -9 -37 -23 -39 -30 -3 -10 3 -9 22 3 19 12 37 16 63
12 l36 -6 -21 19 c-12 11 -22 20 -24 20 -2 -1 -18 -9 -37 -18z"/>
<path d="M2634 588 c3 -7 9 -21 12 -30 4 -10 10 -18 15 -18 15 0 10 27 -7 44
-19 19 -28 21 -20 4z"/>
<path d="M2344 577 c4 -14 1 -16 -19 -11 -15 4 -25 2 -25 -5 0 -13 46 -15 54
-3 2 4 0 14 -6 22 -8 12 -9 12 -4 -3z"/>
<path d="M2375 570 c-3 -5 -1 -10 4 -10 6 0 11 5 11 10 0 6 -2 10 -4 10 -3 0
-8 -4 -11 -10z"/>
<path d="M2601 554 c-8 -10 -22 -13 -36 -10 -15 4 -25 1 -29 -10 -3 -8 -2 -13
3 -10 12 8 48 -21 38 -30 -4 -5 -12 -2 -17 6 -8 12 -10 10 -10 -8 0 -13 9 -37
20 -52 11 -16 23 -49 26 -74 4 -25 15 -53 25 -62 16 -15 25 -15 59 -5 56 17
64 38 37 92 -14 27 -30 45 -42 46 -18 3 -18 2 3 -9 30 -15 28 -24 -8 -37 -37
-12 -62 -5 -58 18 1 9 0 21 -3 26 -11 18 -20 85 -11 85 4 0 14 -6 21 -12 11
-11 12 -10 5 2 -4 8 -7 25 -5 38 3 26 1 27 -18 6z m97 -199 c-2 -20 -8 -25
-31 -25 -16 0 -26 4 -22 10 3 6 0 10 -7 11 -10 0 27 18 59 28 2 1 2 -10 1 -24z"/>
<path d="M2040 520 c-7 -17 -12 -51 -12 -77 1 -29 -5 -55 -17 -72 -10 -14 -21
-35 -25 -46 -5 -15 -1 -14 17 8 21 23 26 25 37 12 9 -10 17 -12 30 -5 13 7 23
3 45 -21 l27 -31 -31 -29 c-17 -15 -31 -24 -31 -18 0 5 -7 9 -15 9 -8 0 -20 9
-27 19 -8 14 -18 17 -32 12 -31 -11 -61 -8 -59 6 1 6 -4 14 -12 17 -21 8 -19
-24 3 -40 16 -12 15 -13 -6 -14 -12 0 -25 7 -29 16 -7 20 9 48 28 50 40 3 42
4 30 18 -9 11 -19 9 -56 -8 -35 -17 -44 -26 -45 -47 0 -31 33 -69 61 -69 29 0
59 18 59 35 0 25 45 18 58 -9 17 -38 103 -45 117 -9 8 23 -3 29 -25 15 -11 -7
-20 -8 -20 -4 0 5 10 13 23 19 20 9 22 17 22 77 0 62 -6 79 -20 56 -10 -16
-51 -11 -68 8 -22 24 -23 110 -3 118 8 3 12 12 9 20 -8 22 -19 17 -33 -16z
m28 -158 c3 -9 -2 -13 -14 -10 -9 1 -19 9 -22 16 -3 9 2 13 14 10 9 -1 19 -9
22 -16z"/>
<path d="M2368 538 c16 -21 8 -63 -12 -60 -9 2 -17 -2 -17 -8 -1 -5 -3 -14 -4
-20 -1 -5 -3 -21 -4 -34 -2 -44 -103 -75 -131 -41 -10 12 -10 21 -2 40 7 14
16 25 22 25 7 0 9 8 5 20 -4 11 -2 20 4 20 6 0 13 -11 17 -25 5 -22 11 -25 40
-23 42 3 47 28 5 28 -29 0 -60 25 -47 37 4 4 22 6 41 5 18 -2 36 1 40 7 3 7 0
8 -9 5 -9 -3 -28 -2 -44 4 -35 12 -71 -13 -75 -55 -2 -15 -9 -40 -15 -55 -8
-20 -8 -36 -1 -55 10 -27 3 -83 -10 -83 -10 0 -1 -62 11 -77 6 -7 30 -13 54
-13 32 0 46 5 57 21 12 17 19 19 35 10 31 -17 41 -14 73 20 26 28 29 29 29 10
0 -18 6 -21 43 -21 60 0 86 28 70 71 -9 23 -9 36 -1 48 15 24 2 84 -21 105
-15 14 -24 15 -40 7 -44 -24 -119 1 -94 30 15 19 5 69 -14 69 -11 0 -13 -4 -5
-12z m13 -90 c1 -7 0 -30 -1 -51 -1 -26 4 -43 18 -55 22 -19 38 -72 22 -72 -6
0 -18 16 -27 36 -14 27 -22 34 -38 30 -11 -3 -30 -6 -42 -6 -17 0 -23 -6 -23
-21 0 -11 5 -17 10 -14 6 3 10 2 10 -4 0 -6 8 -7 22 -2 18 7 25 3 35 -17 16
-30 15 -31 -25 -36 -36 -5 -60 23 -69 80 -5 30 -3 34 16 34 12 0 24 7 27 15 4
9 14 14 23 13 13 -2 16 5 15 40 0 29 4 42 13 42 7 0 13 -6 14 -12z m42 -64
c-1 -21 1 -31 3 -21 3 9 21 24 41 32 44 19 57 19 50 1 -3 -7 0 -19 6 -25 8 -8
6 -11 -8 -12 -30 -1 -56 -7 -63 -13 -3 -4 10 -4 30 -1 31 5 36 3 34 -12 -3
-22 -46 -29 -76 -13 -19 10 -50 69 -50 95 0 7 8 12 18 11 13 -3 17 -12 15 -42z
m-171 -56 c-8 -8 -17 -8 -34 0 -22 10 -21 11 12 11 26 1 31 -2 22 -11z m5 -41
c35 -38 33 -60 -7 -73 -39 -14 -53 -6 -65 35 -5 17 -4 21 5 16 12 -8 41 25 34
37 -11 17 12 6 33 -15z m251 -16 c4 -12 -37 -31 -54 -24 -7 2 -10 13 -7 23 5
21 54 22 61 1z"/>
<path d="M2212 260 c-7 -11 -9 -20 -4 -20 4 0 13 9 20 20 7 11 9 20 4 20 -4 0
-13 -9 -20 -20z"/>
<path d="M2725 540 c3 -5 8 -10 11 -10 2 0 4 5 4 10 0 6 -5 10 -11 10 -5 0 -7
-4 -4 -10z"/>
<path d="M2880 540 c0 -5 5 -10 11 -10 5 0 7 5 4 10 -3 6 -8 10 -11 10 -2 0
-4 -4 -4 -10z"/>
<path d="M2405 520 c-4 -6 5 -10 20 -10 15 0 24 4 20 10 -3 6 -12 10 -20 10
-8 0 -17 -4 -20 -10z"/>
<path d="M2470 510 c0 -5 11 -10 25 -10 19 0 23 -4 18 -17 -5 -14 -3 -16 7 -6
19 17 4 43 -25 43 -14 0 -25 -4 -25 -10z"/>
<path d="M2737 499 c7 -27 23 -34 23 -11 0 11 -6 22 -14 25 -10 4 -12 0 -9
-14z"/>
<path d="M1920 501 c0 -5 9 -7 20 -4 11 3 20 7 20 9 0 2 -9 4 -20 4 -11 0 -20
-4 -20 -9z"/>
<path d="M2631 493 c-18 -19 -9 -26 14 -9 10 7 14 15 9 18 -5 3 -15 -1 -23 -9z"/>
<path d="M2660 459 c0 -5 5 -7 10 -4 6 3 10 8 10 11 0 2 -4 4 -10 4 -5 0 -10
-5 -10 -11z"/>
<path d="M1641 428 c-5 -13 -5 -27 0 -32 5 -6 9 -17 9 -26 0 -25 38 -60 65
-60 40 0 65 33 65 85 0 39 -3 45 -25 51 -14 3 -32 3 -41 0 -14 -5 -14 -9 -3
-23 8 -9 13 -18 11 -20 -2 -3 -2 -7 1 -9 2 -3 7 4 10 16 3 11 1 18 -4 14 -5
-3 -9 0 -9 5 0 17 30 13 37 -5 7 -18 -26 -84 -42 -84 -14 0 -55 55 -55 73 0 7
5 18 12 25 9 9 8 12 -5 12 -10 0 -22 -10 -26 -22z"/>
<path d="M1680 411 c0 -17 18 -21 24 -6 3 9 0 15 -9 15 -8 0 -15 -4 -15 -9z"/>
<path d="M1878 395 c13 -9 26 -14 29 -11 8 8 3 12 -27 21 l-25 7 23 -17z"/>
<path d="M1835 331 c-3 -5 -1 -12 5 -16 12 -7 30 2 30 16 0 12 -27 12 -35 0z"/>
</g>
</svg>
