<?xml version="1.0" encoding="UTF-8"?>
<svg version="1.1" xmlns="http://www.w3.org/2000/svg" width="234" height="242">
<path d="M0 0 C3.39283719 2.44284278 4.83574917 5.31772733 5.8125 9.375 C5.874375 10.24125 5.93625 11.1075 6 12 C7.155 12.12375 8.31 12.2475 9.5 12.375 C13.78350375 12.90278885 17.83352672 13.88398037 22 15 C22.226875 14.2575 22.45375 13.515 22.6875 12.75 C24.52092678 8.90853437 27.22976824 6.88511588 31 5 C36.06793316 4.44398575 39.92187191 4.44168367 44.5 6.8125 C47 9 47 9 49 12 C49 12.99 49 13.98 49 15 C49.90363281 14.7834375 50.80726563 14.566875 51.73828125 14.34375 C52.91777344 14.0653125 54.09726563 13.786875 55.3125 13.5 C57.07013672 13.08234375 57.07013672 13.08234375 58.86328125 12.65625 C62 12 62 12 65 12 C64.896875 11.13375 64.79375 10.2675 64.6875 9.375 C65.121089 4.69223883 66.70193354 3.29806646 70 0 C74.80864914 -1.60288305 79.17071411 -1.77236515 83.8125 0.1875 C86.39099697 2.32396891 87.66870854 3.91700925 89 7 C89.39270927 11.47688569 89.02651616 14.08206876 87 18 C87.4779365 21.48744287 89.05434502 23.78604805 91.0625 26.625 C94 30.78588235 94 30.78588235 94 33 C94.66 32.67 95.32 32.34 96 32 C100.98066973 31.45355962 104.8958307 31.45795325 109.4375 33.6875 C112.80435364 36.72588012 114.73218541 38.74589384 115.28125 43.3671875 C115.45907704 48.36116366 115.36558303 52.05414403 112 56 C107.64158282 59.82690289 105.06964039 61.36031815 99.1640625 61.28515625 C94.65712145 60.69128135 91.1303571 58.4239901 88.30078125 54.859375 C87.65689453 53.93898438 87.65689453 53.93898438 87 53 C86.39414063 53.12117188 85.78828125 53.24234375 85.1640625 53.3671875 C79.109375 54.578125 73.0546875 55.7890625 67 57 C66.938125 57.9075 66.87625 58.815 66.8125 59.75 C66 63 66 63 63.875 65.375 C60.22288977 67.43923622 58.1401013 67.59144304 54 67 C50.23853291 64.95572441 49.22120603 63.74657034 48 59.625 C48 56 48 56 49.76953125 53.296875 C51.28958498 50.23859466 51.28958498 50.23859466 50.40380859 48.01904297 C49.26864956 45.80571388 48.02448381 43.72245261 46.6875 41.625 C46.02331055 40.52091797 46.02331055 40.52091797 45.34570312 39.39453125 C44.25187815 37.58325119 43.12869557 35.78975832 42 34 C41.31292969 34.01160156 40.62585938 34.02320313 39.91796875 34.03515625 C39.01691406 34.04417969 38.11585938 34.05320313 37.1875 34.0625 C35.84751953 34.07990234 35.84751953 34.07990234 34.48046875 34.09765625 C32 34 32 34 29 33 C28.690625 34.175625 28.690625 34.175625 28.375 35.375 C26.80292624 39.51955809 24.61556051 42.87201451 22.14453125 46.53515625 C20.74287855 49.55373255 21.0483019 50.86711274 22 54 C22.88305345 57.5322138 23.29557416 59.29390617 21.875 62.6875 C19.74542174 65.31397985 18.11047907 66.66693754 15 68 C10.63399959 67.89084999 8.00430287 66.08775573 5 63 C4.359375 59.85546875 4.359375 59.85546875 4 57 C2.80761719 56.72285156 1.61523438 56.44570312 0.38671875 56.16015625 C-1.17970477 55.79434477 -2.74611007 55.42845529 -4.3125 55.0625 C-5.49102539 54.78889648 -5.49102539 54.78889648 -6.69335938 54.50976562 C-7.45068359 54.33251953 -8.20800781 54.15527344 -8.98828125 53.97265625 C-9.68477783 53.81031494 -10.38127441 53.64797363 -11.09887695 53.48071289 C-12.7534406 53.06234435 -14.38094108 52.53968631 -16 52 C-16.20625 52.556875 -16.4125 53.11375 -16.625 53.6875 C-18.54084039 56.90959519 -21.08657415 58.64504586 -24 61 C-23.45859375 62.80597656 -23.45859375 62.80597656 -22.90625 64.6484375 C-22.4373576 66.22391596 -21.96861537 67.79943912 -21.5 69.375 C-21.26152344 70.1690625 -21.02304688 70.963125 -20.77734375 71.78125 C-20.43896484 72.92207031 -20.43896484 72.92207031 -20.09375 74.0859375 C-19.88427734 74.7876709 -19.67480469 75.4894043 -19.45898438 76.21240234 C-19 78 -19 78 -19 80 C-18.0925 80.0825 -17.185 80.165 -16.25 80.25 C-12.4895972 81.11778526 -11.25796233 81.90575532 -9 85 C-8.03125989 88.25219893 -7.86794905 90.36908992 -8.5625 93.6875 C-10.58306458 96.93797345 -12.396307 97.77610426 -16 99 C-19.14582356 98.78304665 -21.84698396 98.48830613 -24.76171875 97.25390625 C-29.8974219 96.67132212 -35.6017594 100.6494244 -39.64306641 103.63037109 C-41.96785459 105.97690972 -42.14340832 108.29947891 -42.375 111.5 C-42.25125 113.315 -42.1275 115.13 -42 117 C-36.39 120.3 -30.78 123.6 -25 127 C-24.01 126.34 -23.02 125.68 -22 125 C-18.27146796 124.27384395 -14.58683908 124.02788236 -11.265625 126.0625 C-9.24840295 128.1477183 -8.07234406 130.16489786 -7.8203125 133.07421875 C-8.06595693 135.96321084 -8.66495945 138.42298572 -10.125 140.9375 C-12.95758503 142.54263152 -15.79688421 142.69781926 -19 143 C-19.18175781 143.85271484 -19.18175781 143.85271484 -19.3671875 144.72265625 C-20.17978837 148.46687102 -21.03974874 152.13470407 -22.125 155.8125 C-23.17647799 159.09198127 -23.17647799 159.09198127 -23 163 C-22.13375 163.3403125 -22.13375 163.3403125 -21.25 163.6875 C-18.4376721 165.32802461 -16.97029539 167.43778814 -15 170 C-14.19780029 169.77280273 -14.19780029 169.77280273 -13.37939453 169.54101562 C-10.96201257 168.85799095 -8.54352943 168.17894984 -6.125 167.5 C-5.28324219 167.26152344 -4.44148438 167.02304688 -3.57421875 166.77734375 C-2.76855469 166.55175781 -1.96289062 166.32617188 -1.1328125 166.09375 C-0.38918457 165.88427734 0.35444336 165.67480469 1.12060547 165.45898438 C3 165 3 165 5 165 C5.0825 164.071875 5.165 163.14375 5.25 162.1875 C6 159 6 159 7.5625 157.125 C11.06476581 155.50856963 14.26541263 155.22350164 18 156 C21 158.0625 21 158.0625 23 161 C23.53603554 165.44143734 23.50031654 167.24952518 21 171 C21.55437175 175.21176506 23.94321058 178.64830606 26.0625 182.25 C26.43955078 182.8996875 26.81660156 183.549375 27.20507812 184.21875 C28.13234115 185.81505091 29.06558456 187.40787529 30 189 C33.96 189 37.92 189 42 189 C43.56464388 186.44921084 45.1010896 183.88746037 46.625 181.3125 C47.07101563 180.59126953 47.51703125 179.87003906 47.9765625 179.12695312 C50.60397384 174.92622662 50.60397384 174.92622662 50.296875 170.19921875 C49.86890625 169.47347656 49.4409375 168.74773437 49 168 C48.5649361 163.93940363 48.6012553 161.73369025 50.5625 158.125 C53.76400206 155.33394692 55.78105729 155 60 155 C62.75 156 62.75 156 65 158 C65.35191406 159.13566406 65.70382813 160.27132812 66.06640625 161.44140625 C67.05215234 163.85538889 67.60544453 164.78727009 69.92626953 166.03857422 C72.33221671 166.80996605 74.71791605 167.40461994 77.1875 167.9375 C78.03248047 168.14439453 78.87746094 168.35128906 79.74804688 168.56445312 C81.82582782 169.06922477 83.91225142 169.53818406 86 170 C86.77988281 169.21238281 87.55976563 168.42476562 88.36328125 167.61328125 C92.48847392 163.52475696 95.1692227 161.82367834 101 161.625 C105.14751287 161.7788395 107.83685076 162.11595216 111 165 C115.15433637 170.50168871 115.92757645 175.18231306 115 182 C113.44657534 186.20338438 110.93816445 188.19325418 106.97265625 190.28125 C102.61269796 191.86982886 98.3700345 191.45667817 94 190 C93.72414062 190.56203125 93.44828125 191.1240625 93.1640625 191.703125 C91.95631972 194.08618794 90.67823191 196.4179008 89.375 198.75 C88.70597656 199.94882812 88.70597656 199.94882812 88.0234375 201.171875 C87.68570313 201.77515625 87.34796875 202.3784375 87 203 C87.495 203.680625 87.99 204.36125 88.5 205.0625 C90.35871077 208.70247525 90.43343264 210.95462873 90 215 C88.0983726 219.54277658 85.41662206 221.87347827 81 224 C76.19059405 224.43259207 72.94383276 223.66854821 69 220.875 C66.65714713 217.507149 66.23869167 215.05775837 66 211 C64.865625 210.87625 63.73125 210.7525 62.5625 210.625 C57.96662215 210.05770917 53.50098751 209.07315212 49 208 C48.89429688 208.60457031 48.78859375 209.20914063 48.6796875 209.83203125 C47.57288034 213.36236443 44.89451365 214.8580599 42 217 C37.29477445 218.56840852 33.47351184 218.54895539 28.8125 216.8125 C25.78024609 214.85838081 23.9948207 212.99223105 22 210 C22 209.34 22 208.68 22 208 C17.05 208.99 12.1 209.98 7 211 C6.505 213.97 6.505 213.97 6 217 C4.24366662 219.91906279 2.08291639 222.4585418 -1 224 C-5.87353602 224.68229504 -9.13124331 224.50545844 -13.4375 222 C-16.45036605 218.47274218 -17.99123561 215.6889462 -18 211 C-17.16015625 209.12890625 -17.16015625 209.12890625 -16.125 207.25 C-15.12613013 205.30071208 -15.12613013 205.30071208 -15 203 C-16.8395326 198.22779403 -19.27358389 194.50755396 -23 191 C-25.81068063 190.27480149 -27.80654203 190.39744854 -30.671875 190.7578125 C-34.17966845 191.12271719 -36.15475786 189.96457195 -39 188 C-43.53463012 183.09769717 -44.23149584 179.59763147 -44 173 C-43.5 170.5625 -43.5 170.5625 -43 169 C-44.051875 168.62875 -44.051875 168.62875 -45.125 168.25 C-48 167 -48 167 -50.75 164.6875 C-53.71933471 162.69883769 -53.71933471 162.69883769 -56.06640625 163.48046875 C-57.58693747 164.08603684 -59.10644268 164.69418642 -60.625 165.3046875 C-64.69990639 166.49766996 -68.16832184 165.6739596 -72 164 C-75.69299671 160.8609528 -76.70817978 157.68971212 -77.1171875 153.00390625 C-76.934575 149.88123257 -75.63134564 147.61015302 -74 145 C-73.34 145 -72.68 145 -72 145 C-72 144.34 -72 143.68 -72 143 C-68.535 142.01 -68.535 142.01 -65 141 C-63.68 135.72 -62.36 130.44 -61 125 C-62.65 124.34 -64.3 123.68 -66 123 C-69.3933756 119.3238431 -70.86994873 116.72317933 -71.25 111.6875 C-70.88573987 106.3146631 -69.37994673 103.27897502 -65.4375 99.625 C-63 98 -63 98 -61 98 C-61.99 92.72 -62.98 87.44 -64 82 C-65.98 82 -67.96 82 -70 82 C-73.37940996 79.84946639 -75.81543238 77.87676675 -77 74 C-77.65243523 69.02518138 -77.59519416 66.14529601 -74.5625 62.0625 C-71.39988339 58.78746811 -68.59252365 57.97246338 -64.10546875 57.76953125 C-61.24379876 58.08277527 -59.39519408 59.46973712 -57 61 C-52.90083399 60.13701768 -49.8203834 57.53182408 -46.55078125 55.0234375 C-45 54 -45 54 -43 54 C-43.2475 53.2265625 -43.2475 53.2265625 -43.5 52.4375 C-44.71640518 46.50752476 -44.30043921 42.12137119 -41 37 C-38.73847644 34.95911288 -36.71850977 33.35925488 -34 32 C-32.27071518 32.18640715 -30.54156788 32.37409122 -28.8125 32.5625 C-25.00409219 32.62772965 -23.55330556 32.49732186 -20.68359375 29.91796875 C-17.06554544 25.32032914 -17.06554544 25.32032914 -16.25390625 19.80859375 C-17.00263294 17.90308081 -17.00263294 17.90308081 -18.1875 15.8125 C-19.40853821 11.58582927 -18.49463192 8.07973508 -17 4 C-12.69614313 -1.73847582 -6.56013586 -1.89437078 0 0 Z M5 15 C4.773125 15.78375 4.54625 16.5675 4.3125 17.375 C3 20 3 20 0.75390625 21.19921875 C-2.30667676 22.08917551 -4.24227288 21.86387404 -7.375 21.4375 C-10.25626149 21.23757815 -10.25626149 21.23757815 -13 22 C-16.30183602 25.19710332 -18.56595415 28.62704537 -20 33 C-19.15099528 36.21308417 -17.8530936 38.22035959 -16 41 C-15.46083854 43.6602023 -15.26629902 46.29262663 -15 49 C-12.44013121 49.84226 -9.87760985 50.67398551 -7.3125 51.5 C-6.59126953 51.73847656 -5.87003906 51.97695313 -5.12695312 52.22265625 C0.31964148 53.97627785 0.31964148 53.97627785 6 54 C6.61875 53.360625 7.2375 52.72125 7.875 52.0625 C10 50 10 50 13.328125 49.83203125 C17.24019393 48.94557308 17.56175849 48.82780103 19.6171875 45.7265625 C20.39432952 44.37317232 21.14644375 43.00515234 21.875 41.625 C22.26429687 40.93921875 22.65359375 40.2534375 23.0546875 39.546875 C24.6261142 36.74231484 25.98190767 34.054277 27 31 C26.401875 30.278125 25.80375 29.55625 25.1875 28.8125 C22.39525285 25.22246794 21.90012973 22.42563785 21 18 C19.08487728 17.49411853 17.16783078 16.99551609 15.25 16.5 C14.18265625 16.2215625 13.1153125 15.943125 12.015625 15.65625 C8.86294698 14.85824011 8.86294698 14.85824011 5 15 Z M55.75 16.5 C54.13351563 16.91765625 54.13351563 16.91765625 52.484375 17.34375 C51.66453125 17.5603125 50.8446875 17.776875 50 18 C49.90203125 18.59167969 49.8040625 19.18335938 49.703125 19.79296875 C49.55359375 20.58316406 49.4040625 21.37335937 49.25 22.1875 C49.11078125 22.96480469 48.9715625 23.74210937 48.828125 24.54296875 C47.79494353 27.60839869 46.11374875 29.58121841 44 32 C45.42967819 34.81973066 46.92633574 37.59820776 48.4375 40.375 C48.83904297 41.1690625 49.24058594 41.963125 49.65429688 42.78125 C52.08000661 47.27621935 52.08000661 47.27621935 56.28564453 49.87988281 C58.69036021 50.38556563 58.69036021 50.38556563 61.03149414 50.57275391 C63 51 63 51 65 54 C72.35012956 53.42351925 79.01424576 51.28953836 86 49 C86.09796875 48.41992188 86.1959375 47.83984375 86.296875 47.2421875 C86.44640625 46.46101563 86.5959375 45.67984375 86.75 44.875 C86.88921875 44.10929687 87.0284375 43.34359375 87.171875 42.5546875 C88.23526839 39.2742192 90.00749822 36.79436225 92 34 C88.21763686 26.21669725 88.21763686 26.21669725 81.7109375 21.30859375 C79.43360902 21.40507655 79.43360902 21.40507655 77.1796875 21.76171875 C73.44583013 22.16990029 71.21845928 20.83911959 68 19 C66.5625 16.8125 66.5625 16.8125 66 15 C62.20032431 15 59.39962363 15.54792427 55.75 16.5 Z M-54 64 C-54.7162009 66.81303006 -54.54217093 68.80251645 -54.16796875 71.6640625 C-54 74 -54 74 -55.8125 77.5 C-58 80 -58 80 -61 82 C-60.01 86.95 -59.02 91.9 -58 97 C-56.5975 97.2475 -55.195 97.495 -53.75 97.75 C-49.74517692 98.6203395 -47.56257698 99.65750829 -45 103 C-40.60616294 101.40376856 -36.71004193 99.21975667 -32.6875 96.875 C-32.04232422 96.50246094 -31.39714844 96.12992188 -30.73242188 95.74609375 C-29.15324055 94.83367787 -27.57638136 93.91724491 -26 93 C-26.04253906 92.06027344 -26.08507812 91.12054688 -26.12890625 90.15234375 C-26 87 -26 87 -23.9375 84.5625 C-21.63606839 82.1076961 -21.63606839 82.1076961 -22.25 78.8046875 C-23.0039198 74.98011519 -23.95889829 71.3005058 -25.0625 67.5625 C-25.60583984 65.70818359 -25.60583984 65.70818359 -26.16015625 63.81640625 C-26.43730469 62.88699219 -26.71445313 61.95757812 -27 61 C-27.60328125 60.89042969 -28.2065625 60.78085938 -28.828125 60.66796875 C-33.28734977 59.78331609 -36.50866931 59.072371 -40 56 C-45.15586335 56 -50.40590952 60.63393338 -54 64 Z M-45 120 C-45.33 120.99 -45.66 121.98 -46 123 C-48.72265625 123.94921875 -48.72265625 123.94921875 -52.0625 124.6875 C-53.16722656 124.93886719 -54.27195312 125.19023437 -55.41015625 125.44921875 C-56.69212891 125.72185547 -56.69212891 125.72185547 -58 126 C-58.50404808 128.10320063 -59.00310508 130.20759791 -59.5 132.3125 C-59.7784375 133.48425781 -60.056875 134.65601563 -60.34375 135.86328125 C-61.10239084 138.95529844 -61.10239084 138.95529844 -61 142 C-58.38148757 144.42713759 -58.38148757 144.42713759 -55 145 C-54.66048381 146.56116819 -54.32867456 148.12401338 -54 149.6875 C-53.814375 150.55761719 -53.62875 151.42773438 -53.4375 152.32421875 C-53 155 -53 155 -53.234375 157.58984375 C-53.23805045 160.19518266 -53.23805045 160.19518266 -50.953125 162.0546875 C-50.06109375 162.65539062 -49.1690625 163.25609375 -48.25 163.875 C-46.92742188 164.79925781 -46.92742188 164.79925781 -45.578125 165.7421875 C-43.14727951 167.20628973 -43.14727951 167.20628973 -40.81640625 166.7890625 C-38.85555476 165.99657738 -38.85555476 165.99657738 -36.6875 164.5 C-33.45443521 162.69549872 -30.64857484 162.44484383 -27 162 C-26.13161176 159.27464312 -25.28007381 156.54583627 -24.4375 153.8125 C-24.0672168 152.65911133 -24.0672168 152.65911133 -23.68945312 151.48242188 C-22.41889501 147.31284385 -21.56399133 144.29082831 -23 140 C-23.66 140 -24.32 140 -25 140 C-24.81244141 139.09121094 -24.81244141 139.09121094 -24.62109375 138.1640625 C-24.37931941 134.8203748 -24.56908033 133.07814114 -26 130 C-30.53775055 126.07816223 -38.82992233 120 -45 120 Z M-7.3125 170.9375 C-8.54613281 171.29714844 -9.77976562 171.65679687 -11.05078125 172.02734375 C-13.85785956 172.70784038 -13.85785956 172.70784038 -15 174 C-15.49478625 176.50991571 -15.89966611 179.02882686 -16.3046875 181.5546875 C-17 184 -17 184 -18.6328125 185.5078125 C-19.08398438 186.00023437 -19.53515625 186.49265625 -20 187 C-19.73054824 191.98894017 -17.20241148 195.3858479 -14.16796875 199.18359375 C-11.5267059 201.39654371 -10.27232264 201.50195526 -6.875 201.375 C-6.02550781 201.29507813 -5.17601563 201.21515625 -4.30078125 201.1328125 C-1.05864899 200.94566055 0.56057289 201.93018306 3 204 C4.01866197 205.31913061 5.021538 206.65078175 6 208 C7.93798521 207.69052329 9.87537426 207.37731166 11.8125 207.0625 C12.89144531 206.88847656 13.97039062 206.71445313 15.08203125 206.53515625 C18.04933356 206.06128079 18.04933356 206.06128079 21 205 C21.91849826 202.76763884 21.91849826 202.76763884 22.5 200.125 C23.38621162 196.50630255 24.11282891 194.42201575 27 192 C23.18372897 181.40408317 23.18372897 181.40408317 15.64453125 173.66015625 C13.29754532 172.90337351 13.29754532 172.90337351 11.015625 172.52734375 C9 172 9 172 7.609375 170.44140625 C6.01665416 168.73489361 6.01665416 168.73489361 3.26953125 168.69140625 C-0.44171564 169.0416912 -3.7396215 169.87733225 -7.3125 170.9375 Z M63 171 C60 173 60 173 57.5 172.8828125 C54.91398373 172.72365138 54.91398373 172.72365138 53.375 174.6171875 C52.92125 175.36226562 52.4675 176.10734375 52 176.875 C51.50242188 177.68582031 51.00484375 178.49664062 50.4921875 179.33203125 C48.17151551 183.48129556 46.02840678 187.70085465 44 192 C44.66 192 45.32 192 46 192 C47.16196356 194.10785951 47.97687833 195.87871634 48.4296875 198.25390625 C48.94480651 200.92439164 49.48286472 202.726446 51 205 C55.47757513 207.11351825 60.31113144 208.34710007 65.26953125 207.70703125 C67.28125556 207.06393024 67.28125556 207.06393024 68.75 204.5625 C71.7075175 201.19421619 74.58178201 200.34555895 79 200 C80.65 200.33 82.3 200.66 84 201 C86.64 197.04 89.28 193.08 92 189 C90.68 187.02 89.36 185.04 88 183 C87.48828125 180.55078125 87.48828125 180.55078125 87.3125 178.3125 C86.97251667 175.98965197 86.97251667 175.98965197 86 174 C83.16188167 172.25882311 80.23264267 171.67710759 77 171 C75.9275 170.608125 74.855 170.21625 73.75 169.8125 C69.13857021 168.45003211 67.10008926 168.26660716 63 171 Z " fill="#03324B" transform="translate(103,8)"/>
<path d="M0 0 C2.9296875 2.64453125 2.9296875 2.64453125 5 5 C4.02042874 7.5173928 3.37750401 8.769888 1.0390625 10.1953125 C-15.7406426 16.65739958 -37.5252943 17.97999234 -54.3359375 10.51953125 C-57 9 -57 9 -59 7 C-58.82899546 4.3494296 -58.32210779 3.28951806 -56.33984375 1.5078125 C-41.65242628 -7.9568672 -15.53049779 -6.65865323 0 0 Z " fill="#003049" transform="translate(172,94)"/>
<path d="M0 0 C1.75 0.26953125 1.75 0.26953125 4 0.8125 C5.0828125 1.06966797 5.0828125 1.06966797 6.1875 1.33203125 C7.76287296 1.70618233 9.3363133 2.08985635 10.90063477 2.5078125 C17.26354668 4.10302342 23.39403877 4.38306901 29.9375 4.375 C31.56836548 4.37693359 31.56836548 4.37693359 33.23217773 4.37890625 C42.87863493 4.2541523 51.75290171 2.64540232 61 0 C61.66 1.32 62.32 2.64 63 4 C57.60189177 10.80631038 48.34605219 11.54421575 40.2421875 12.6484375 C28.3179736 13.94142455 10.07724869 13.5979256 0 6 C-1.125 3.3125 -1.125 3.3125 -1 1 C-0.67 0.67 -0.34 0.34 0 0 Z " fill="#003049" transform="translate(114,132)"/>
<path d="M0 0 C1.01835938 0.27714844 2.03671875 0.55429688 3.0859375 0.83984375 C22.89525945 6.00399435 41.28988353 6.14660597 61 0 C61.66 1.32 62.32 2.64 63 4 C59.88753884 7.61227244 57.24139342 8.8764496 52.6875 10.1875 C51.05361328 10.67283203 51.05361328 10.67283203 49.38671875 11.16796875 C35.62896966 14.54790019 17.31261666 14.99285187 4.2890625 8.6875 C2.0625 7.3125 2.0625 7.3125 -1 5 C-0.67 3.35 -0.34 1.7 0 0 Z " fill="#003049" transform="translate(114,108)"/>
<path d="M0 0 C5.80888207 1.51760104 11.41525053 2.86116812 17.4375 3.125 C18.18644531 3.16496094 18.93539062 3.20492187 19.70703125 3.24609375 C30.87129858 3.55270529 41.8045926 1.37997165 52.4375 -1.875 C53.0975 -0.555 53.7575 0.765 54.4375 2.125 C48.36349312 9.46442499 38.36407292 10.23534156 29.4375 11.125 C17.44611849 11.7889296 1.20211992 12.35791483 -8.5625 4.125 C-9.32421875 1.45703125 -9.32421875 1.45703125 -9.5625 -0.875 C-6.35166242 -2.48041879 -3.31018489 -0.90761924 0 0 Z " fill="#003049" transform="translate(122.5625,121.875)"/>
</svg>
