<?xml version="1.0" standalone="no"?>
<!DOCTYPE svg PUBLIC "-//W3C//DTD SVG 20010904//EN"
 "http://www.w3.org/TR/2001/REC-SVG-20010904/DTD/svg10.dtd">
<svg version="1.0" xmlns="http://www.w3.org/2000/svg"
 width="150" height="150"
 viewBox="0 0 300.000000 191.000000"
 preserveAspectRatio="xMidYMid meet">
<metadata>
Created by potrace 1.10, written by Peter Selinger 2001-2011
</metadata>
<g transform="translate(0.000000,191.000000) scale(0.100000,-0.100000)"
stroke="none">
<path d="M533 1638 c-25 -39 -36 -66 -38 -93 -2 -16 -6 -40 -10 -52 -5 -17 -3
-25 9 -29 22 -9 32 2 18 19 -9 10 -8 18 2 33 20 26 35 8 29 -33 -4 -24 -11
-33 -24 -33 -13 0 -19 -7 -19 -21 0 -11 5 -17 10 -14 6 4 8 10 5 15 -3 5 10 7
28 4 33 -4 34 -3 35 38 1 23 7 56 14 74 9 27 8 37 -8 65 -22 37 -38 46 -51 27z"/>
<path d="M645 1600 c-17 -33 -20 -76 -6 -85 5 -3 13 0 17 7 4 6 2 14 -4 16 -7
2 -12 10 -12 18 0 11 5 10 21 -5 18 -16 21 -28 16 -61 -3 -22 -1 -40 3 -40 5
0 10 -14 12 -32 3 -31 4 -31 21 -14 24 25 20 82 -6 80 -12 -1 -17 4 -15 15 3
11 13 15 31 14 20 -1 27 3 27 17 0 10 -4 22 -10 25 -5 3 -10 16 -10 29 0 52
-60 64 -85 16z"/>
<path d="M786 1605 c-14 -13 -26 -28 -26 -34 0 -25 14 -41 36 -41 16 0 24 -6
25 -17 0 -10 1 -36 2 -57 2 -37 27 -66 27 -32 0 16 11 20 39 17 7 -2 10 3 6 9
-3 6 -14 9 -23 8 -22 -4 -28 35 -7 52 8 7 15 21 15 32 0 18 -48 88 -61 88 -3
0 -18 -11 -33 -25z m67 -51 c-8 -20 -33 -17 -33 4 0 10 3 22 7 25 10 11 32
-13 26 -29z"/>
<path d="M906 1585 c-8 -33 1 -52 30 -59 13 -4 24 -13 24 -21 0 -18 -5 -18 60
1 59 17 70 12 70 -36 0 -20 -2 -22 -10 -10 -7 10 -12 12 -17 4 -5 -6 -17 -16
-28 -23 -18 -10 -16 -11 13 -6 28 6 32 4 32 -14 0 -12 6 -21 14 -21 14 0 25
29 26 65 0 13 13 26 35 37 33 16 35 16 44 0 6 -11 6 -24 -1 -36 -5 -10 -8 -26
-5 -37 5 -18 1 -19 -34 -14 -22 3 -39 2 -39 -3 0 -9 80 -23 89 -16 1 1 7 27
11 56 4 29 8 47 9 41 2 -20 51 -16 51 3 0 11 5 14 16 10 9 -3 19 -6 24 -6 12
0 22 -34 14 -54 -8 -20 -24 -11 -24 15 0 25 -16 24 -23 -2 -8 -28 2 -49 19
-42 8 3 14 0 14 -6 0 -6 -6 -12 -12 -12 -7 -1 9 -5 37 -10 30 -5 54 -4 59 1 7
7 0 10 -17 10 -24 0 -27 4 -27 33 0 21 8 41 20 52 11 10 20 14 20 9 0 -5 4 -3
9 5 7 11 11 10 20 -7 11 -20 -2 -42 -16 -28 -6 6 -32 -23 -33 -36 0 -5 5 -8
10 -8 6 0 10 7 10 16 0 8 5 12 10 9 6 -3 10 -19 10 -36 0 -16 4 -29 9 -29 11
0 21 25 21 55 0 12 9 42 20 66 18 41 18 45 3 57 -22 16 -33 15 -33 -3 0 -8 5
-15 11 -15 5 0 7 -4 4 -10 -11 -17 -22 -11 -35 20 -15 36 -20 37 -44 9 -18
-21 -18 -22 8 -15 19 5 26 3 26 -8 0 -9 -6 -13 -14 -10 -8 3 -17 1 -21 -5 -3
-6 -15 -11 -26 -11 -15 0 -18 5 -14 23 4 12 -1 30 -10 42 -14 18 -16 18 -28 4
-14 -19 -55 -18 -67 1 -7 11 -11 11 -24 1 -11 -9 -16 -10 -16 -2 0 6 -9 11
-20 11 -11 0 -20 -6 -20 -13 0 -23 -49 -62 -61 -50 -15 15 -3 33 24 34 15 0
17 3 7 6 -8 4 -23 16 -33 27 -13 15 -20 17 -23 9 -3 -7 -14 -13 -25 -13 -10 0
-19 -4 -19 -10 0 -5 5 -10 10 -10 6 0 10 -9 10 -20 0 -11 -4 -20 -10 -20 -5 0
-10 5 -10 10 0 6 -6 10 -14 10 -7 0 -16 13 -19 28 -5 25 -11 29 -40 30 -29 1
-36 -3 -41 -23z"/>
<path d="M1523 1550 c3 -12 3 -20 0 -17 -8 9 -53 -48 -53 -67 0 -13 7 -12 43
8 36 21 42 29 42 57 0 25 -5 35 -19 37 -15 3 -18 0 -13 -18z"/>
<path d="M1596 1544 c-9 -23 -8 -24 10 -17 14 5 15 3 4 -16 -6 -13 -17 -20
-25 -18 -7 3 -28 -12 -46 -34 -23 -28 -35 -35 -40 -27 -11 18 -25 1 -34 -39
-7 -36 6 -44 31 -18 9 8 12 15 8 15 -4 0 2 9 14 20 12 12 22 27 22 35 0 8 7
15 16 15 13 0 15 -6 10 -27 -13 -54 -12 -57 18 -60 22 -1 26 1 18 9 -19 19
-14 49 14 89 18 27 23 44 18 63 -7 29 -29 35 -38 10z"/>
<path d="M1656 1535 c-10 -27 -7 -60 7 -74 6 -8 7 -11 2 -8 -6 3 -19 -1 -30
-9 -18 -13 -18 -14 6 -15 13 0 18 -3 12 -6 -7 -2 -13 -11 -13 -19 0 -8 -5 -14
-12 -14 -9 0 -9 -3 -1 -11 17 -17 53 20 53 55 0 16 7 34 16 41 13 9 15 18 7
41 -11 33 -37 43 -47 19z"/>
<path d="M1726 1534 c-10 -26 -7 -46 5 -38 7 4 19 -3 29 -16 20 -26 50 -22 50
7 0 23 -9 35 -37 51 -30 16 -40 15 -47 -4z"/>
<path d="M1843 1538 c-6 -7 -13 -22 -15 -33 -2 -15 3 -19 22 -19 29 0 37 21
17 48 -11 15 -15 15 -24 4z"/>
<path d="M1901 1521 c-13 -24 -15 -131 -2 -131 14 0 28 23 36 58 5 25 3 32 -9
32 -9 0 -16 5 -16 10 0 6 7 10 15 10 19 0 19 14 1 29 -12 10 -17 8 -25 -8z"/>
<path d="M1967 1512 c-21 -23 -22 -46 -2 -62 23 -19 47 6 43 43 -4 37 -19 44
-41 19z"/>
<path d="M2031 1511 c-6 -11 -11 -27 -11 -35 0 -18 16 -21 25 -6 4 6 11 8 16
4 7 -4 9 5 7 22 -4 34 -23 42 -37 15z"/>
<path d="M2089 1513 c-1 -5 -2 -52 -3 -105 -1 -54 -5 -100 -8 -104 -4 -3 -23
-6 -42 -7 -26 -1 -36 -5 -36 -17 0 -25 -33 -50 -64 -50 -18 0 -29 -7 -35 -22
-14 -38 -47 -61 -76 -54 -18 5 -25 2 -25 -7 0 -8 -18 -26 -40 -41 -22 -15 -40
-21 -40 -14 0 6 -2 9 -5 6 -3 -3 -3 -12 1 -21 5 -14 12 -12 51 9 25 13 53 24
62 24 9 0 29 14 45 30 28 30 84 66 98 62 4 -1 20 12 36 28 19 19 36 27 49 24
13 -4 23 3 33 21 8 15 22 31 32 36 28 15 22 39 -9 39 -25 0 -25 1 -10 18 10
10 17 25 17 33 1 15 23 49 33 49 11 0 1 -114 -11 -137 -8 -14 -8 -24 -2 -28 5
-3 18 12 29 34 12 22 25 42 31 46 19 12 11 33 -10 28 -23 -6 -28 21 -7 34 27
16 30 83 5 83 -6 0 -21 -11 -34 -25 -26 -28 -54 -33 -54 -9 0 11 5 14 16 10
12 -5 15 -2 10 10 -3 8 -6 18 -6 20 0 7 -30 4 -31 -3z"/>
<path d="M617 1503 c-10 -9 -9 -41 1 -47 18 -11 28 9 17 31 -7 13 -15 20 -18
16z"/>
<path d="M940 1465 c0 -13 8 -29 18 -34 16 -10 15 -10 -3 -11 -11 -1 -14 -4
-7 -7 6 -2 12 -11 12 -19 0 -17 12 -18 28 -2 12 12 17 78 6 78 -4 0 -13 -8
-21 -17 -13 -17 -14 -16 -8 3 4 14 0 24 -10 28 -11 4 -15 -1 -15 -19z"/>
<path d="M2236 1465 c-3 -9 -6 -32 -6 -51 0 -19 -7 -48 -15 -64 -9 -17 -11
-31 -6 -35 10 -6 41 32 41 51 0 6 7 17 16 24 20 18 15 84 -7 88 -9 2 -19 -4
-23 -13z"/>
<path d="M427 1438 c-20 -42 -43 -133 -57 -227 -15 -103 -13 -427 4 -536 17
-116 44 -205 62 -212 23 -9 27 3 11 29 -27 41 -57 188 -67 327 -10 145 2 399
22 449 5 15 12 41 14 57 2 17 15 51 28 78 18 36 20 49 11 57 -9 8 -17 2 -28
-22z"/>
<path d="M1725 1461 c-11 -5 -21 -19 -22 -32 -1 -13 -5 -39 -9 -58 -5 -26 -4
-33 7 -29 8 3 16 13 17 24 2 10 9 24 17 29 15 12 31 75 18 74 -4 0 -17 -4 -28
-8z"/>
<path d="M1843 1462 c-18 -3 -23 -10 -24 -33 -1 -16 -2 -35 -3 -41 0 -7 -14
-15 -31 -18 -22 -4 -31 -11 -33 -29 -2 -14 -10 -35 -18 -47 -12 -17 -12 -24
-3 -30 8 -5 17 0 23 11 21 38 81 90 99 87 22 -4 22 -26 0 -63 -13 -21 -14 -32
-6 -40 8 -8 15 -4 26 17 8 16 24 38 36 48 31 29 26 41 -18 41 -51 0 -56 6 -36
45 20 39 16 56 -12 52z"/>
<path d="M1226 1419 c-9 -44 -8 -49 8 -49 11 0 26 40 26 71 0 24 -28 5 -34
-22z"/>
<path d="M2010 1446 c0 -3 5 -14 11 -24 8 -13 7 -27 -4 -54 -12 -29 -13 -37
-2 -41 12 -5 35 31 35 54 0 6 7 17 15 25 20 21 19 34 -4 34 -11 0 -26 3 -35 6
-9 3 -16 3 -16 0z"/>
<path d="M2311 1428 c-10 -23 -24 -91 -26 -116 0 -18 -27 -33 -47 -26 -12 3
-21 -5 -33 -30 -13 -27 -24 -36 -48 -38 -23 -2 -34 -11 -46 -35 -12 -25 -23
-33 -43 -33 -16 0 -40 -13 -60 -30 -30 -27 -31 -30 -11 -30 12 0 25 5 28 10 3
6 16 10 29 10 12 0 37 15 56 35 19 19 40 35 47 35 7 0 30 16 52 35 22 20 45
33 53 30 9 -4 20 4 28 20 8 14 19 24 26 21 7 -3 15 5 19 17 6 18 9 13 14 -23
4 -33 8 -40 14 -27 4 11 4 23 1 29 -3 5 2 16 12 23 16 12 17 16 5 24 -12 8
-12 13 2 35 22 32 22 66 1 66 -10 0 -14 -6 -10 -15 3 -8 1 -15 -4 -15 -5 0
-10 10 -12 22 -4 31 -35 35 -47 6z m48 -84 c1 -6 -11 -9 -30 -6 l-30 4 23 25
c21 22 23 23 29 6 4 -10 8 -23 8 -29z"/>
<path d="M1978 1412 c-21 -3 -28 -9 -28 -24 0 -12 -5 -36 -12 -55 -6 -18 -8
-36 -4 -40 5 -5 11 -3 13 4 2 6 18 32 34 57 17 25 29 49 27 53 -1 5 -15 7 -30
5z"/>
<path d="M581 1386 c-1 -10 -9 -25 -18 -32 -17 -12 -17 -12 2 -11 15 2 20 -4
19 -21 0 -12 3 -19 8 -14 4 4 4 28 -1 52 -5 25 -9 36 -10 26z"/>
<path d="M2428 1373 c-9 -10 -18 -31 -21 -48 -3 -16 -8 -40 -12 -52 -13 -40
11 -25 44 28 33 53 40 89 18 89 -8 0 -21 -8 -29 -17z"/>
<path d="M2484 1329 c-11 -12 -17 -32 -16 -51 2 -20 -5 -39 -19 -54 -11 -12
-18 -27 -14 -33 9 -15 25 -14 25 2 0 16 37 57 50 57 16 0 11 -20 -10 -47 -29
-37 -13 -44 17 -8 17 20 27 26 30 17 6 -16 66 44 60 61 -2 7 -17 13 -33 14
-16 1 -23 0 -16 -3 10 -5 10 -9 1 -20 -19 -23 -29 -16 -22 16 3 19 1 30 -6 30
-6 0 -11 9 -11 20 0 26 -12 25 -36 -1z m41 -28 c3 -6 -3 -15 -14 -20 -26 -14
-31 -14 -31 3 0 21 34 34 45 17z"/>
<path d="M425 1270 c-26 -42 -32 -525 -7 -605 8 -26 13 -30 43 -27 41 3 46 11
54 84 8 70 32 91 64 59 11 -11 23 -16 26 -11 10 16 42 11 50 -7 7 -17 8 -16
15 2 14 34 11 37 -32 35 -73 -3 -85 -1 -68 10 13 9 13 10 0 10 -9 0 -25 -6
-36 -14 -11 -8 -33 -16 -49 -18 -33 -4 -47 -28 -16 -28 19 0 21 -5 19 -46 -1
-47 -19 -67 -40 -46 -19 19 -27 114 -11 130 7 8 12 22 9 31 -2 9 -7 33 -11 53
l-6 37 616 1 c552 0 615 -1 615 -15 0 -9 4 -14 8 -11 7 4 9 49 3 89 -1 4 -11
7 -23 7 -21 -1 -21 -2 -5 -11 53 -31 3 -34 -605 -34 -391 0 -606 -3 -610 -10
-4 -5 -8 0 -8 13 0 12 5 22 11 22 7 0 8 11 4 29 -5 25 -3 30 16 33 12 2 25 10
27 18 5 13 3 13 -12 1 -15 -13 -19 -13 -27 0 -13 21 -11 26 16 33 14 4 25 10
25 15 0 5 -8 7 -19 4 -11 -3 -21 2 -24 11 -5 11 -1 16 13 16 10 0 22 5 25 11
4 6 0 9 -11 7 -15 -3 -18 5 -19 50 -1 39 2 51 12 48 10 -4 10 -1 0 14 -13 22
-23 25 -32 10z"/>
<path d="M1737 1228 c-26 -17 -46 -32 -44 -35 5 -4 95 43 112 58 22 21 -24 5
-68 -23z"/>
<path d="M582 1231 c-6 -12 -20 -20 -30 -19 -34 3 -53 -2 -47 -12 3 -5 17 -10
30 -10 13 0 27 -5 30 -10 4 -6 15 -8 25 -5 11 3 20 0 24 -10 3 -8 15 -15 26
-15 18 0 38 -8 80 -32 8 -4 22 -11 30 -14 8 -3 23 -10 32 -15 10 -5 23 -9 29
-9 6 0 17 -7 25 -15 9 -8 24 -15 35 -15 10 0 19 -4 19 -10 0 -5 11 -10 24 -10
13 0 26 -7 30 -15 6 -16 41 -21 50 -6 4 5 -2 7 -13 4 -11 -3 -24 3 -32 14 -8
10 -20 18 -26 19 -29 2 -33 5 -33 18 0 9 -7 12 -20 9 -13 -3 -22 1 -26 11 -4
11 -13 14 -25 11 -12 -4 -22 1 -30 13 -7 11 -20 17 -29 15 -9 -3 -23 2 -31 10
-8 7 -20 12 -28 9 -8 -3 -19 2 -26 11 -6 8 -21 17 -35 19 -17 2 -26 13 -34 41
-10 36 -12 37 -24 18z"/>
<path d="M660 1232 c0 -14 -9 -26 -22 -32 -22 -8 -22 -9 5 -9 15 -1 35 -5 45
-10 9 -5 31 -14 47 -21 17 -7 42 -19 58 -27 15 -8 31 -12 36 -9 5 3 11 -1 15
-9 3 -8 12 -15 21 -15 9 0 27 -7 40 -16 14 -9 25 -13 25 -9 0 3 7 -1 16 -9 8
-9 24 -16 35 -16 10 0 19 -4 19 -9 0 -14 32 -23 44 -11 7 7 3 10 -12 10 -13 0
-25 7 -28 15 -4 8 -15 15 -25 15 -11 0 -22 6 -25 14 -3 8 -13 12 -23 9 -9 -2
-23 3 -30 11 -8 9 -22 16 -33 16 -10 0 -21 6 -24 14 -3 9 -12 12 -21 9 -9 -4
-21 1 -29 11 -7 10 -17 15 -22 12 -15 -9 -42 4 -42 19 0 10 11 9 50 -5 28 -10
50 -16 50 -14 0 3 12 -1 28 -10 15 -8 45 -22 67 -31 22 -9 66 -30 97 -46 31
-16 64 -29 73 -29 8 0 15 -4 15 -9 0 -14 32 -23 44 -11 7 7 3 10 -12 10 -13 0
-25 7 -29 16 -3 8 -12 13 -19 10 -8 -3 -19 3 -26 13 -6 11 -19 16 -29 14 -11
-3 -21 1 -25 11 -3 9 -10 13 -15 10 -6 -3 -21 1 -34 10 -13 9 -31 16 -39 16
-8 0 -19 6 -23 13 -4 6 -17 12 -28 12 -12 0 -21 8 -23 20 -3 16 -1 18 9 8 7
-7 23 -13 35 -13 13 0 26 -5 29 -11 4 -6 13 -8 20 -5 8 3 19 -2 25 -10 7 -8
17 -14 22 -14 5 0 28 -9 50 -20 23 -11 48 -20 55 -20 7 0 13 -4 13 -8 0 -9 70
-42 88 -42 7 0 12 -4 12 -8 0 -12 78 -44 93 -39 6 3 2 6 -11 6 -12 1 -25 8
-28 16 -4 8 -15 15 -25 15 -11 0 -22 7 -25 15 -4 8 -11 12 -17 8 -5 -3 -15 0
-21 8 -6 8 -29 20 -51 28 -22 7 -48 20 -57 29 -10 8 -18 12 -18 7 0 -4 -11 0
-25 9 -13 9 -31 16 -40 16 -8 0 -15 5 -15 10 0 6 -9 10 -20 10 -11 0 -20 5
-20 10 0 6 2 10 4 10 5 0 68 -20 91 -29 57 -23 78 -32 165 -75 52 -25 101 -46
108 -46 6 0 12 -4 12 -8 0 -10 71 -42 91 -41 8 0 2 5 -13 11 -16 5 -28 14 -28
19 0 5 -9 9 -20 9 -11 0 -20 4 -20 9 0 5 -11 12 -25 15 -14 4 -25 11 -25 16 0
6 -8 10 -18 10 -10 0 -22 4 -28 8 -5 5 -25 15 -44 22 -19 7 -43 20 -52 28 -10
8 -18 12 -18 9 0 -3 -22 5 -50 19 -29 14 -50 32 -50 41 0 14 -3 14 -20 -2 -19
-17 -21 -17 -40 0 -17 15 -20 16 -20 3 0 -17 -26 -31 -41 -22 -5 3 -9 15 -9
27 -1 20 -2 21 -14 5 -17 -23 -42 -23 -54 -1 -9 14 -10 14 -16 -5 -9 -28 -46
-29 -53 -2 -5 17 -7 18 -17 7 -12 -16 -59 -30 -50 -16 3 5 0 17 -5 26 -9 16
-10 16 -11 -5z"/>
<path d="M1830 1217 c-25 -12 -61 -33 -79 -46 -27 -20 -35 -21 -43 -10 -8 11
-9 10 -4 -4 3 -10 6 -20 6 -23 0 -6 53 19 66 31 6 5 28 19 50 30 40 20 72 45
57 44 -4 0 -28 -10 -53 -22z"/>
<path d="M2055 1215 c-22 -13 -67 -40 -100 -60 -84 -50 -97 -58 -113 -72 -7
-7 -22 -13 -33 -13 -11 0 -17 -5 -14 -10 4 -6 -7 -15 -24 -21 -17 -6 -31 -15
-31 -21 0 -5 -4 -6 -10 -3 -5 3 -10 1 -10 -5 0 -14 52 -2 66 16 15 19 43 18
66 -3 16 -14 22 -14 43 -3 13 7 39 13 57 14 46 1 51 31 6 32 -18 1 -35 -1 -38
-5 -12 -15 -51 -30 -65 -25 -23 9 -18 33 9 40 14 3 27 12 30 20 3 8 14 14 25
14 10 0 21 7 25 15 3 8 10 15 15 15 8 0 131 79 150 96 14 13 -20 -1 -54 -21z"/>
<path d="M2285 1226 c-102 -63 -165 -104 -189 -124 -17 -13 -40 -28 -53 -33
-13 -5 -23 -13 -23 -19 0 -16 30 -12 36 5 4 8 12 15 19 15 6 0 20 9 30 20 10
11 22 20 27 20 8 0 20 9 53 38 7 6 16 12 19 12 4 0 24 13 47 29 22 17 46 32
52 34 7 2 10 7 7 10 -3 2 -14 -1 -25 -7z"/>
<path d="M2610 1225 c-9 -10 -9 -15 -1 -15 6 0 11 -4 11 -8 0 -10 -60 -32 -88
-32 -16 0 -22 -6 -22 -21 0 -11 4 -17 10 -14 6 3 7 -1 4 -9 -8 -21 6 -20 36 4
14 11 29 20 34 20 18 0 66 53 66 72 0 22 -32 24 -50 3z"/>
<path d="M1117 1213 c-14 -14 -21 -15 -36 -6 -18 11 -31 8 -31 -7 0 -4 15 -11
33 -15 17 -4 34 -9 37 -10 3 -1 14 -5 25 -9 11 -4 70 -32 130 -62 61 -30 115
-54 121 -54 7 0 14 -7 18 -15 3 -8 14 -15 25 -15 11 0 23 -4 26 -10 3 -5 16
-10 28 -9 19 0 19 2 -5 11 -16 5 -28 14 -28 19 0 5 -9 9 -20 9 -11 0 -20 5
-20 10 0 6 -9 10 -20 10 -11 0 -23 7 -26 15 -4 8 -10 13 -14 10 -5 -3 -15 2
-23 10 -9 8 -20 15 -26 15 -6 0 -19 4 -29 9 -9 5 -34 17 -54 25 -37 16 -55 33
-45 42 3 3 13 1 24 -4 10 -6 36 -18 58 -27 69 -29 189 -88 227 -112 21 -13 44
-23 53 -23 8 0 15 -4 15 -10 0 -5 10 -10 23 -9 l22 0 -22 9 c-13 5 -23 14 -23
20 0 5 -9 10 -20 10 -11 0 -20 5 -20 10 0 6 -9 10 -20 10 -11 0 -23 7 -26 15
-4 8 -10 13 -14 10 -5 -3 -15 2 -24 11 -9 8 -20 13 -25 9 -5 -3 -12 -1 -16 5
-6 9 -50 31 -87 44 -21 6 -24 25 -5 27 24 2 52 -3 63 -12 6 -5 13 -6 16 -3 3
3 21 -4 39 -15 19 -12 43 -25 54 -31 11 -6 34 -19 50 -30 17 -11 46 -26 65
-35 19 -9 44 -25 56 -36 16 -15 24 -17 29 -9 4 7 2 16 -5 20 -7 4 -9 16 -6 27
4 12 -1 27 -13 39 -12 14 -17 30 -14 47 4 20 1 27 -11 27 -9 0 -16 7 -16 15 0
18 -12 19 -29 3 -10 -11 -15 -10 -25 4 -11 15 -13 15 -24 -3 -16 -24 -32 -24
-39 0 -4 17 -8 18 -24 8 -16 -10 -22 -9 -29 3 -9 13 -12 13 -21 -2 -12 -22
-39 -24 -39 -3 0 18 -12 19 -29 3 -11 -11 -15 -10 -24 3 -9 15 -13 14 -32 -9
-25 -29 -46 -23 -37 11 l5 22 -22 -20 c-22 -19 -23 -19 -36 -2 -13 18 -14 18
-25 -2 -15 -29 -38 -26 -42 4 -3 25 -4 25 -21 8z m424 -73 c74 -35 117 -66
107 -75 -9 -9 -118 44 -118 57 0 5 -4 7 -9 3 -5 -3 -15 0 -23 7 -7 7 -20 14
-27 16 -8 2 -24 10 -35 19 -20 15 -20 15 10 10 17 -3 60 -20 95 -37z m48 19
c28 -13 40 -24 34 -30 -11 -11 -74 19 -81 39 -5 16 -3 15 47 -9z"/>
<path d="M2325 1193 c-14 -20 -20 -43 -12 -43 10 0 87 41 91 49 3 5 -10 11
-29 13 -28 3 -38 -1 -50 -19z"/>
<path d="M525 1170 c-3 -5 -11 -8 -16 -5 -5 4 -9 1 -9 -6 0 -6 8 -9 20 -6 10
3 25 -2 31 -9 7 -8 19 -13 28 -12 9 2 24 -5 34 -15 10 -10 25 -16 33 -13 8 3
14 1 14 -4 0 -5 12 -13 27 -16 15 -4 34 -14 42 -21 7 -8 19 -12 26 -9 8 3 16
-2 19 -10 3 -8 16 -14 30 -14 13 0 26 -7 30 -15 6 -17 42 -20 52 -4 4 7 0 9
-14 5 -15 -5 -25 -1 -33 12 -7 11 -19 18 -26 15 -15 -6 -45 15 -38 27 2 4 -7
5 -21 2 -20 -3 -26 0 -31 17 -4 16 -9 19 -19 11 -9 -9 -17 -7 -31 7 -11 11
-25 17 -31 15 -7 -2 -20 2 -28 9 -9 7 -25 14 -36 14 -12 1 -27 10 -34 19 -8
11 -14 13 -19 6z"/>
<path d="M2648 1159 c-10 -5 -18 -17 -18 -24 0 -14 -12 -20 -33 -16 -5 1 -6
-3 -3 -8 3 -5 -1 -12 -10 -15 -8 -3 -12 -2 -9 4 3 6 4 10 1 10 -3 0 -10 -10
-17 -21 -10 -19 -9 -21 8 -17 11 3 27 0 37 -7 20 -15 56 -8 56 9 0 8 -11 11
-31 8 -24 -3 -30 -1 -27 9 3 8 20 16 39 20 46 7 59 16 59 40 0 21 -24 25 -52
8z"/>
<path d="M2315 1110 c-37 -27 -72 -50 -76 -50 -5 0 -9 -4 -9 -10 0 -16 27 -12
34 5 3 8 12 15 20 15 7 0 16 7 20 15 3 8 12 15 20 15 7 0 16 6 19 14 3 8 19
17 36 21 17 4 31 11 31 16 0 20 -30 7 -95 -41z"/>
<path d="M2242 1135 c-4 -7 -18 -18 -31 -25 -16 -8 -20 -14 -12 -20 15 -8 90
15 109 34 12 11 8 14 -23 18 -21 2 -39 -1 -43 -7z"/>
<path d="M531 1131 c-1 -9 -9 -11 -27 -7 -17 5 -23 3 -19 -4 3 -5 17 -10 31
-10 13 0 24 -4 24 -9 0 -16 -29 -33 -45 -27 -9 3 -13 2 -10 -4 10 -16 55 -12
55 4 0 10 9 14 26 13 16 -1 29 4 32 13 3 12 2 12 -8 3 -16 -15 -40 -6 -50 21
-5 12 -9 15 -9 7z"/>
<path d="M2435 1120 c-3 -5 -20 -14 -38 -19 -30 -8 -30 -9 -7 -11 14 -1 30 -1
35 0 6 2 25 6 44 9 48 8 53 31 7 31 -19 0 -38 -4 -41 -10z"/>
<path d="M2683 1076 c-14 -24 -53 -37 -98 -35 -25 2 -47 0 -51 -4 -4 -4 -20
-7 -36 -7 -17 0 -27 -4 -23 -10 4 -6 32 -9 66 -6 63 4 80 -7 27 -18 -17 -3
-29 -9 -26 -12 8 -7 128 18 128 28 0 4 -14 5 -32 1 -22 -4 -29 -3 -24 5 4 7
24 12 45 12 45 0 77 20 68 44 -8 19 -33 21 -44 2z"/>
<path d="M592 1059 c-7 -11 -19 -15 -31 -12 -13 3 -23 -2 -30 -16 -8 -14 -8
-21 -1 -21 5 0 10 5 10 10 0 6 11 10 25 10 14 0 28 7 32 16 3 8 12 13 19 10
15 -6 44 2 44 13 0 15 -58 7 -68 -10z"/>
<path d="M2115 1047 c-51 -27 -49 -26 -43 -32 3 -3 26 0 52 7 41 11 47 10 59
-6 11 -16 16 -16 23 -5 15 24 12 49 -7 49 -9 0 -23 2 -31 4 -7 2 -31 -5 -53
-17z"/>
<path d="M2354 1058 c-3 -4 -23 -13 -44 -19 -49 -15 -43 -30 7 -18 54 12 63
11 63 -8 0 -12 3 -14 8 -7 4 6 23 22 42 35 l35 24 -53 0 c-30 0 -56 -3 -58 -7z"/>
<path d="M1804 993 c5 -9 0 -13 -13 -13 -12 0 -21 -6 -21 -14 0 -17 -38 -28
-43 -12 -2 6 -8 7 -13 3 -11 -10 15 -27 32 -20 7 2 22 -5 33 -16 12 -12 27
-21 34 -21 7 0 20 -9 30 -20 9 -11 24 -20 32 -20 8 0 15 -5 15 -10 0 -6 10
-15 23 -20 33 -15 61 -33 70 -47 4 -7 13 -13 19 -13 5 0 27 -13 48 -30 21 -16
41 -30 46 -30 4 0 15 -6 23 -14 34 -31 130 -76 146 -69 16 6 16 4 0 -15 -10
-11 -24 -18 -31 -15 -23 8 -16 -12 11 -35 l25 -22 -6 24 c-9 38 5 51 27 27 11
-12 25 -21 31 -21 6 0 21 -12 35 -26 24 -26 43 -28 51 -6 2 7 -6 12 -17 12
-11 0 -26 9 -33 20 -7 11 -21 20 -31 20 -10 0 -25 13 -35 29 -10 18 -28 32
-44 35 -16 3 -31 14 -35 23 -9 24 -29 43 -44 43 -7 0 -28 14 -46 32 -26 25
-30 35 -22 50 9 17 8 18 -9 7 -15 -10 -27 -7 -65 16 -26 15 -47 22 -47 16 0
-5 12 -16 27 -23 14 -7 28 -19 31 -25 5 -17 -23 -16 -40 0 -7 8 -24 19 -36 26
-12 7 -20 16 -17 22 4 5 -2 9 -13 9 -10 0 -29 9 -42 20 -13 11 -29 20 -37 20
-9 0 -12 6 -9 18 5 13 -1 17 -24 18 -36 1 -48 10 -33 25 7 7 25 6 56 -3 26 -6
49 -9 53 -5 11 11 -23 37 -48 37 -13 0 -30 6 -37 13 -11 10 -13 10 -7 0z m291
-231 c12 -9 24 -25 28 -35 3 -9 20 -20 37 -23 31 -7 47 -20 36 -31 -7 -7 -76
28 -76 39 0 3 -9 10 -20 13 -11 4 -18 10 -15 15 3 5 -5 10 -17 12 -12 2 -23 9
-26 16 -6 18 30 14 53 -6z"/>
<path d="M1906 985 c4 -8 15 -15 25 -15 11 0 22 -7 25 -15 7 -18 35 -20 52 -3
9 9 21 8 51 -2 21 -7 44 -10 49 -6 16 10 3 36 -14 29 -8 -3 -25 2 -39 11 -13
9 -30 16 -37 15 -7 0 -4 -4 7 -9 18 -8 17 -9 -7 -9 -14 -1 -28 -6 -30 -13 -3
-7 -12 -9 -22 -5 -11 4 -16 13 -12 22 4 11 -2 15 -24 15 -22 0 -28 -4 -24 -15z"/>
<path d="M2120 990 c0 -6 11 -15 25 -20 14 -5 25 -14 25 -20 0 -13 37 -13 45
0 8 13 41 13 64 -2 15 -9 25 -6 56 18 20 15 32 30 26 32 -7 2 -21 -4 -32 -14
-20 -18 -22 -18 -51 -1 -16 9 -37 17 -46 16 -10 -1 -7 -4 8 -9 l25 -8 -25 -1
c-15 -1 -31 -6 -37 -12 -16 -16 -44 -4 -37 16 5 11 -1 15 -20 15 -14 0 -26 -5
-26 -10z"/>
<path d="M2680 979 c0 -6 -16 -10 -37 -9 -77 4 -103 0 -103 -14 0 -10 21 -13
95 -12 99 2 111 6 102 31 -7 17 -57 21 -57 4z"/>
<path d="M2388 966 c-10 -7 -18 -16 -18 -20 0 -9 35 -8 44 2 4 4 28 7 53 7 68
0 63 20 -5 22 -36 2 -64 -2 -74 -11z"/>
<path d="M2010 919 c0 -5 11 -14 25 -19 14 -5 25 -14 25 -20 0 -5 5 -10 11
-10 7 0 31 -16 55 -35 23 -19 45 -35 49 -35 3 0 12 -6 19 -12 8 -7 24 -20 36
-28 12 -8 40 -27 61 -42 21 -16 46 -28 54 -28 9 0 20 -17 27 -45 7 -26 18 -45
26 -45 12 0 11 5 -3 26 -9 14 -14 32 -11 40 4 10 -5 20 -27 29 -17 7 -41 22
-52 32 -11 10 -39 31 -62 47 -24 16 -40 32 -38 37 3 4 -7 9 -22 11 -16 2 -27
9 -26 15 2 7 -10 16 -27 20 -23 6 -27 11 -20 23 8 13 14 13 44 -4 33 -17 66
-17 66 2 0 12 -114 34 -118 22 -2 -6 -13 -10 -24 -10 -14 0 -19 5 -16 18 4 13
-2 17 -24 19 -15 1 -28 -2 -28 -8z"/>
<path d="M2221 914 c6 -8 17 -14 24 -14 7 0 15 -7 19 -15 3 -8 12 -15 20 -15
7 0 16 -7 20 -15 3 -8 12 -15 21 -15 8 0 15 -4 15 -9 0 -13 44 -39 76 -46 27
-5 28 -5 7 6 -13 7 -23 15 -23 19 0 5 -11 11 -25 14 -16 4 -22 11 -19 21 5 11
-1 15 -20 15 -14 0 -26 5 -26 10 0 17 31 24 51 12 22 -14 56 -16 63 -3 6 8
-15 14 -93 28 -25 4 -32 2 -26 -7 5 -8 0 -11 -16 -8 -15 2 -23 9 -21 19 1 12
-6 16 -29 17 -25 1 -28 -2 -18 -14z"/>
<path d="M2479 912 c13 -12 34 -22 47 -22 13 0 26 -5 29 -11 4 -6 19 -7 36 -4
20 5 42 0 69 -14 66 -34 100 -1 37 37 -34 19 -91 27 -81 11 3 -5 12 -9 21 -9
9 0 14 -2 11 -5 -5 -6 -143 18 -173 30 -17 7 -16 5 4 -13z"/>
<path d="M1880 900 c0 -5 8 -10 19 -10 10 0 24 -7 31 -15 13 -16 38 -19 64 -9
24 9 19 27 -6 21 -12 -3 -28 -2 -37 2 -30 15 -71 22 -71 11z"/>
<path d="M1690 887 c0 -5 9 -7 21 -4 15 4 19 2 15 -9 -3 -8 -2 -12 4 -9 5 3
26 -1 46 -10 20 -8 44 -15 53 -14 9 0 2 5 -16 10 -22 7 -31 14 -27 24 5 11 -1
15 -22 16 -16 0 -39 2 -51 3 -13 2 -23 -2 -23 -7z"/>
<path d="M2440 896 c0 -15 36 -36 61 -36 17 0 40 -5 52 -12 20 -10 21 -10 8 5
-7 10 -28 17 -47 17 -18 0 -39 7 -48 15 -14 15 -26 19 -26 11z"/>
<path d="M1660 871 c0 -8 -8 -20 -17 -27 -12 -9 -14 -13 -5 -14 7 0 11 -4 8
-9 -3 -4 -18 -6 -33 -3 -22 3 -25 2 -17 -8 7 -6 26 -13 43 -14 27 -2 30 0 25
21 -8 29 11 30 26 2 7 -11 18 -18 25 -15 8 3 27 -5 42 -18 16 -12 35 -26 43
-29 8 -4 29 -16 45 -27 17 -11 37 -23 45 -27 8 -4 43 -25 77 -46 37 -23 69
-37 78 -33 9 3 13 2 10 -4 -3 -6 -1 -10 5 -10 7 0 10 -6 7 -12 -2 -7 -14 -12
-25 -10 -16 2 -20 -1 -16 -12 3 -9 10 -16 15 -16 5 0 9 -6 9 -14 0 -7 7 -19
15 -26 17 -14 18 -10 6 23 -5 13 -5 30 -1 37 6 10 10 7 15 -13 4 -15 13 -27
21 -27 8 0 15 -4 15 -10 1 -5 2 -14 3 -19 3 -20 16 -23 16 -3 0 11 -4 24 -10
27 -15 9 -12 25 4 25 7 0 17 -10 21 -22 5 -13 11 -32 14 -42 6 -18 7 -18 24
-2 16 16 17 16 28 -8 7 -13 8 -33 5 -43 -7 -17 -8 -17 -20 -1 -11 15 -13 15
-23 0 -10 -16 -12 -16 -31 1 -15 14 -21 15 -25 5 -4 -9 -11 -6 -26 11 -19 21
-21 22 -21 4 0 -11 9 -28 21 -39 22 -20 75 -28 85 -12 3 5 11 4 19 -2 17 -14
35 -5 35 16 0 9 7 22 15 31 14 14 18 14 34 -1 15 -14 20 -14 30 -3 14 18 3 51
-13 38 -18 -15 -67 -4 -83 18 -8 12 -18 19 -23 16 -11 -7 -50 30 -50 48 0 7
-11 13 -27 12 -20 0 -31 7 -41 28 -9 18 -21 27 -36 27 -13 0 -29 7 -36 15 -7
8 -15 13 -19 11 -3 -2 -17 1 -30 8 -16 9 -20 16 -12 20 7 4 18 2 26 -4 18 -15
20 -4 3 14 -7 7 -19 11 -28 9 -8 -2 -30 12 -49 31 -34 35 -34 36 -16 56 21 23
9 26 -18 5 -11 -7 -25 -11 -32 -9 -7 3 -15 -2 -19 -11 -4 -13 -10 -14 -26 -5
-11 6 -18 15 -15 19 2 5 -13 11 -35 15 -31 5 -45 14 -60 39 -11 17 -20 26 -20
18z m238 -151 c-3 -10 -7 -9 -19 2 -8 8 -25 21 -39 28 -23 12 -23 14 -5 20 22
8 70 -30 63 -50z"/>
<path d="M2204 837 c10 -7 30 -22 44 -34 14 -13 29 -23 33 -23 4 0 23 -15 41
-34 39 -39 75 -54 75 -31 0 8 -8 15 -17 15 -9 0 -31 13 -48 28 -25 23 -29 31
-19 42 10 10 9 12 -4 7 -9 -3 -37 5 -62 19 -47 25 -77 32 -43 11z"/>
<path d="M2391 846 c12 -13 81 -56 88 -56 5 0 21 -10 37 -22 15 -13 42 -27 58
-33 17 -5 32 -18 34 -27 6 -30 -26 -21 -71 21 -44 40 -81 58 -91 43 -3 -5 3
-17 13 -26 13 -11 21 -14 26 -7 3 6 11 11 16 11 6 0 7 -4 4 -10 -6 -10 25 -64
33 -56 3 3 -1 12 -8 21 -7 9 -10 18 -7 21 3 3 11 -5 18 -18 17 -32 28 -37 69
-33 19 2 38 4 43 4 28 3 -16 61 -46 61 -9 0 -17 4 -17 9 0 5 -12 11 -27 14
-16 3 -37 14 -48 24 -28 26 -147 82 -124 59z"/>
<path d="M2523 836 c4 -9 2 -16 -4 -16 -6 0 -7 -5 -3 -11 4 -8 9 -7 15 2 6 10
13 10 33 1 14 -6 26 -16 26 -20 0 -5 21 -17 46 -27 34 -13 49 -14 57 -6 21 21
-6 46 -49 46 -22 1 -59 11 -83 24 -35 18 -43 20 -38 7z"/>
<path d="M1220 820 c-20 -11 -71 -14 -91 -6 -8 4 -28 2 -43 -4 -16 -6 -51 -8
-80 -4 -49 5 -50 5 -24 -9 15 -9 36 -13 46 -10 20 5 26 0 63 -49 11 -16 28
-28 38 -28 10 0 26 -9 36 -20 10 -12 25 -18 32 -16 7 3 15 1 18 -4 13 -21 22
-9 12 14 -8 16 -14 21 -19 13 -6 -9 -16 -7 -39 6 -17 9 -37 17 -44 17 -17 0
-45 39 -45 62 0 13 8 18 25 18 14 0 25 -4 25 -10 0 -5 13 -7 29 -4 25 5 32 2
46 -26 9 -17 31 -38 48 -46 31 -14 47 -22 85 -44 9 -6 24 -13 32 -16 17 -6 43
-54 34 -63 -3 -3 -12 3 -20 13 -7 11 -17 17 -20 13 -11 -10 17 -38 35 -35 9 1
23 -1 31 -6 8 -5 12 -6 8 -1 -4 4 -3 14 2 20 8 9 4 14 -15 19 -16 4 -25 13
-25 27 0 13 -10 24 -30 30 -16 6 -27 15 -24 20 3 5 -6 9 -20 9 -14 0 -28 5
-31 10 -3 6 -14 10 -24 10 -22 0 -61 40 -61 63 0 24 19 31 38 14 11 -11 22
-13 33 -7 12 7 25 -1 55 -34 22 -24 38 -49 36 -55 -5 -14 15 -14 24 0 4 7 9 7
13 2 11 -17 71 -42 77 -32 3 5 0 9 -5 9 -6 0 -11 7 -11 15 0 8 -6 12 -13 9
-37 -14 -134 58 -123 93 5 16 1 18 -40 14 -26 -2 -49 1 -53 7 -4 6 -12 7 -21
2z"/>
<path d="M1397 812 c-15 -2 -25 -8 -22 -13 4 -5 16 -7 29 -3 18 4 29 -3 50
-31 16 -20 38 -41 49 -46 31 -14 62 -33 80 -47 10 -9 17 -10 22 -2 3 5 1 10
-4 10 -6 0 -11 10 -11 22 0 16 -3 19 -11 11 -24 -24 -142 57 -125 86 7 11 -21
17 -57 13z"/>
<path d="M1480 809 c0 -10 13 -13 43 -9 10 1 25 -4 33 -10 11 -10 14 -9 14 4
0 9 -8 16 -17 17 -10 0 -30 2 -45 4 -16 2 -28 -1 -28 -6z"/>
<path d="M855 794 c11 -8 28 -13 38 -10 19 5 37 -11 70 -58 10 -14 26 -26 36
-26 10 0 24 -7 31 -15 7 -8 21 -15 31 -15 30 0 61 -37 53 -63 -3 -12 -3 -19 1
-15 5 5 15 -1 23 -13 10 -14 17 -17 26 -10 9 7 17 7 26 -2 12 -10 12 -9 2 4
-6 9 -8 20 -4 24 4 5 1 5 -5 1 -21 -12 -53 13 -53 39 0 16 -6 25 -16 25 -9 0
-18 8 -21 18 -3 14 -11 18 -28 15 -12 -3 -26 0 -29 6 -4 6 -15 11 -25 11 -26
0 -61 37 -61 65 0 19 -5 25 -22 26 -13 0 -39 2 -58 4 -33 4 -34 4 -15 -11z"/>
<path d="M720 785 c8 -9 22 -12 41 -8 24 5 30 1 41 -23 15 -34 36 -53 61 -54
9 0 26 -9 37 -20 11 -11 26 -17 35 -14 8 4 15 1 15 -5 0 -6 7 -11 15 -11 13 0
12 4 -4 21 -11 12 -24 18 -30 15 -6 -4 -18 1 -28 11 -10 10 -26 17 -35 15 -26
-5 -61 36 -55 64 4 23 2 24 -51 24 -47 0 -53 -2 -42 -15z"/>
<path d="M1576 757 c3 -8 20 -23 37 -32 55 -28 121 -67 152 -90 38 -28 95 -40
95 -21 0 7 -7 19 -15 26 -13 11 -14 10 -10 -2 5 -13 0 -15 -27 -9 -22 5 -34
13 -36 26 -2 11 -12 31 -23 45 -20 24 -20 24 -14 3 5 -17 2 -23 -10 -23 -8 0
-18 7 -21 15 -4 8 -12 15 -20 15 -13 0 -78 33 -102 52 -9 8 -11 7 -6 -5z"/>
<path d="M670 731 c0 -14 49 -46 57 -37 4 3 17 -3 29 -15 13 -12 30 -19 38
-16 9 4 21 -4 31 -19 9 -14 19 -23 23 -20 3 3 -5 17 -17 30 -14 15 -20 30 -16
38 6 10 5 11 -6 1 -18 -18 -46 -16 -53 2 -3 9 -11 15 -18 14 -24 -3 -37 1 -52
17 -9 8 -16 11 -16 5z"/>
<path d="M1770 712 c0 -4 14 -16 30 -25 29 -18 43 -9 18 10 -19 15 -48 23 -48
15z"/>
<path d="M656 682 c-4 -7 -16 -10 -27 -7 -11 4 -19 2 -19 -4 0 -6 12 -11 26
-11 35 0 87 -38 79 -57 -3 -9 5 -25 20 -39 l26 -24 -21 -22 c-18 -19 -24 -21
-41 -10 -18 12 -19 10 -13 -15 4 -16 11 -36 15 -45 23 -43 -3 -85 -36 -58 -20
17 -19 1 2 -22 15 -17 15 -19 -2 -38 -15 -16 -21 -18 -33 -7 -13 10 -15 9 -9
-6 8 -22 -12 -23 -28 -1 -6 9 -18 15 -25 12 -9 -3 -5 -12 12 -31 24 -26 58
-37 58 -18 0 5 9 11 20 14 12 3 20 14 20 26 0 25 22 19 35 -11 7 -14 21 -22
42 -24 28 -3 34 0 39 21 3 14 8 25 9 25 2 0 22 -10 46 -23 31 -16 43 -19 46
-9 3 6 13 12 24 12 11 0 22 7 26 15 5 13 8 12 20 -5 11 -15 18 -19 26 -11 7 7
15 7 25 -1 11 -10 18 -8 31 7 18 22 52 27 59 7 6 -18 42 -15 42 4 0 11 6 14
20 9 12 -4 27 -1 35 5 17 14 20 50 5 50 -5 0 -10 -6 -10 -14 0 -23 -22 -31
-35 -12 -12 15 -13 15 -18 -4 -8 -30 -37 -25 -37 7 0 25 -1 25 -18 10 -17 -16
-19 -16 -32 7 -7 14 -10 32 -7 40 4 9 2 16 -4 16 -18 0 -20 -26 -5 -56 13 -24
14 -31 2 -43 -9 -8 -19 -10 -28 -5 -7 5 -22 8 -33 9 -23 0 -34 35 -12 35 8 0
18 7 21 16 9 24 7 29 -6 16 -18 -18 -36 -14 -43 9 -4 11 -9 18 -12 16 -3 -3 1
-21 8 -41 10 -28 10 -38 -1 -51 -12 -14 -15 -14 -33 2 -19 17 -19 17 -13 -4
14 -44 -40 -18 -57 27 -4 12 -6 11 -6 -2 -1 -21 -36 -25 -45 -5 -3 6 -4 0 -1
-15 5 -29 -7 -44 -27 -31 -7 4 -20 8 -28 8 -15 0 -15 2 -10 112 3 46 23 75 34
48 8 -22 26 -18 26 6 0 16 5 20 20 16 16 -4 20 0 20 19 0 14 -7 27 -15 30 -8
4 -15 13 -15 22 0 13 -3 12 -14 -3 -11 -16 -17 -17 -29 -7 -16 14 -29 62 -17
62 4 0 11 -7 14 -16 3 -9 15 -14 28 -13 13 2 29 0 36 -5 11 -7 11 -4 0 13 -8
12 -16 17 -22 11 -16 -16 -46 9 -47 38 0 26 -1 26 -9 5 -5 -13 -13 -23 -18
-23 -13 0 -39 23 -44 40 -3 11 -6 11 -12 2z"/>
<path d="M1625 679 c-8 -12 24 -51 35 -44 11 7 27 -16 32 -47 6 -34 -24 -48
-51 -24 -10 9 -21 13 -24 10 -4 -4 -13 -1 -22 6 -20 16 -19 -1 1 -26 8 -10 13
-13 9 -6 -3 6 -3 12 2 12 4 0 13 -11 20 -25 6 -14 7 -25 2 -25 -5 0 -9 -13 -9
-30 0 -30 -21 -42 -35 -20 -11 17 -25 11 -25 -11 0 -11 4 -18 9 -15 14 9 58
-18 53 -32 -3 -10 -7 -10 -18 -1 -11 9 -14 8 -14 -4 0 -29 12 -47 32 -47 17 0
19 7 18 68 -1 92 3 122 17 122 7 0 17 -9 23 -21 9 -17 8 -25 -6 -40 -32 -36
-10 -146 25 -125 6 4 10 28 10 54 -1 26 -4 37 -6 24 -2 -12 -9 -20 -14 -17
-13 9 -11 45 2 45 8 0 10 15 6 46 -2 26 -1 41 3 34 15 -24 21 10 8 48 -17 51
-30 67 -53 67 -13 0 -20 6 -19 18 2 19 -2 22 -11 6z"/>
<path d="M2400 680 c1 -8 7 -28 15 -45 10 -19 13 -22 9 -7 -4 17 -1 22 15 22
12 0 24 0 29 1 4 0 9 -8 11 -18 5 -29 30 -51 52 -46 22 6 26 23 4 23 -8 0 -12
6 -10 13 3 6 -5 17 -17 22 -13 6 -22 18 -21 29 1 13 -2 15 -10 7 -15 -15 -50
-14 -65 1 -9 9 -12 9 -12 -2z"/>
<path d="M871 664 c-1 -23 42 -69 57 -60 5 3 15 -1 22 -9 18 -21 29 -18 23 6
-4 16 -8 18 -14 7 -7 -10 -11 -7 -15 10 -5 18 -9 20 -15 10 -12 -18 -41 1 -50
33 -6 21 -7 22 -8 3z"/>
<path d="M1002 659 c-7 -12 -11 -24 -8 -27 3 -3 6 -2 6 2 0 4 12 -2 27 -14 20
-16 28 -18 35 -8 6 10 8 10 8 1 0 -7 5 -13 11 -13 8 0 8 5 -1 15 -7 8 -18 14
-24 14 -24 -4 -47 13 -41 32 8 25 3 24 -13 -2z"/>
<path d="M1507 673 c-9 -15 6 -29 48 -47 22 -10 48 -22 58 -27 15 -8 18 -7 15
8 -2 11 -12 18 -26 18 -12 0 -26 6 -31 14 -5 7 -13 11 -19 7 -6 -3 -17 3 -25
15 -8 11 -17 17 -20 12z"/>
<path d="M1257 664 c-8 -9 31 -44 49 -44 7 0 18 -8 23 -17 12 -20 14 -9 5 23
-4 16 -11 20 -25 17 -12 -3 -25 1 -32 11 -7 10 -16 14 -20 10z"/>
<path d="M1860 662 c0 -5 14 -18 30 -30 29 -22 40 -55 21 -66 -4 -3 -17 1 -27
9 -23 17 -38 19 -28 3 5 -7 3 -8 -7 -2 -29 18 -39 13 -33 -14 8 -34 14 -41 14
-17 0 14 4 13 21 -9 11 -14 18 -30 14 -35 -3 -5 -1 -12 5 -16 13 -8 13 21 -1
47 -12 23 -4 37 13 20 7 -7 17 -8 29 -2 15 8 17 5 16 -25 0 -18 -4 -32 -9 -29
-7 5 -1 -19 10 -40 8 -15 21 18 16 41 -6 21 -4 21 20 10 14 -7 26 -18 26 -26
0 -7 6 -11 14 -8 18 7 38 -16 51 -57 10 -31 35 -42 43 -18 2 6 -3 12 -11 12
-18 0 -30 30 -21 54 4 11 2 15 -8 11 -8 -3 -24 6 -36 20 -13 14 -27 23 -33 19
-14 -8 -49 25 -49 47 0 21 -20 69 -35 85 -14 14 -45 25 -45 16z"/>
<path d="M2540 658 c0 -20 21 -38 43 -38 12 0 17 6 15 18 -2 9 -10 16 -17 14
-7 -1 -19 3 -27 9 -11 9 -14 8 -14 -3z"/>
<path d="M576 642 c-12 -20 15 -44 53 -47 16 -1 37 -8 46 -15 13 -11 14 -10 9
4 -3 9 -10 16 -15 16 -5 0 -9 7 -9 16 0 13 -3 14 -15 4 -18 -15 -53 -4 -57 18
-3 13 -5 14 -12 4z"/>
<path d="M1190 620 c40 -35 60 -39 53 -9 -5 16 -8 18 -15 7 -7 -11 -11 -10
-21 3 -6 8 -21 18 -32 22 -13 4 -8 -4 15 -23z"/>
<path d="M1472 624 c-16 -17 -15 -27 2 -21 7 3 19 0 25 -6 15 -15 14 4 -2 24
-10 14 -14 14 -25 3z"/>
<path d="M2182 586 c35 -46 48 -54 26 -14 -19 34 -40 58 -50 58 -5 0 6 -20 24
-44z"/>
<path d="M527 600 c-6 -23 34 -57 52 -45 13 7 61 -23 61 -39 0 -7 -3 -7 -8 -1
-4 6 -17 10 -29 11 -19 0 -21 -2 -10 -14 10 -13 8 -14 -10 -8 -18 6 -20 4 -16
-13 5 -19 7 -19 26 -6 15 10 25 11 39 4 26 -14 31 -7 18 25 -14 39 -13 51 5
36 22 -19 25 -8 3 13 -10 9 -18 13 -18 7 0 -5 -9 -10 -20 -10 -11 0 -20 4 -20
8 0 4 -12 8 -27 7 -23 0 -28 4 -27 23 1 28 -12 29 -19 2z"/>
<path d="M1726 605 c3 -8 12 -11 19 -9 18 7 31 -16 15 -26 -9 -6 -7 -11 9 -20
15 -8 20 -17 16 -30 -3 -10 -1 -21 5 -25 5 -3 10 -15 10 -26 0 -11 8 -22 18
-25 9 -3 25 -10 35 -15 12 -6 17 -5 17 3 0 8 5 5 11 -4 5 -10 15 -18 21 -18 6
0 19 -7 28 -15 14 -12 23 -13 45 -5 19 7 31 7 41 -1 14 -11 34 -5 34 12 0 5
-7 9 -15 9 -7 0 -18 8 -24 18 -9 16 -10 16 -16 0 -9 -23 -31 -23 -44 0 -10 16
-10 15 -11 -3 -1 -11 -4 -14 -7 -7 -2 6 -13 12 -23 12 -11 0 -23 7 -28 16 -5
9 -12 15 -15 15 -44 -6 -56 7 -77 91 -10 37 -18 49 -41 57 -22 8 -27 7 -23 -4z"/>
<path d="M1977 576 c16 -25 31 -46 35 -46 15 0 -30 85 -46 88 -13 3 -11 -6 11
-42z"/>
<path d="M443 595 c3 -11 8 -31 12 -45 12 -42 34 -70 50 -64 21 8 19 36 -2 32
-12 -2 -22 9 -33 39 -16 44 -36 72 -27 38z"/>
<path d="M840 587 c0 -19 4 -24 18 -21 9 2 24 0 32 -6 13 -9 13 -11 0 -19 -9
-6 -19 -6 -27 1 -10 8 -13 6 -13 -7 0 -9 9 -19 20 -22 11 -3 20 -10 20 -15 0
-6 9 -8 21 -5 14 4 19 2 16 -7 -3 -7 -1 -19 4 -27 7 -10 9 -2 6 25 -1 22 -9
42 -16 44 -9 3 -11 0 -6 -8 5 -8 3 -11 -4 -9 -7 3 -12 7 -11 9 9 46 13 50 28
38 13 -11 14 -10 10 2 -4 14 -9 16 -50 19 -9 0 -24 8 -32 17 -15 14 -16 13
-16 -9z"/>
<path d="M1297 603 c-4 -6 0 -19 9 -27 14 -14 14 -18 0 -31 -19 -20 -29 -19
-51 5 -20 22 -44 28 -26 6 6 -7 9 -21 5 -29 -3 -9 -1 -24 5 -34 9 -16 10 -16
11 5 0 37 18 25 28 -20 l9 -43 7 40 c10 54 17 73 23 59 4 -13 43 -7 43 7 0 5
-8 9 -17 10 -11 0 -13 3 -5 6 6 2 12 9 12 14 0 4 -7 6 -15 3 -9 -4 -18 2 -23
17 -5 13 -11 18 -15 12z"/>
<path d="M1037 583 c-12 -12 -7 -23 7 -17 10 4 18 -6 25 -33 6 -21 11 -45 11
-54 0 -9 11 -22 25 -29 20 -11 27 -11 40 0 22 19 18 32 -6 18 -17 -11 -22 -10
-35 7 -8 11 -13 29 -10 40 3 11 2 25 -2 30 -15 21 -49 45 -55 38z"/>
<path d="M1456 582 c-3 -6 0 -12 6 -14 13 -5 14 -7 16 -70 2 -47 16 -49 28 -5
7 22 17 33 32 35 23 4 27 -16 7 -30 -5 -4 1 -8 14 -8 17 0 22 4 17 16 -3 9 -6
22 -6 31 0 9 -6 13 -14 10 -7 -3 -23 1 -35 9 -12 8 -25 13 -30 9 -6 -3 -14 2
-19 11 -6 10 -12 13 -16 6z"/>
<path d="M2460 575 c0 -18 -21 -20 -39 -2 -10 10 -12 8 -9 -7 4 -24 31 -41 52
-33 17 7 23 57 6 57 -5 0 -10 -7 -10 -15z"/>
<path d="M1385 560 c-3 -5 -2 -10 3 -10 5 0 14 -10 20 -22 9 -19 11 -20 11 -5
1 14 6 17 22 12 16 -5 20 -3 17 6 -3 8 -13 14 -24 14 -10 0 -24 3 -31 8 -6 4
-14 3 -18 -3z"/>
<path d="M2291 555 c5 -23 40 -27 47 -6 3 9 0 11 -7 7 -7 -4 -19 -2 -28 5 -13
11 -15 11 -12 -6z"/>
<path d="M960 545 c0 -22 13 -47 24 -46 32 5 46 -1 46 -19 0 -11 5 -20 11 -20
7 0 10 12 7 30 -3 17 0 30 6 30 5 0 4 6 -3 13 -11 10 -14 10 -18 0 -7 -21 -41
-15 -57 9 -15 21 -16 21 -16 3z"/>
<path d="M1137 525 c19 -25 33 -32 33 -15 0 6 7 10 15 10 8 0 15 4 15 9 0 9
-34 21 -63 21 -17 0 -17 -1 0 -25z"/>
<path d="M1725 484 c3 -39 15 -59 15 -26 0 24 15 30 23 10 3 -7 6 -4 6 8 1 13
-8 25 -23 32 -23 10 -24 9 -21 -24z"/>
<path d="M2341 496 c15 -31 49 -36 49 -6 0 11 -6 20 -14 20 -8 0 -22 3 -31 6
-14 6 -14 3 -4 -20z"/>
<path d="M1348 499 c-3 -8 2 -19 11 -26 19 -15 51 -17 51 -3 0 6 -9 10 -20 10
-10 0 -23 7 -28 16 -8 14 -10 14 -14 3z"/>
<path d="M1414 483 c21 -70 1 -138 -32 -110 -11 9 -13 6 -10 -13 4 -34 35 -38
49 -6 13 28 29 35 29 13 0 -23 22 -38 37 -26 18 15 17 40 -1 33 -11 -4 -13 0
-9 18 3 16 2 19 -5 10 -16 -23 -42 14 -42 59 0 21 -5 39 -11 39 -6 0 -8 -8 -5
-17z"/>
<path d="M1180 474 c0 -9 8 -29 17 -45 22 -37 63 -41 62 -6 0 12 -3 16 -6 10
-7 -20 -30 -15 -47 9 -11 16 -13 25 -4 35 8 10 7 13 -6 13 -9 0 -16 -7 -16
-16z"/>
<path d="M810 463 c-1 -45 37 -58 63 -20 13 18 16 19 16 5 1 -10 5 -18 10 -18
5 0 7 9 4 20 -6 23 -28 27 -37 5 -7 -20 -33 -19 -45 3 -6 9 -11 12 -11 5z"/>
<path d="M494 448 c-16 -7 -19 -16 -16 -40 3 -16 -1 -48 -9 -70 -23 -71 23
-105 60 -43 24 40 29 67 9 47 -27 -27 -38 -13 -38 46 l0 57 19 -24 c15 -20 21
-22 39 -12 12 7 22 16 22 21 0 5 7 7 15 4 9 -4 15 0 15 9 0 20 -26 15 -45 -9
-15 -19 -15 -19 -33 2 -13 16 -22 19 -38 12z"/>
<path d="M1790 423 c1 -25 35 -67 49 -59 18 12 12 36 -9 36 -11 0 -20 6 -20
14 0 8 -4 18 -10 21 -5 3 -10 -2 -10 -12z"/>
<path d="M1290 418 c0 -9 4 -19 9 -22 4 -3 11 -19 14 -36 11 -50 47 -33 47 22
0 16 -3 18 -14 9 -11 -9 -18 -6 -35 16 -15 21 -20 24 -21 11z"/>
<path d="M1487 416 c4 -6 11 -15 15 -21 5 -5 15 -19 22 -29 17 -25 46 -14 46
18 0 14 -4 27 -9 30 -5 3 -8 -2 -7 -11 2 -26 -23 -27 -35 0 -6 13 -17 24 -24
24 -8 0 -11 -5 -8 -11z"/>
<path d="M1730 410 c0 -34 19 -54 37 -39 17 15 17 29 -2 29 -7 0 -19 8 -24 18
-9 15 -10 14 -11 -8z"/>
<path d="M1869 392 c13 -25 41 -29 41 -7 0 8 -4 15 -9 15 -5 0 -17 3 -26 7
-15 5 -16 3 -6 -15z"/>
<path d="M1248 378 c-3 -7 -1 -23 3 -36 10 -28 42 -26 47 2 2 11 0 16 -6 12
-6 -3 -17 3 -25 14 -10 15 -16 17 -19 8z"/>
</g>
</svg>
