<?xml version="1.0" encoding="UTF-8"?>
<svg version="1.1" xmlns="http://www.w3.org/2000/svg" width="234" height="242">
<path d="M0 0 C77.22 0 154.44 0 234 0 C234 79.86 234 159.72 234 242 C156.78 242 79.56 242 0 242 C0 162.14 0 82.28 0 0 Z " fill="#FDFDFE" transform="translate(0,0)"/>
<path d="M0 0 C3.90867054 2.71213874 4.81928831 4.15204516 5.8125 8.8125 C5.874375 9.864375 5.93625 10.91625 6 12 C6.81984375 12.13277344 7.6396875 12.26554687 8.484375 12.40234375 C9.56203125 12.57894531 10.6396875 12.75554688 11.75 12.9375 C12.81734375 13.11152344 13.8846875 13.28554688 14.984375 13.46484375 C17.36347593 13.88704171 19.66915211 14.37202884 22 15 C22.226875 14.2575 22.45375 13.515 22.6875 12.75 C24.52092678 8.90853437 27.22976824 6.88511588 31 5 C35.52521002 4.25981695 39.41861656 4.05471791 43.4375 6.45703125 C45.50855805 8.21373228 47.34698909 9.84369806 49 12 C49 12.99 49 13.98 49 15 C49.81984375 14.7834375 50.6396875 14.566875 51.484375 14.34375 C52.56203125 14.0653125 53.6396875 13.786875 54.75 13.5 C55.81734375 13.2215625 56.8846875 12.943125 57.984375 12.65625 C61 12 61 12 65 12 C64.896875 11.13375 64.79375 10.2675 64.6875 9.375 C65.11873973 4.71761095 66.76491727 3.31210851 70 0 C73.45179569 -1.72589785 77.21866039 -1.36043965 81 -1 C85.18459301 0.72841885 87.20718739 2.84822343 89 7 C89.39270927 11.47688569 89.02651616 14.08206876 87 18 C87.4779365 21.48744287 89.05434502 23.78604805 91.0625 26.625 C94 30.78588235 94 30.78588235 94 33 C94.66 32.67 95.32 32.34 96 32 C100.98066973 31.45355962 104.8958307 31.45795325 109.4375 33.6875 C112.80435364 36.72588012 114.73218541 38.74589384 115.28125 43.3671875 C115.45907704 48.36116366 115.36558303 52.05414403 112 56 C108.44159972 59.76771794 105.30240351 60.75484851 100.27734375 61.09765625 C96.62781392 60.9411584 94.12342067 59.83730627 91 58 C88.5625 55.3125 88.5625 55.3125 87 53 C86.39414063 53.12117188 85.78828125 53.24234375 85.1640625 53.3671875 C79.109375 54.578125 73.0546875 55.7890625 67 57 C66.8453125 58.3921875 66.8453125 58.3921875 66.6875 59.8125 C66 63 66 63 64.9375 64.8125 C61.8274986 66.71862989 58.57968818 67.11885683 55 67 C52.03329938 65.77462366 50.55157284 64.72707328 48.625 62.1875 C47.75907848 59.15677466 48.24089336 57.03642655 49 54 C49.3820459 53.35836914 49.7640918 52.71673828 50.15771484 52.05566406 C51.23740983 50.04288478 51.23740983 50.04288478 50.40087891 48.07714844 C49.81959229 47.10310059 49.81959229 47.10310059 49.2265625 46.109375 C48.8140625 45.40039062 48.4015625 44.69140625 47.9765625 43.9609375 C47.30753906 42.86652344 47.30753906 42.86652344 46.625 41.75 C46.18671875 41.00492188 45.7484375 40.25984375 45.296875 39.4921875 C44.21220164 37.65295875 43.10792483 35.82531676 42 34 C41.31292969 34.01160156 40.62585938 34.02320313 39.91796875 34.03515625 C39.01691406 34.04417969 38.11585938 34.05320313 37.1875 34.0625 C35.84751953 34.07990234 35.84751953 34.07990234 34.48046875 34.09765625 C32 34 32 34 29 33 C28.690625 34.175625 28.690625 34.175625 28.375 35.375 C26.80292624 39.51955809 24.61556051 42.87201451 22.14453125 46.53515625 C20.7331747 49.57463059 21.09869914 50.83042531 22 54 C23.00323527 61.41632147 23.00323527 61.41632147 20.90625 64.7265625 C18.11523207 67.38396787 16.18848609 67.99675024 12.375 68.0625 C8.69432528 66.90376907 7.20697401 66.14069378 5 63 C4.25 59.75 4.25 59.75 4 57 C3.39414063 56.89042969 2.78828125 56.78085938 2.1640625 56.66796875 C-4.03143795 55.49558943 -9.99460467 53.91661553 -16 52 C-16.27457031 52.62261719 -16.54914063 53.24523438 -16.83203125 53.88671875 C-18 56 -18 56 -20.6875 57.8125 C-21.450625 58.534375 -22.21375 59.25625 -23 60 C-23 62.72734112 -22.71936041 64.4234673 -22 67 C-21.75121094 67.93328125 -21.50242188 68.8665625 -21.24609375 69.828125 C-20.71965479 71.7711171 -20.17869947 73.71025305 -19.62109375 75.64453125 C-19 78 -19 78 -19 80 C-18.0925 80.0825 -17.185 80.165 -16.25 80.25 C-12.4895972 81.11778526 -11.25796233 81.90575532 -9 85 C-8.02281387 88.28055344 -7.84975642 90.35395262 -8.625 93.6875 C-10.42910355 96.72167416 -11.70117545 97.70915561 -15 99 C-18.37804974 98.98656839 -21.66960501 98.5552953 -24.796875 97.25 C-29.47745992 96.7188698 -34.08000031 100.05754582 -37.9609375 102.4609375 C-41.16507376 104.71551436 -41.16507376 104.71551436 -42.1015625 107.9140625 C-42.2979451 110.67069233 -42.20836852 113.24953549 -42 116 C-42.33 116.66 -42.66 117.32 -43 118 C-42.14148437 118.25523438 -41.28296875 118.51046875 -40.3984375 118.7734375 C-36.84267486 120.05678172 -33.86307753 121.68215348 -30.625 123.625 C-29.03558594 124.57246094 -29.03558594 124.57246094 -27.4140625 125.5390625 C-26.61742187 126.02117187 -25.82078125 126.50328125 -25 127 C-24.01 126.34 -23.02 125.68 -22 125 C-18.26390054 124.27237014 -14.56822386 124.00749796 -11.265625 126.09765625 C-8.59815247 128.90749389 -8 130.78877171 -8 134.625 C-9.55813953 139.88372093 -9.55813953 139.88372093 -12 142 C-14.32508836 142.38667776 -16.6591585 142.72428888 -19 143 C-19.67076489 145.76989964 -20.33676317 148.54079742 -21 151.3125 C-21.19078125 152.09818359 -21.3815625 152.88386719 -21.578125 153.69335938 C-21.75859375 154.45068359 -21.9390625 155.20800781 -22.125 155.98828125 C-22.29257813 156.68477783 -22.46015625 157.38127441 -22.6328125 158.09887695 C-23.09481884 160.16821738 -23.09481884 160.16821738 -23 163 C-21.049252 165.56035675 -18.78304196 167.3952191 -16 169 C-12.82884563 169.05467508 -10.98635877 168.78793179 -8 168 C-6.87851563 167.74992188 -5.75703125 167.49984375 -4.6015625 167.2421875 C-1.39288676 166.52528164 1.80480785 165.77444444 5 165 C5.13277344 164.04867187 5.26554687 163.09734375 5.40234375 162.1171875 C6 159 6 159 7.5625 157.125 C11.06746353 155.50732452 14.2626704 155.23033212 18 156 C21 158 21 158 23 161 C23.5287027 163.91064751 23.34532882 165.99070596 23 169 C22.34 169.66 21.68 170.32 21 171 C21.29000697 175.32036023 23.17875579 178.15763231 25.5625 181.6875 C29 186.79879276 29 186.79879276 29 189 C33.29 189 37.58 189 42 189 C43.56464388 186.44921084 45.1010896 183.88746037 46.625 181.3125 C47.07101563 180.59126953 47.51703125 179.87003906 47.9765625 179.12695312 C50.60397384 174.92622662 50.60397384 174.92622662 50.296875 170.19921875 C49.86890625 169.47347656 49.4409375 168.74773437 49 168 C48.5649361 163.93940363 48.6012553 161.73369025 50.5625 158.125 C53.76400206 155.33394692 55.78105729 155 60 155 C62.92346557 156.36428393 64.72750909 157.72750909 67 160 C67.125 162.625 67.125 162.625 67 165 C73.93025566 167.25496388 80.80684375 168.83760783 88 170 C88.29003906 169.38640625 88.58007812 168.7728125 88.87890625 168.140625 C90.52609171 164.99547645 91.88544101 163.77974799 95 162 C99.85385324 161.3357885 104.31297041 161.38979781 108.9375 163.0625 C113.43622108 167.28857132 115.23801376 171.04066955 115.4375 177.125 C115.24613397 181.19924448 114.77269003 183.85761797 112 187 C107.49113257 191.06897793 103.98708213 191.40568873 98.171875 191.23828125 C96 191 96 191 94 190 C93.72414062 190.56203125 93.44828125 191.1240625 93.1640625 191.703125 C91.95631972 194.08618794 90.67823191 196.4179008 89.375 198.75 C88.70597656 199.94882812 88.70597656 199.94882812 88.0234375 201.171875 C87.68570313 201.77515625 87.34796875 202.3784375 87 203 C87.495 203.680625 87.99 204.36125 88.5 205.0625 C90.37858915 208.74140375 90.50238846 210.9091225 90 215 C87.76409037 219.30619632 85.59526772 222.26400997 81 224 C76.20148805 224.28843514 72.94771266 223.67129647 69 220.875 C66.65714713 217.507149 66.23869167 215.05775837 66 211 C64.7934375 211.0309375 64.7934375 211.0309375 63.5625 211.0625 C61 211 61 211 60 210 C58.15400312 209.60545777 56.29774178 209.25823134 54.4375 208.9375 C53.42558594 208.76089844 52.41367188 208.58429688 51.37109375 208.40234375 C50.58863281 208.26957031 49.80617188 208.13679687 49 208 C48.89558594 208.60457031 48.79117188 209.20914063 48.68359375 209.83203125 C47.57842199 213.33700455 44.85509589 214.84411127 42 217 C38.79577956 218.60211022 35.48441498 218.35104181 32 218 C26.80133702 216.20046281 24.72407631 213.71474745 22 209 C20.515 209.2165625 20.515 209.2165625 19 209.4375 C15.00590535 210.00925179 11.00467063 210.50819834 7 211 C7.12375 211.680625 7.2475 212.36125 7.375 213.0625 C6.81745522 217.42993412 4.21167709 220.09308059 1 223 C-2.72900316 224.24300105 -6.13349214 224.6711674 -10 224 C-13.02391552 222.26092412 -15.41748661 220.16502678 -17 217 C-17.12148305 215.37834248 -17.17543652 213.75115673 -17.1875 212.125 C-17.20167969 211.26132813 -17.21585938 210.39765625 -17.23046875 209.5078125 C-16.98859252 206.8758712 -16.32983541 205.26019456 -15 203 C-17.27572577 198.50209494 -19.50987705 194.62374174 -23 191 C-26.25956863 190.35411454 -28.86068815 190.60331352 -32.15234375 190.95703125 C-35.49163267 191.00741833 -36.60231375 190.43492705 -39.125 188.3125 C-42.83483324 184.44019231 -44.07088909 181.20023171 -44.1875 175.875 C-44 172 -44 172 -43 169 C-44.3303125 168.62875 -44.3303125 168.62875 -45.6875 168.25 C-49 167 -49 167 -51.625 164.8125 C-53.8029259 162.73035776 -53.8029259 162.73035776 -56.25 163.1875 C-57.9863999 163.87187272 -57.9863999 163.87187272 -59 165 C-64.36602975 165.63023839 -68.61157468 166.02006758 -73.0625 162.75 C-76.23743479 158.24364094 -77.57708773 155.65545979 -77 150 C-75.625 147.125 -75.625 147.125 -74 145 C-73.34 145 -72.68 145 -72 145 C-72 144.34 -72 143.68 -72 143 C-69.29120665 141.64560332 -66.99066732 141.93498549 -64 142 C-63.86722656 141.10796875 -63.73445313 140.2159375 -63.59765625 139.296875 C-63.42105469 138.12640625 -63.24445312 136.9559375 -63.0625 135.75 C-62.88847656 134.58984375 -62.71445312 133.4296875 -62.53515625 132.234375 C-62.1272264 129.76893039 -61.66098697 127.40575438 -61 125 C-61.7425 124.773125 -62.485 124.54625 -63.25 124.3125 C-67.09146563 122.47907322 -69.11488412 119.77023176 -71 116 C-71.57425085 111.29302583 -71.45554552 107.87855208 -69.25 103.625 C-67.26944506 101.31435257 -65.60103693 99.56062216 -63 98 C-62.34 98 -61.68 98 -61 98 C-61.99 92.72 -62.98 87.44 -64 82 C-65.98 82 -67.96 82 -70 82 C-73.37940996 79.84946639 -75.81543238 77.87676675 -77 74 C-77.65243523 69.02518138 -77.59519416 66.14529601 -74.5625 62.0625 C-71.39988339 58.78746811 -68.59252365 57.97246338 -64.10546875 57.76953125 C-61.24379876 58.08277527 -59.39519408 59.46973712 -57 61 C-52.90083399 60.13701768 -49.8203834 57.53182408 -46.55078125 55.0234375 C-45 54 -45 54 -43 54 C-43.33 53.01 -43.66 52.02 -44 51 C-44.53856933 46.36477214 -44.45178019 42.92093654 -42.375 38.6875 C-39.64489419 35.59816975 -37.75073476 33.77307462 -34 32 C-32.18481769 32.07677508 -30.3714739 32.20649284 -28.5625 32.375 C-24.80927183 32.54956875 -23.53502877 32.48143505 -20.69921875 29.9296875 C-17.06178354 25.32382093 -17.06178354 25.32382093 -16.265625 19.796875 C-16.99630648 17.94439093 -16.99630648 17.94439093 -18 16 C-18.51436888 11.91444146 -18.92098732 7.78152373 -16.98828125 4.04296875 C-12.19786573 -1.86952608 -6.92218309 -1.58978368 0 0 Z " fill="#5E5198" transform="translate(103,8)"/>
<path d="M0 0 C2.75025718 1.7569363 3.35449951 2.98324911 5 6 C5 9.6771918 4.44032726 12.07042023 2.875 15.375 C0.1706569 17.71876402 -2.51746821 17.58981727 -6 18 C-6.67076489 20.76989964 -7.33676317 23.54079742 -8 26.3125 C-8.28617188 27.49102539 -8.28617188 27.49102539 -8.578125 28.69335938 C-8.75859375 29.45068359 -8.9390625 30.20800781 -9.125 30.98828125 C-9.29257813 31.68477783 -9.46015625 32.38127441 -9.6328125 33.09887695 C-10.09481884 35.16821738 -10.09481884 35.16821738 -10 38 C-8.049252 40.56035675 -5.78304196 42.3952191 -3 44 C0.17115437 44.05467508 2.01364123 43.78793179 5 43 C6.12148437 42.74992187 7.24296875 42.49984375 8.3984375 42.2421875 C11.60711324 41.52528164 14.80480785 40.77444444 18 40 C18.13277344 39.04867187 18.26554687 38.09734375 18.40234375 37.1171875 C19 34 19 34 20.5625 32.125 C24.06746353 30.50732452 27.2626704 30.23033212 31 31 C34 33 34 33 36 36 C36.5287027 38.91064751 36.34532882 40.99070596 36 44 C35.01 44.99 35.01 44.99 34 46 C34.29000697 50.32036023 36.17875579 53.15763231 38.5625 56.6875 C42 61.79879276 42 61.79879276 42 64 C46.29 64 50.58 64 55 64 C56.56464388 61.44921084 58.1010896 58.88746037 59.625 56.3125 C60.29402344 55.2306543 60.29402344 55.2306543 60.9765625 54.12695312 C63.60397384 49.92622662 63.60397384 49.92622662 63.296875 45.19921875 C62.86890625 44.47347656 62.4409375 43.74773437 62 43 C61.5649361 38.93940363 61.6012553 36.73369025 63.5625 33.125 C66.76400206 30.33394692 68.78105729 30 73 30 C75.92346557 31.36428393 77.72750909 32.72750909 80 35 C80.125 37.625 80.125 37.625 80 40 C86.93025566 42.25496388 93.80684375 43.83760783 101 45 C101.29003906 44.38640625 101.58007812 43.7728125 101.87890625 43.140625 C103.52609171 39.99547645 104.88544101 38.77974799 108 37 C112.85385324 36.3357885 117.31297041 36.38979781 121.9375 38.0625 C126.43622108 42.28857132 128.23801376 46.04066955 128.4375 52.125 C128.24613397 56.19924448 127.77269003 58.85761797 125 62 C120.49113257 66.06897793 116.98708213 66.40568873 111.171875 66.23828125 C109 66 109 66 107 65 C106.72414062 65.56203125 106.44828125 66.1240625 106.1640625 66.703125 C104.95631972 69.08618794 103.67823191 71.4179008 102.375 73.75 C101.92898437 74.54921875 101.48296875 75.3484375 101.0234375 76.171875 C100.51683594 77.07679688 100.51683594 77.07679688 100 78 C100.7425 79.0209375 100.7425 79.0209375 101.5 80.0625 C103.37858915 83.74140375 103.50238846 85.9091225 103 90 C100.76409037 94.30619632 98.59526772 97.26400997 94 99 C89.20148805 99.28843514 85.94771266 98.67129647 82 95.875 C79.65714713 92.507149 79.23869167 90.05775837 79 86 C78.195625 86.020625 77.39125 86.04125 76.5625 86.0625 C74 86 74 86 73 85 C71.15400312 84.60545777 69.29774178 84.25823134 67.4375 83.9375 C66.42558594 83.76089844 65.41367188 83.58429688 64.37109375 83.40234375 C63.58863281 83.26957031 62.80617188 83.13679688 62 83 C61.89558594 83.60457031 61.79117188 84.20914063 61.68359375 84.83203125 C60.57842199 88.33700455 57.85509589 89.84411127 55 92 C51.79577956 93.60211022 48.48441498 93.35104181 45 93 C39.80133702 91.20046281 37.72407631 88.71474745 35 84 C33.515 84.2165625 33.515 84.2165625 32 84.4375 C28.00590535 85.00925179 24.00467063 85.50819834 20 86 C20.185625 87.0209375 20.185625 87.0209375 20.375 88.0625 C19.81745522 92.42993412 17.21167709 95.09308059 14 98 C10.27099684 99.24300105 6.86650786 99.6711674 3 99 C-0.02391552 97.26092412 -2.41748661 95.16502678 -4 92 C-4.12148305 90.37834248 -4.17543652 88.75115673 -4.1875 87.125 C-4.20167969 86.26132813 -4.21585938 85.39765625 -4.23046875 84.5078125 C-3.98859252 81.8758712 -3.32983541 80.26019456 -2 78 C-4.27572577 73.50209494 -6.50987705 69.62374174 -10 66 C-13.25956863 65.35411454 -15.86068815 65.60331352 -19.15234375 65.95703125 C-22.49163267 66.00741833 -23.60231375 65.43492705 -26.125 63.3125 C-29.83483324 59.44019231 -31.07088909 56.20023171 -31.1875 50.875 C-31 47 -31 47 -30 44 C-30.886875 43.7525 -31.77375 43.505 -32.6875 43.25 C-36 42 -36 42 -38.625 39.8125 C-40.8029259 37.73035776 -40.8029259 37.73035776 -43.25 38.1875 C-44.9863999 38.87187272 -44.9863999 38.87187272 -46 40 C-51.36602975 40.63023839 -55.61157468 41.02006758 -60.0625 37.75 C-63.23743479 33.24364094 -64.57708773 30.65545979 -64 25 C-62.625 22.125 -62.625 22.125 -61 20 C-60.34 20 -59.68 20 -59 20 C-59 19.34 -59 18.68 -59 18 C-56.29120665 16.64560332 -53.99066732 16.93498549 -51 17 C-50.67 14.03 -50.34 11.06 -50 8 C-49.67 9.32 -49.34 10.64 -49 12 C-48.34 12.33 -47.68 12.66 -47 13 C-47.33 14.32 -47.66 15.64 -48 17 C-47.4225 17.2475 -46.845 17.495 -46.25 17.75 C-43.55197615 19.24890214 -41.91251907 20.55988946 -40 23 C-39.27846524 26.30703432 -38.91446671 29.14065772 -39.25 32.51171875 C-39.25092652 35.13430094 -39.25092652 35.13430094 -37.171875 36.8359375 C-35.97304688 37.59777344 -35.97304688 37.59777344 -34.75 38.375 C-33.96109375 38.89835937 -33.1721875 39.42171875 -32.359375 39.9609375 C-30.09151364 41.19434057 -30.09151364 41.19434057 -27.8125 40.76171875 C-25.88395779 40.0667475 -25.88395779 40.0667475 -24.25 38.4375 C-20.83651084 36.2566597 -18.00127876 36.79993606 -14 37 C-13.8453125 35.576875 -13.8453125 35.576875 -13.6875 34.125 C-13.12791495 30.0241603 -11.8642472 26.23760078 -10.5234375 22.33203125 C-9.9423558 19.74318218 -10.07210011 18.46250356 -11 16 C-11.66 15.01 -12.32 14.02 -13 13 C-13.66568876 8.79687211 -13.66155794 5.17929894 -11.5625 1.4375 C-7.71374588 -0.72155719 -4.29560364 -0.99950991 0 0 Z " fill="#5E5198" transform="translate(90,133)"/>
<path d="M0 0 C0.495 1.485 0.495 1.485 1 3 C1.66 3 2.32 3 3 3 C3.515625 3.61875 4.03125 4.2375 4.5625 4.875 C8.00334544 7.87471141 11.57911339 8.28207824 16 9 C16 9.66 16 10.32 16 11 C16.66 11 17.32 11 18 11 C18.33 10.01 18.66 9.02 19 8 C19.83752161 10.95716407 20.66930031 13.915913 21.5 16.875 C21.73847656 17.71675781 21.97695312 18.55851562 22.22265625 19.42578125 C22.44824219 20.23144531 22.67382812 21.03710938 22.90625 21.8671875 C23.11572266 22.61081543 23.32519531 23.35444336 23.54101562 24.12060547 C24 26 24 26 24 28 C24.9075 28.0825 25.815 28.165 26.75 28.25 C30.5104028 29.11778526 31.74203767 29.90575532 34 33 C34.97718613 36.28055344 35.15024358 38.35395262 34.375 41.6875 C32.57089645 44.72167416 31.29882455 45.70915561 28 47 C24.62195026 46.98656839 21.33039499 46.5552953 18.203125 45.25 C13.52254008 44.7188698 8.91999969 48.05754582 5.0390625 50.4609375 C1.83492624 52.71551436 1.83492624 52.71551436 0.8984375 55.9140625 C0.7020549 58.67069233 0.79163148 61.24953549 1 64 C0.67 64.66 0.34 65.32 0 66 C0.85851563 66.26941406 1.71703125 66.53882812 2.6015625 66.81640625 C8.24151448 68.78066539 13.52079231 70.97085624 18 75 C18.7461206 78.08920107 18.61987138 80.32208046 18.12890625 83.44921875 C17.96453353 86.70180613 19.0764955 87.48387531 21 90 C20.9609375 92.2265625 20.9609375 92.2265625 20.375 94.625 C20.16875 95.49125 19.9625 96.3575 19.75 97.25 C18.58343218 101.52741535 17.34803191 105.77616668 16 110 C14.783125 110.0825 13.56625 110.165 12.3125 110.25 C8.14827376 110.73472475 6.21522082 112.32064932 3 115 C-1.96410187 114.39000443 -6.53755801 111.49888874 -10 108 C-10.57036798 105.56178572 -10.45459428 103.6661788 -10.19921875 101.18359375 C-9.91247568 98.04066479 -10.62940466 95.80972045 -12 93 C-13.91764174 91.6237206 -13.91764174 91.6237206 -16 91 C-16.66 90.67 -17.32 90.34 -18 90 C-19.60697803 84.6969725 -19.75543688 78.26631064 -18 73 C-18.7425 72.773125 -19.485 72.54625 -20.25 72.3125 C-24.09146563 70.47907322 -26.11488412 67.77023176 -28 64 C-28.57425085 59.29302583 -28.45554552 55.87855208 -26.25 51.625 C-24.26944506 49.31435257 -22.60103693 47.56062216 -20 46 C-19.34 46 -18.68 46 -18 46 C-18.99 40.72 -19.98 35.44 -21 30 C-22.98 30 -24.96 30 -27 30 C-30.37940996 27.84946639 -32.81543238 25.87676675 -34 22 C-34.65243523 17.02518138 -34.59519416 14.14529601 -31.5625 10.0625 C-28.39988339 6.78746811 -25.59252365 5.97246338 -21.10546875 5.76953125 C-18.24379876 6.08277527 -16.39519408 7.46973712 -14 9 C-9.90083399 8.13701768 -6.8203834 5.53182408 -3.55078125 3.0234375 C-2 2 -2 2 0 2 C0 1.34 0 0.68 0 0 Z " fill="#5F5299" transform="translate(60,60)"/>
<path d="M0 0 C2.75025718 1.7569363 3.35449951 2.98324911 5 6 C5 9.6771918 4.44032726 12.07042023 2.875 15.375 C0.1706569 17.71876402 -2.51746821 17.58981727 -6 18 C-6.67076489 20.76989964 -7.33676317 23.54079742 -8 26.3125 C-8.28617188 27.49102539 -8.28617188 27.49102539 -8.578125 28.69335938 C-8.75859375 29.45068359 -8.9390625 30.20800781 -9.125 30.98828125 C-9.29257813 31.68477783 -9.46015625 32.38127441 -9.6328125 33.09887695 C-10.09481884 35.16821738 -10.09481884 35.16821738 -10 38 C-8.46100047 39.60767163 -8.46100047 39.60767163 -6.5 41.0625 C-4.53125 42.59765625 -4.53125 42.59765625 -3 44 C-3 44.66 -3 45.32 -3 46 C-1.68 46.33 -0.36 46.66 1 47 C0.01 47.495 0.01 47.495 -1 48 C-1.31608345 49.96207724 -1.31608345 49.96207724 -1.375 52.25 C-1.74224913 56.71348945 -3.13094737 58.55713684 -6 62 C-6.23630112 66.37157071 -3.53868854 70.04864237 -0.9453125 73.40625 C2.13447041 75.92944564 4.85416057 75.40837124 8.671875 75.10546875 C11.98644449 74.95531208 13.50629692 75.86254021 16 78 C19.32916649 81.18442012 20.93324688 82.77619279 21.1875 87.4375 C19.7099474 91.87015779 17.50213455 94.91603077 14 98 C10.27099684 99.24300105 6.86650786 99.6711674 3 99 C-0.02391552 97.26092412 -2.41748661 95.16502678 -4 92 C-4.12148305 90.37834248 -4.17543652 88.75115673 -4.1875 87.125 C-4.20167969 86.26132813 -4.21585938 85.39765625 -4.23046875 84.5078125 C-3.98859252 81.8758712 -3.32983541 80.26019456 -2 78 C-4.27572577 73.50209494 -6.50987705 69.62374174 -10 66 C-13.25956863 65.35411454 -15.86068815 65.60331352 -19.15234375 65.95703125 C-22.49163267 66.00741833 -23.60231375 65.43492705 -26.125 63.3125 C-29.83483324 59.44019231 -31.07088909 56.20023171 -31.1875 50.875 C-31 47 -31 47 -30 44 C-30.886875 43.7525 -31.77375 43.505 -32.6875 43.25 C-36 42 -36 42 -38.625 39.8125 C-40.8029259 37.73035776 -40.8029259 37.73035776 -43.25 38.1875 C-44.9863999 38.87187272 -44.9863999 38.87187272 -46 40 C-51.36602975 40.63023839 -55.61157468 41.02006758 -60.0625 37.75 C-63.23743479 33.24364094 -64.57708773 30.65545979 -64 25 C-62.625 22.125 -62.625 22.125 -61 20 C-60.34 20 -59.68 20 -59 20 C-59 19.34 -59 18.68 -59 18 C-56.29120665 16.64560332 -53.99066732 16.93498549 -51 17 C-50.67 14.03 -50.34 11.06 -50 8 C-49.67 9.32 -49.34 10.64 -49 12 C-48.34 12.33 -47.68 12.66 -47 13 C-47.33 14.32 -47.66 15.64 -48 17 C-47.4225 17.2475 -46.845 17.495 -46.25 17.75 C-43.55197615 19.24890214 -41.91251907 20.55988946 -40 23 C-39.27846524 26.30703432 -38.91446671 29.14065772 -39.25 32.51171875 C-39.25092652 35.13430094 -39.25092652 35.13430094 -37.171875 36.8359375 C-35.97304688 37.59777344 -35.97304688 37.59777344 -34.75 38.375 C-33.96109375 38.89835937 -33.1721875 39.42171875 -32.359375 39.9609375 C-30.09151364 41.19434057 -30.09151364 41.19434057 -27.8125 40.76171875 C-25.88395779 40.0667475 -25.88395779 40.0667475 -24.25 38.4375 C-20.83651084 36.2566597 -18.00127876 36.79993606 -14 37 C-13.8453125 35.576875 -13.8453125 35.576875 -13.6875 34.125 C-13.12791495 30.0241603 -11.8642472 26.23760078 -10.5234375 22.33203125 C-9.9423558 19.74318218 -10.07210011 18.46250356 -11 16 C-11.66 15.01 -12.32 14.02 -13 13 C-13.66568876 8.79687211 -13.66155794 5.17929894 -11.5625 1.4375 C-7.71374588 -0.72155719 -4.29560364 -0.99950991 0 0 Z " fill="#5E5198" transform="translate(90,133)"/>
<path d="M0 0 C2.34730065 0.61568542 4.68456957 1.27359045 7 2 C8.33150516 2.3405626 9.66448076 2.67553546 11 3 C11.18175781 3.84304687 11.36351562 4.68609375 11.55078125 5.5546875 C11.80214844 6.65039062 12.05351562 7.74609375 12.3125 8.875 C12.55613281 9.96554688 12.79976562 11.05609375 13.05078125 12.1796875 C13.77902058 15.29442353 13.77902058 15.29442353 17 17 C13.02734133 27.30694392 13.02734133 27.30694392 9 31 C6.06384929 31.48218311 3.52472395 31.32009501 0.56640625 31.0625 C-2.23180601 30.77067569 -2.23180601 30.77067569 -5.125 32.8125 C-7.19114946 34.94462025 -7.19114946 34.94462025 -8 38 C-13.852795 37.48517081 -19.3297637 36.54642808 -25 35 C-25.09796875 34.40832031 -25.1959375 33.81664062 -25.296875 33.20703125 C-25.44640625 32.41683594 -25.5959375 31.62664062 -25.75 30.8125 C-25.88921875 30.03519531 -26.0284375 29.25789063 -26.171875 28.45703125 C-27.20505647 25.39160131 -28.88625125 23.41878159 -31 21 C-29.54291931 18.18387676 -28.02766098 15.40337758 -26.5 12.625 C-26.09007812 11.8309375 -25.68015625 11.036875 -25.2578125 10.21875 C-22.04122316 4.46787815 -22.04122316 4.46787815 -18.93920898 3.07397461 C-16.98062295 2.61413267 -14.98960016 2.29833715 -13 2 C-12.360625 1.443125 -11.72125 0.88625 -11.0625 0.3125 C-7.5658892 -1.91261597 -3.91652254 -0.77404246 0 0 Z " fill="#FCFBFD" transform="translate(178,178)"/>
<path d="M0 0 C0.61875 0.639375 1.2375 1.27875 1.875 1.9375 C3.96305163 4.42466043 3.96305163 4.42466043 7.8125 4.140625 C10.44667382 4.41239537 11.62498248 4.62935708 13.52783203 6.51000977 C14.88518459 8.55475602 16.02067149 10.62109811 17.125 12.8125 C17.53492188 13.53759766 17.94484375 14.26269531 18.3671875 15.00976562 C20.50963212 19.01951215 20.50963212 19.01951215 21 21 C20.0783845 23.38357466 18.8440111 25.23710312 17.4375 27.375 C15.83968503 30.29274907 15.47278307 32.73104276 15 36 C13.08654673 36.53251766 11.1690705 37.05059483 9.25 37.5625 C8.18265625 37.85253906 7.1153125 38.14257812 6.015625 38.44140625 C3.12463204 38.97691401 1.66866475 39.14542689 -1 38 C-2.35827971 36.35360035 -3.69254251 34.68704193 -5 33 C-8.19442482 31.93519173 -9.44530819 32.18727866 -12.6875 32.625 C-16.49401366 32.7033694 -17.63833189 32.33763321 -20.46875 29.6953125 C-26.10701309 22.21071677 -26.10701309 22.21071677 -25.80078125 18.74609375 C-25 17 -25 17 -23.5 15.3125 C-21.22517656 11.80548054 -21.25427534 8.10347788 -21 4 C-18.62734939 3.32382476 -16.25244645 2.65891774 -13.875 2 C-12.87726563 1.71382812 -12.87726563 1.71382812 -11.859375 1.421875 C-7.81578195 0.31186907 -4.19143581 -0.39294711 0 0 Z " fill="#FCFCFD" transform="translate(109,177)"/>
<path d="M0 0 C1.0064275 1.66279327 2.00585407 3.32983484 3 5 C5.54350449 6.61859377 7.2675122 7.09976989 10.265625 6.69140625 C13.18456498 6.3287772 15.15058882 6.19819897 18 7 C21.32100387 10.64722164 23.68702308 14.65832265 26 19 C25.36578125 19.88945313 24.7315625 20.77890625 24.078125 21.6953125 C22.22476757 24.64256887 21.35990531 26.52052078 20.75 29.875 C20.60046875 30.65617187 20.4509375 31.43734375 20.296875 32.2421875 C20.19890625 32.82226562 20.1009375 33.40234375 20 34 C19.00097656 34.27714844 18.00195312 34.55429687 16.97265625 34.83984375 C15.66922209 35.20555549 14.36583931 35.57145038 13.0625 35.9375 C12.0734668 36.21110352 12.0734668 36.21110352 11.06445312 36.49023438 C7.76178827 37.22596101 7.76178827 37.22596101 5 39 C2.1875 39.3125 2.1875 39.3125 -1 39 C-2.33333333 37.66666667 -3.66666667 36.33333333 -5 35 C-6.09441406 34.95359375 -7.18882812 34.9071875 -8.31640625 34.859375 C-12.30125502 33.92971781 -12.61484696 33.75069396 -14.6875 30.54296875 C-15.48387425 29.10499731 -16.25413923 27.65230904 -17 26.1875 C-17.40605469 25.46240234 -17.81210938 24.73730469 -18.23046875 23.99023438 C-21.09427829 18.64869202 -21.09427829 18.64869202 -20.6953125 15.90356445 C-20 14 -20 14 -18.5 11.6875 C-16.69645625 8.45615078 -16.35839025 5.65558052 -16 2 C-14.08404518 1.66259915 -12.16720278 1.33023588 -10.25 1 C-9.18265625 0.814375 -8.1153125 0.62875 -7.015625 0.4375 C-4 0 -4 0 0 0 Z " fill="#FCFCFD" transform="translate(169,23)"/>
<path d="M0 0 C2.2922454 0.30822621 4.58378455 0.62170874 6.875 0.9375 C8.15117188 1.11152344 9.42734375 1.28554688 10.7421875 1.46484375 C14 2 14 2 16 3 C16.44890397 4.89180957 16.89306611 6.78647922 17.2421875 8.69921875 C18.28330248 11.86012971 20.08949206 14.29666995 22 17 C20.5228313 19.64696694 19.04337118 22.29260565 17.5625 24.9375 C17.14162109 25.69224609 16.72074219 26.44699219 16.28710938 27.22460938 C15.88427734 27.94326172 15.48144531 28.66191406 15.06640625 29.40234375 C14.69459229 30.06741943 14.32277832 30.73249512 13.93969727 31.41772461 C13 33 13 33 12 34 C9.71822945 34.49118348 7.42730701 34.89887035 5.12890625 35.3046875 C2.63581873 35.87599358 2.63581873 35.87599358 1 39 C-4.40894282 39.79155261 -9.00504831 37.82524973 -14 36 C-15.175625 35.608125 -16.35125 35.21625 -17.5625 34.8125 C-18.366875 34.544375 -19.17125 34.27625 -20 34 C-20.10957031 33.31292969 -20.21914062 32.62585937 -20.33203125 31.91796875 C-20.49058594 31.01691406 -20.64914063 30.11585937 -20.8125 29.1875 C-20.96332031 28.29417969 -21.11414063 27.40085937 -21.26953125 26.48046875 C-21.78831326 23.93619481 -21.78831326 23.93619481 -23.63671875 22.48828125 C-24.08660156 21.99714844 -24.53648438 21.50601563 -25 21 C-24.63589587 15.57396047 -21.94141501 10.68023691 -18 7 C-15.30228267 6.47855624 -13.06484786 6.61314479 -10.3359375 6.8671875 C-7.07408628 7.05264392 -5.4562603 6.08409965 -3 4 C-1.98133803 2.68086939 -0.978462 1.34921825 0 0 Z " fill="#FCFCFD" transform="translate(108,23)"/>
<path d="M0 0 C0.80244141 0.4021875 0.80244141 0.4021875 1.62109375 0.8125 C3.38209607 1.69155534 5.14548891 2.56582539 6.91015625 3.4375 C7.95042969 3.953125 8.99070312 4.46875 10.0625 5 C11.10535156 5.515625 12.14820313 6.03125 13.22265625 6.5625 C16 8 16 8 19 10 C19.66015625 12.3125 19.66015625 12.3125 20.0625 15 C20.57245397 18.95420137 20.57245397 18.95420137 23 22 C22.86328125 24.03125 22.86328125 24.03125 22.3125 26.5 C22.11527344 27.38429687 21.91804688 28.26859375 21.71484375 29.1796875 C20.62009429 33.49886296 19.35454426 37.75576133 18 42 C16.783125 42.0825 15.56625 42.165 14.3125 42.25 C10.14827376 42.73472475 8.21522082 44.32064932 5 47 C0.03589813 46.39000443 -4.53755801 43.49888874 -8 40 C-8.57036798 37.56178572 -8.45459428 35.6661788 -8.19921875 33.18359375 C-7.91247568 30.04066479 -8.62940466 27.80972045 -10 25 C-11.91764174 23.6237206 -11.91764174 23.6237206 -14 23 C-14.66 22.67 -15.32 22.34 -16 22 C-15.30834212 16.58201328 -14.24200752 11.3177215 -13 6 C-12.31292969 5.81824219 -11.62585937 5.63648438 -10.91796875 5.44921875 C-10.01691406 5.19785156 -9.11585937 4.94648438 -8.1875 4.6875 C-7.29417969 4.44386719 -6.40085937 4.20023438 -5.48046875 3.94921875 C-2.94752262 2.9799181 -1.7283504 2.04990396 0 0 Z " fill="#FCFCFD" transform="translate(58,128)"/>
<path d="M0 0 C1.8034402 1.04458206 3.55887767 2.17206428 5.29296875 3.328125 C7.61684822 3.72200288 9.95090624 4.06298585 12.29296875 4.328125 C13.16135699 7.05348188 14.01289494 9.78228873 14.85546875 12.515625 C15.22575195 13.66901367 15.22575195 13.66901367 15.60351562 14.84570312 C17.82719692 22.14313611 17.82719692 22.14313611 16.29296875 26.328125 C15.79796875 26.781875 15.30296875 27.235625 14.79296875 27.703125 C12.93761847 29.3750121 12.93761847 29.3750121 13.04296875 32.703125 C12.29296875 36.328125 12.29296875 36.328125 9.29296875 38.953125 C7.97695022 39.77325249 6.64160463 40.56281777 5.29296875 41.328125 C4.50277344 41.79605469 3.71257812 42.26398438 2.8984375 42.74609375 C-3.31242341 46.328125 -3.31242341 46.328125 -5.70703125 46.328125 C-6.22265625 45.709375 -6.73828125 45.090625 -7.26953125 44.453125 C-10.81398773 41.36308602 -14.10694606 41.13990474 -18.70703125 40.328125 C-19.69703125 35.378125 -20.68703125 30.428125 -21.70703125 25.328125 C-20.05703125 24.008125 -18.40703125 22.688125 -16.70703125 21.328125 C-14.50498628 18.14597909 -14.72679411 16.30448701 -15.33203125 12.578125 C-15.4140625 9.953125 -15.4140625 9.953125 -14.70703125 7.328125 C-10.85219488 3.45513399 -5.72908065 -1.42193632 0 0 Z " fill="#FCFCFD" transform="translate(63.70703125,64.671875)"/>
<path d="M0 0 C1.03213623 -0.00999023 2.06427246 -0.01998047 3.12768555 -0.03027344 C12.92267813 0.07872417 24.88223277 1.26947749 32.3125 8.4375 C32.3125 9.4275 32.3125 10.4175 32.3125 11.4375 C20.98591907 20.68368851 4.27556739 20.48362187 -9.6875 19.4375 C-17.49520843 18.57822071 -24.28756568 17.30107306 -30.6875 12.4375 C-31.8125 10.4375 -31.8125 10.4375 -31.6875 8.4375 C-24.46579239 -0.40256618 -10.43812162 0.05894177 0 0 Z " fill="#535D65" transform="translate(144.6875,89.5625)"/>
<path d="M0 0 C3.81248907 0.67279219 7.33177778 1.77725926 11 3 C17.10961858 4.45874269 23.2515225 4.22391032 29.5 4.25 C30.70398438 4.270625 31.90796875 4.29125 33.1484375 4.3125 C41.50269662 4.3484323 48.95297366 3.20067423 57 1 C58.33261825 0.66381926 59.6656415 0.32920553 61 0 C61.66 1.32 62.32 2.64 63 4 C59.88753884 7.61227244 57.24139342 8.8764496 52.6875 10.1875 C51.05361328 10.67283203 51.05361328 10.67283203 49.38671875 11.16796875 C35.57862047 14.56026971 17.35954132 15.14912113 4.359375 8.6875 C2.125 7.3125 2.125 7.3125 -1 5 C-0.67 3.35 -0.34 1.7 0 0 Z " fill="#58626A" transform="translate(114,108)"/>
<path d="M0 0 C1.75 0.26953125 1.75 0.26953125 4 0.8125 C5.0828125 1.06966797 5.0828125 1.06966797 6.1875 1.33203125 C7.75958916 1.70540243 9.32964941 2.08897127 10.88964844 2.51000977 C17.35924852 4.14351789 23.59747878 4.34520907 30.25 4.3125 C31.90563965 4.30947876 31.90563965 4.30947876 33.59472656 4.30639648 C41.50604462 4.20899232 48.42312292 3.32856254 56 1 C57.66294626 0.64857627 59.32876189 0.30959987 61 0 C61.66 1.32 62.32 2.64 63 4 C57.65497072 10.73938474 48.48514193 11.54711469 40.44921875 12.6484375 C27.24400223 13.99438256 11.37551581 13.73535075 0 6 C-1.0625 3.3125 -1.0625 3.3125 -1 1 C-0.67 0.67 -0.34 0.34 0 0 Z " fill="#59636B" transform="translate(114,132)"/>
<path d="M0 0 C18.03591111 5.20439226 35.05007779 3.38963545 52.8125 -1.875 C53.4725 -0.555 54.1325 0.765 54.8125 2.125 C49.85316196 8.11753346 43.22699243 9.21710297 35.8125 10.125 C35.4825 10.455 35.1525 10.785 34.8125 11.125 C31.17408628 11.38080245 27.52131581 11.3102478 23.875 11.3125 C22.86630859 11.32474609 21.85761719 11.33699219 20.81835938 11.34960938 C12.26363021 11.36613493 4.02684902 10.64475144 -3.75 6.8125 C-4.57628906 6.42449219 -5.40257813 6.03648438 -6.25390625 5.63671875 C-8.1875 4.125 -8.1875 4.125 -8.96484375 1.45703125 C-9.03832031 0.68746094 -9.11179687 -0.08210938 -9.1875 -0.875 C-6.04462429 -2.44643786 -3.21637494 -0.93849781 0 0 Z " fill="#58626A" transform="translate(122.1875,121.875)"/>
<path d="M0 0 C0.59425781 0.19335938 1.18851563 0.38671875 1.80078125 0.5859375 C8.13972563 2.57733216 14.44364086 3.94051231 21 5 C20.67 7.97 20.34 10.94 20 14 C19.67 14 19.34 14 19 14 C19 12.02 19 10.04 19 8 C18.00419922 7.92652344 18.00419922 7.92652344 16.98828125 7.8515625 C12.2800475 7.45290913 8.33606753 6.9822023 4 5 C2.34080104 4.63128912 0.6752357 4.28718326 -1 4 C-0.34 3.67 0.32 3.34 1 3 C0.67 2.01 0.34 1.02 0 0 Z " fill="#7064A6" transform="translate(170,173)"/>
<path d="M0 0 C1.98162047 3.5526349 3.02437208 7.21980907 4.125 11.125 C4.47820312 12.36507812 4.83140625 13.60515625 5.1953125 14.8828125 C6 18 6 18 6 20 C6.99 20.33 7.98 20.66 9 21 C6.69 21.66 4.38 22.32 2 23 C1.896875 22.113125 1.79375 21.22625 1.6875 20.3125 C0.86580675 14.46397745 -0.62794088 8.73848624 -2 3 C-1.34 3 -0.68 3 0 3 C0 2.01 0 1.02 0 0 Z " fill="#7165A6" transform="translate(78,68)"/>
<path d="M0 0 C13.6332574 3.07517084 13.6332574 3.07517084 20 5 C19.01 6.485 19.01 6.485 18 8 C12.24237834 6.91103333 6.60752181 5.70663707 1 4 C0.67 2.68 0.34 1.36 0 0 Z M22 1 C22.66 1.33 23.32 1.66 24 2 C22.68 2.99 21.36 3.98 20 5 C20.66 3.68 21.32 2.36 22 1 Z " fill="#6F63A4" transform="translate(89,57)"/>
<path d="M0 0 C0.33 0.66 0.66 1.32 1 2 C3.31 2 5.62 2 8 2 C8 2.33 8 2.66 8 3 C6.65035156 3.02900391 6.65035156 3.02900391 5.2734375 3.05859375 C1.70799292 3.72451533 1.70799292 3.72451533 -0.3359375 7.16015625 C-1.03687259 8.44961232 -1.71608275 9.7510752 -2.375 11.0625 C-2.72949219 11.72572266 -3.08398438 12.38894531 -3.44921875 13.07226562 C-4.31839739 14.70491199 -5.16179133 16.35123929 -6 18 C-6.99 18 -7.98 18 -9 18 C-7.65072455 13.46152802 -5.80840652 9.68067754 -3.375 5.625 C-2.74335938 4.56539062 -2.11171875 3.50578125 -1.4609375 2.4140625 C-0.73777344 1.21910156 -0.73777344 1.21910156 0 0 Z " fill="#685BA0" transform="translate(155,179)"/>
<path d="M0 0 C1.234375 1.55859375 1.234375 1.55859375 2 4 C0.86407135 6.56181804 -0.27537092 8.71139436 -1.75 11.0625 C-2.12382813 11.68705078 -2.49765625 12.31160156 -2.8828125 12.95507812 C-4.52436651 15.68226981 -6.23433162 18.35149743 -8 21 C-8.88907466 18.13172899 -9.38047507 15.9503335 -8.23876953 13.09863281 C-7.0837645 11.0528562 -5.8537538 9.08755365 -4.5625 7.125 C-3.9118457 6.09246094 -3.9118457 6.09246094 -3.24804688 5.0390625 C-2.18048082 3.3497272 -1.09223894 1.67348891 0 0 Z " fill="#6E61A3" transform="translate(130,39)"/>
<path d="M0 0 C0.66 0 1.32 0 2 0 C3.90458898 7.93578742 1.47289675 14.44333697 -1 22 C-1.99 21.67 -2.98 21.34 -4 21 C-3.44175246 15.86412266 -2.23626665 11.23937475 -0.62109375 6.33203125 C0.1715736 3.75801015 0.1715736 3.75801015 0 0 Z " fill="#6F63A5" transform="translate(80,149)"/>
<path d="M0 0 C1.37432457 3.81756824 0.67975039 7.07255329 0 11 C-2.12437048 11.50266794 -4.24951726 12.0020561 -6.375 12.5 C-7.55835937 12.7784375 -8.74171875 13.056875 -9.9609375 13.34375 C-13 14 -13 14 -15 14 C-14.3828125 12.078125 -14.3828125 12.078125 -13 10 C-10.1796875 9.171875 -10.1796875 9.171875 -6.875 8.75 C-5.77929688 8.60046875 -4.68359375 8.4509375 -3.5546875 8.296875 C-2.71164063 8.19890625 -1.86859375 8.1009375 -1 8 C-1.020625 7.05125 -1.04125 6.1025 -1.0625 5.125 C-1 2 -1 2 0 0 Z " fill="#6F64A5" transform="translate(125,205)"/>
<path d="M0 0 C0 0.66 0 1.32 0 2 C0.99 2.33 1.98 2.66 3 3 C0.23132003 3.69740804 -2.53936862 4.38322853 -5.3125 5.0625 C-6.49102539 5.36124023 -6.49102539 5.36124023 -7.69335938 5.66601562 C-8.45068359 5.84970703 -9.20800781 6.03339844 -9.98828125 6.22265625 C-11.03302612 6.48187866 -11.03302612 6.48187866 -12.09887695 6.74633789 C-14 7 -14 7 -17 6 C-17.66 5.34 -18.32 4.68 -19 4 C-16.20895657 3.3306277 -13.41722977 2.66438908 -10.625 2 C-9.43390625 1.71382812 -9.43390625 1.71382812 -8.21875 1.421875 C-7.45820312 1.24140625 -6.69765625 1.0609375 -5.9140625 0.875 C-4.8614624 0.62363281 -4.8614624 0.62363281 -3.78759766 0.3671875 C-2 0 -2 0 0 0 Z " fill="#7065A5" transform="translate(106,174)"/>
<path d="M0 0 C0.75796875 0.08636719 1.5159375 0.17273438 2.296875 0.26171875 C1.306875 0.75671875 1.306875 0.75671875 0.296875 1.26171875 C-0.4110772 2.57359752 -1.07078042 3.91176965 -1.703125 5.26171875 C-3.05174506 7.59296168 -4.40929724 9.91838267 -5.77734375 12.23828125 C-6.08285156 12.90601563 -6.38835937 13.57375 -6.703125 14.26171875 C-6.373125 14.92171875 -6.043125 15.58171875 -5.703125 16.26171875 C-7.023125 15.60171875 -8.343125 14.94171875 -9.703125 14.26171875 C-9.12983466 10.41930849 -8.05332708 7.71319261 -5.953125 4.44921875 C-5.21835938 3.26392578 -5.21835938 3.26392578 -4.46875 2.0546875 C-2.703125 0.26171875 -2.703125 0.26171875 0 0 Z " fill="#6B5EA2" transform="translate(196.703125,196.73828125)"/>
<path d="M0 0 C0.77085938 0.42152344 1.54171875 0.84304687 2.3359375 1.27734375 C3.33882813 1.82519531 4.34171875 2.37304688 5.375 2.9375 C6.37273437 3.48277344 7.37046875 4.02804688 8.3984375 4.58984375 C9.92070346 5.4149759 11.45128783 6.22564391 13 7 C12.67 7.99 12.34 8.98 12 10 C8.20950293 8.57250019 4.72877544 6.83763458 1.1875 4.875 C0.21167969 4.33617187 -0.76414062 3.79734375 -1.76953125 3.2421875 C-2.50558594 2.83226562 -3.24164063 2.42234375 -4 2 C-3.34 1.67 -2.68 1.34 -2 1 C-1.34 1.33 -0.68 1.66 0 2 C0 1.34 0 0.68 0 0 Z " fill="#685B9F" transform="translate(65,128)"/>
<path d="M0 0 C0.99 0.33 1.98 0.66 3 1 C1.70080169 4.89759494 0.2255712 5.34898764 -3.3125 7.3125 C-4.76076172 8.14201172 -4.76076172 8.14201172 -6.23828125 8.98828125 C-9 10 -9 10 -11.35546875 9.16796875 C-11.89816406 8.78253906 -12.44085938 8.39710937 -13 8 C-10.90320896 6.63304778 -8.7989062 5.28153009 -6.6875 3.9375 C-6.09259766 3.54755859 -5.49769531 3.15761719 -4.88476562 2.75585938 C-3.30390365 1.75788505 -1.65405288 0.87131304 0 0 Z " fill="#6D61A3" transform="translate(73,102)"/>
<path d="M0 0 C2.625 1.25 2.625 1.25 4.6875 2.875 C6.77270106 4.63583134 6.77270106 4.63583134 10.625 4.25 C10.295 5.57 9.965 6.89 9.625 8.25 C8.965 8.25 8.305 8.25 7.625 8.25 C7.295 8.91 6.965 9.57 6.625 10.25 C6.625 9.26 6.625 8.27 6.625 7.25 C5.738125 7.023125 4.85125 6.79625 3.9375 6.5625 C0.19119468 5.07811487 -1.71229434 3.22596515 -4.375 0.25 C-2.375 -0.75 -2.375 -0.75 0 0 Z " fill="#66599D" transform="translate(53.375,169.75)"/>
<path d="M0 0 C0.33 0.99 0.66 1.98 1 3 C1.66 3.33 2.32 3.66 3 4 C1.20909242 5.1470194 -0.58274997 6.29257935 -2.375 7.4375 C-3.87160156 8.39462891 -3.87160156 8.39462891 -5.3984375 9.37109375 C-8 11 -8 11 -10 12 C-10 11.34 -10 10.68 -10 10 C-10.66 9.67 -11.32 9.34 -12 9 C-10.3790787 7.82767315 -8.75313167 6.6622923 -7.125 5.5 C-5.76761719 4.52546875 -5.76761719 4.52546875 -4.3828125 3.53125 C-2 2 -2 2 0 2 C0 1.34 0 0.68 0 0 Z " fill="#6D61A3" transform="translate(60,60)"/>
<path d="M0 0 C0.99 0.33 1.98 0.66 3 1 C3.73046875 2.92578125 3.73046875 2.92578125 4.1875 5.3125 C4.34605469 6.09238281 4.50460938 6.87226562 4.66796875 7.67578125 C5 10 5 10 5 14 C4.01 14.33 3.02 14.66 2 15 C0.73694665 9.92523206 -0.27036084 5.27203646 0 0 Z " fill="#695CA0" transform="translate(40,91)"/>
<path d="M0 0 C2.33364352 2.92903058 4.04960836 5.88568203 5.6875 9.25 C6.12449219 10.14203125 6.56148437 11.0340625 7.01171875 11.953125 C7.33785156 12.62859375 7.66398438 13.3040625 8 14 C7.01 14.33 6.02 14.66 5 15 C3.96122737 13.4493684 2.94457445 11.88390319 1.9375 10.3125 C1.36902344 9.44238281 0.80054688 8.57226562 0.21484375 7.67578125 C-1.19442012 4.57177563 -1.00772958 3.1959424 0 0 Z " fill="#6B5FA2" transform="translate(148,41)"/>
<path d="M0 0 C1.2109375 1.640625 1.2109375 1.640625 2 4 C0.6640625 6.796875 0.6640625 6.796875 -1.375 9.75 C-2.04273437 10.73484375 -2.71046875 11.7196875 -3.3984375 12.734375 C-3.92695312 13.48203125 -4.45546875 14.2296875 -5 15 C-6.2109375 13.359375 -6.2109375 13.359375 -7 11 C-5.6640625 8.203125 -5.6640625 8.203125 -3.625 5.25 C-2.95726563 4.26515625 -2.28953125 3.2803125 -1.6015625 2.265625 C-1.07304688 1.51796875 -0.54453125 0.7703125 0 0 Z " fill="#675AA1" transform="translate(88,28)"/>
<path d="M0 0 C2.63978826 3.18595135 5.10498388 6.30970546 7 10 C6.67 10.66 6.34 11.32 6 12 C5.01 12 4.02 12 3 12 C-1.06153846 5.72307692 -1.06153846 5.72307692 -0.75 2.0625 C-0.5025 1.381875 -0.255 0.70125 0 0 Z " fill="#7063A5" transform="translate(125,185)"/>
<path d="M0 0 C0.33 0.66 0.66 1.32 1 2 C-0.76602319 2.41676948 -2.53814301 2.8077738 -4.3125 3.1875 C-5.29863281 3.40792969 -6.28476563 3.62835937 -7.30078125 3.85546875 C-10 4 -10 4 -11.85546875 2.55078125 C-12.23316406 2.03902344 -12.61085937 1.52726562 -13 1 C-11.58622218 0.63447197 -10.16879424 0.28304505 -8.75 -0.0625 C-7.96109375 -0.25972656 -7.1721875 -0.45695312 -6.359375 -0.66015625 C-3.86185292 -1.01989867 -2.34449197 -0.9077126 0 0 Z " fill="#6D61A3" transform="translate(168,21)"/>
<path d="M0 0 C-0.33 0.99 -0.66 1.98 -1 3 C-2.84765625 3.73046875 -2.84765625 3.73046875 -5.0625 4.1875 C-5.79597656 4.34605469 -6.52945313 4.50460938 -7.28515625 4.66796875 C-8.13400391 4.83232422 -8.13400391 4.83232422 -9 5 C-9 4.34 -9 3.68 -9 3 C-10.32 2.67 -11.64 2.34 -13 2 C-11.21089097 1.47044766 -9.41860852 0.9516063 -7.625 0.4375 C-6.62726563 0.14746094 -5.62953125 -0.14257812 -4.6015625 -0.44140625 C-2 -1 -2 -1 0 0 Z " fill="#7A6EAB" transform="translate(188,58)"/>
<path d="M0 0 C3.08089673 2.77280706 4.68775452 5.06326356 6 9 C5.34 9.66 4.68 10.32 4 11 C2.02 8.03 0.04 5.06 -2 2 C-1.34 1.34 -0.68 0.68 0 0 Z " fill="#6C60A3" transform="translate(189,29)"/>
<path d="M0 0 C2.69082872 0.17635452 5.32851446 0.61835921 8 1 C8 1.66 8 2.32 8 3 C8.99 3.66 9.98 4.32 11 5 C10.29488281 4.85691406 9.58976563 4.71382812 8.86328125 4.56640625 C5.97588399 3.99522944 3.08390614 3.46094689 0.1875 2.9375 C-1.27623047 2.67259766 -1.27623047 2.67259766 -2.76953125 2.40234375 C-3.50558594 2.26957031 -4.24164063 2.13679687 -5 2 C-4.360625 1.855625 -3.72125 1.71125 -3.0625 1.5625 C-1.02454854 1.18992819 -1.02454854 1.18992819 0 0 Z " fill="#7266A7" transform="translate(157,214)"/>
<path d="M0 0 C0.33 0.66 0.66 1.32 1 2 C3.31 2 5.62 2 8 2 C8 2.33 8 2.66 8 3 C6.6078125 3.061875 6.6078125 3.061875 5.1875 3.125 C1.71052362 3.68859031 1.71052362 3.68859031 0.125 7.0625 C-0.24625 8.031875 -0.6175 9.00125 -1 10 C-1.33 9.34 -1.66 8.68 -2 8 C-2.66 7.67 -3.32 7.34 -4 7 C-2.68 4.69 -1.36 2.38 0 0 Z " fill="#776BA9" transform="translate(155,179)"/>
<path d="M0 0 C2.12038635 2.61514317 4.13091744 5.19637616 6 8 C4.68 8.33 3.36 8.66 2 9 C0.02 5.535 0.02 5.535 -2 2 C-1.34 2 -0.68 2 0 2 C0 1.34 0 0.68 0 0 Z " fill="#6F64A5" transform="translate(86,202)"/>
<path d="M0 0 C1.98 0.99 3.96 1.98 6 3 C5.01 3.495 5.01 3.495 4 4 C3.67 4.66 3.34 5.32 3 6 C-0.465 4.02 -0.465 4.02 -4 2 C-3.34 1.67 -2.68 1.34 -2 1 C-1.34 1.33 -0.68 1.66 0 2 C0 1.34 0 0.68 0 0 Z " fill="#796EAA" transform="translate(65,128)"/>
<path d="M0 0 C0.66 1.32 1.32 2.64 2 4 C0.68 5.65 -0.64 7.3 -2 9 C-2.6875 6.75 -2.6875 6.75 -3 4 C-1.5625 1.6875 -1.5625 1.6875 0 0 Z " fill="#7165A5" transform="translate(84,34)"/>
<path d="M0 0 C2.625 0.9375 2.625 0.9375 5 2 C4.34 3.32 3.68 4.64 3 6 C1.35 4.35 -0.3 2.7 -2 1 C-1.34 0.67 -0.68 0.34 0 0 Z " fill="#766BA8" transform="translate(51,169)"/>
</svg>
